<svg width="10" height="10" viewBox="0 0 10 10" fill="none" xmlns="http://www.w3.org/2000/svg">
<path d="M4.16829 5.48729H0.749484C0.604185 5.48729 0.482419 5.43812 0.384185 5.33977C0.285838 5.24143 0.236664 5.1196 0.236664 4.9743C0.236664 4.82889 0.285838 4.70712 0.384185 4.609C0.482419 4.51077 0.604185 4.46165 0.749484 4.46165H4.16829V1.04285C4.16829 0.897551 4.21746 0.775784 4.31581 0.677551C4.41416 0.579203 4.53598 0.530029 4.68128 0.530029C4.82669 0.530029 4.94846 0.579203 5.04658 0.677551C5.14481 0.775784 5.19393 0.897551 5.19393 1.04285V4.46165H8.61273C8.75803 4.46165 8.8798 4.51083 8.97803 4.60917C9.07638 4.70752 9.12555 4.82935 9.12555 4.97465C9.12555 5.12006 9.07638 5.24182 8.97803 5.33994C8.8798 5.43818 8.75803 5.48729 8.61273 5.48729H5.19393V8.9061C5.19393 9.0514 5.14475 9.17316 5.04641 9.2714C4.94806 9.36975 4.82624 9.41892 4.68094 9.41892C4.53552 9.41892 4.41376 9.36975 4.31564 9.2714C4.2174 9.17316 4.16829 9.0514 4.16829 8.9061V5.48729Z" fill="#7B7B7B"/>
</svg>
