<svg width="17" height="16" viewBox="0 0 17 16" fill="none" xmlns="http://www.w3.org/2000/svg">
<path d="M7.6509 8.00016L10.3664 10.7155C10.4586 10.8078 10.5058 10.9239 10.5081 11.0637C10.5102 11.2033 10.463 11.3215 10.3664 11.4182C10.2697 11.5147 10.1526 11.563 10.0151 11.563C9.87751 11.563 9.7604 11.5147 9.66374 11.4182L6.66757 8.422C6.60524 8.35955 6.56124 8.29372 6.53557 8.2245C6.5099 8.15528 6.49707 8.0805 6.49707 8.00016C6.49707 7.91983 6.5099 7.84505 6.53557 7.77583C6.56124 7.70661 6.60524 7.64078 6.66757 7.57833L9.66374 4.58216C9.75607 4.48994 9.87213 4.44272 10.0119 4.4405C10.1516 4.43839 10.2697 4.48561 10.3664 4.58216C10.463 4.67883 10.5112 4.79594 10.5112 4.9335C10.5112 5.07105 10.463 5.18816 10.3664 5.28483L7.6509 8.00016Z" fill="#7B7B7B"/>
</svg>
