<svg width="17" height="16" viewBox="0 0 17 16" fill="none" xmlns="http://www.w3.org/2000/svg">
<path d="M9.31248 7.99985L6.59698 5.28451C6.50476 5.19218 6.45754 5.07612 6.45532 4.93635C6.4532 4.79668 6.50043 4.67851 6.59698 4.58185C6.69365 4.48529 6.81076 4.43701 6.94831 4.43701C7.08587 4.43701 7.20298 4.48529 7.29965 4.58185L10.2958 7.57801C10.3581 7.64046 10.4021 7.70629 10.4278 7.77551C10.4535 7.84473 10.4663 7.91951 10.4663 7.99985C10.4663 8.08018 10.4535 8.15496 10.4278 8.22418C10.4021 8.2934 10.3581 8.35923 10.2958 8.42168L7.29965 11.4178C7.20731 11.5101 7.09126 11.5573 6.95148 11.5595C6.81181 11.5616 6.69365 11.5144 6.59698 11.4178C6.50043 11.3212 6.45215 11.2041 6.45215 11.0665C6.45215 10.929 6.50043 10.8118 6.59698 10.7152L9.31248 7.99985Z" fill="#7B7B7B"/>
</svg>
