<svg width="13" height="10" viewBox="0 0 13 10" fill="none" xmlns="http://www.w3.org/2000/svg">
<path d="M2.17008 5.62577L4.91362 8.36931C5.03765 8.49334 5.09883 8.63841 5.09716 8.80452C5.09563 8.97063 5.03445 9.11834 4.91362 9.24765C4.78445 9.37681 4.63598 9.44355 4.4682 9.44785C4.30042 9.45216 4.15195 9.38966 4.02279 9.26035L0.290286 5.52806C0.139731 5.37737 0.0644531 5.2016 0.0644531 5.00077C0.0644531 4.79994 0.139731 4.62417 0.290286 4.47348L4.02279 0.741187C4.14668 0.617298 4.29383 0.556117 4.46424 0.557645C4.63466 0.559312 4.78445 0.624729 4.91362 0.753896C5.03445 0.883202 5.09695 1.02959 5.10112 1.19306C5.10542 1.35653 5.04292 1.50292 4.91362 1.63223L2.17008 4.37577H11.9747C12.152 4.37577 12.3005 4.43563 12.4201 4.55535C12.5398 4.67494 12.5997 4.82341 12.5997 5.00077C12.5997 5.17813 12.5398 5.3266 12.4201 5.44619C12.3005 5.56591 12.152 5.62577 11.9747 5.62577H2.17008Z" fill="#06ACCE"/>
</svg>
