<svg width="24" height="24" viewBox="0 0 24 24" fill="none" xmlns="http://www.w3.org/2000/svg">
<path d="M12 22C7.58788 22 4 18.2051 4 13.5385V7.89744C4 4.64615 6.50182 2 9.57576 2C12.6497 2 15.1515 4.64615 15.1515 7.89744V13.5385C15.1515 15.3744 13.7358 16.8718 12 16.8718C10.2642 16.8718 8.84848 15.3744 8.84848 13.5385V9.4359C8.84848 9.01539 9.17818 8.66667 9.57576 8.66667C9.97333 8.66667 10.303 9.01539 10.303 9.4359V13.5385C10.303 14.5231 11.0691 15.3333 12 15.3333C12.9309 15.3333 13.697 14.5231 13.697 13.5385V7.89744C13.697 5.49744 11.8448 3.53846 9.57576 3.53846C7.30667 3.53846 5.45455 5.49744 5.45455 7.89744V13.5385C5.45455 17.3538 8.39273 20.4615 12 20.4615C15.6073 20.4615 18.5455 17.3538 18.5455 13.5385V12C18.5455 11.5795 18.8752 11.2308 19.2727 11.2308C19.6703 11.2308 20 11.5795 20 12V13.5385C20 18.2051 16.4121 22 12 22Z" fill="black"/>
</svg>
