<svg width="14" height="17" viewBox="0 0 14 17" fill="none" xmlns="http://www.w3.org/2000/svg">
<path d="M6.99854 16.0768C6.58396 16.0768 6.22951 15.9293 5.93521 15.6343C5.64076 15.3393 5.49354 14.9846 5.49354 14.5703H8.50646C8.50646 14.986 8.35882 15.341 8.06354 15.6353C7.76826 15.9296 7.41326 16.0768 6.99854 16.0768ZM1.375 13.737C1.19792 13.737 1.04951 13.6771 0.929792 13.5574C0.809931 13.4376 0.75 13.289 0.75 13.1118C0.75 12.9347 0.809931 12.7863 0.929792 12.6666C1.04951 12.547 1.19792 12.4872 1.375 12.4872H2.25646V6.26909C2.25646 5.14839 2.60236 4.15749 3.29417 3.29638C3.98583 2.43527 4.87389 1.8845 5.95833 1.64409V1.12492C5.95833 0.835613 6.05951 0.589641 6.26188 0.387002C6.46424 0.184502 6.70993 0.083252 6.99896 0.083252C7.28813 0.083252 7.53417 0.184502 7.73708 0.387002C7.94014 0.589641 8.04167 0.835613 8.04167 1.12492V1.29159C7.90486 1.53839 7.79639 1.78943 7.71625 2.04471C7.63611 2.30013 7.58701 2.56513 7.56896 2.83971C7.4741 2.82263 7.3816 2.80763 7.29146 2.79471C7.20146 2.78193 7.10431 2.77554 7 2.77554C6.03528 2.77554 5.21181 3.11665 4.52958 3.79888C3.8475 4.48096 3.50646 5.30436 3.50646 6.26909V12.4872H10.4935V7.27721C10.6848 7.34554 10.8867 7.39895 11.0994 7.43742C11.312 7.47589 11.5267 7.49249 11.7435 7.48721V12.4872H12.625C12.8021 12.4872 12.9505 12.5471 13.0702 12.6668C13.1901 12.7867 13.25 12.9352 13.25 13.1124C13.25 13.2895 13.1901 13.4379 13.0702 13.5576C12.9505 13.6772 12.8021 13.737 12.625 13.737H1.375Z" fill="#565656"/>
</svg>
