<svg width="12" height="14" viewBox="0 0 12 14" fill="none" xmlns="http://www.w3.org/2000/svg">
<path d="M6.00016 12.0511L2.69245 13.4709C2.19037 13.6856 1.71336 13.6445 1.26141 13.3475C0.809468 13.0506 0.583496 12.6329 0.583496 12.0944V1.92296C0.583496 1.50199 0.729329 1.14567 1.021 0.854004C1.31266 0.562337 1.66898 0.416504 2.08995 0.416504H9.91037C10.3313 0.416504 10.6877 0.562337 10.9793 0.854004C11.271 1.14567 11.4168 1.50199 11.4168 1.92296V12.0944C11.4168 12.6329 11.1909 13.0506 10.7389 13.3475C10.287 13.6445 9.80996 13.6856 9.30787 13.4709L6.00016 12.0511ZM6.00016 10.6665L9.8062 12.3059C9.89176 12.3432 9.97322 12.3353 10.0506 12.2819C10.1281 12.2284 10.1668 12.1563 10.1668 12.0655V1.92296C10.1668 1.8588 10.1401 1.80005 10.0866 1.74671C10.0333 1.69324 9.97454 1.6665 9.91037 1.6665H2.08995C2.02579 1.6665 1.96704 1.69324 1.9137 1.74671C1.86023 1.80005 1.8335 1.8588 1.8335 1.92296V12.0655C1.8335 12.1563 1.87225 12.2284 1.94975 12.2819C2.02711 12.3353 2.10857 12.3432 2.19412 12.3059L6.00016 10.6665Z" fill="#565656"/>
</svg>
