<svg width="16" height="18" viewBox="0 0 16 18" fill="none" xmlns="http://www.w3.org/2000/svg">
<path d="M11.2814 17.308C10.266 17.308 9.11217 16.3933 8.15063 15.6259C7.85063 15.3855 7.5814 15.1685 7.36601 15.029C6.94293 14.7576 6.6737 14.5793 6.53524 14.5793C6.39678 14.5793 6.11986 14.7576 5.70447 15.0212C5.4814 15.1685 5.21217 15.3778 4.91217 15.6259C3.70447 16.5871 2.19678 17.7809 1.03524 17.1142C0.181396 16.6336 0.181396 15.5561 0.181396 13.6104V9.52508C0.181396 6.55609 0.181396 5.06771 1.18909 4.0212C2.20447 2.96694 3.65063 2.96694 6.52755 2.96694C9.40447 2.96694 10.8506 2.96694 11.866 4.0212C12.8737 5.06771 12.8737 6.55609 12.8737 9.52508V13.6104C12.8737 15.5561 12.8737 16.6336 12.0276 17.1142C11.7891 17.2538 11.5429 17.308 11.2814 17.308ZM6.52755 13.4166C7.00447 13.4166 7.3737 13.6569 7.9814 14.0445C8.23524 14.2073 8.52755 14.4398 8.86601 14.7111C9.55063 15.2538 10.966 16.3778 11.4583 16.1065C11.7199 15.9514 11.7199 14.9204 11.7199 13.6104V9.52508C11.7199 6.86616 11.7199 5.53283 11.0352 4.83516C10.3583 4.13748 9.0814 4.13748 6.52755 4.13748C3.9737 4.13748 2.68909 4.13748 2.01217 4.83516C1.33524 5.53283 1.33524 6.86616 1.33524 9.52508V13.6104C1.33524 14.9204 1.33524 15.9514 1.60447 16.1065C2.08909 16.3855 3.51217 15.2615 4.19678 14.7189C4.53524 14.4476 4.82755 14.2228 5.0737 14.06C5.6814 13.6569 6.05063 13.4166 6.52755 13.4166Z" fill="#565656"/>
<path d="M14.6045 14.2073C14.2891 14.2073 14.0276 13.9437 14.0276 13.6259V8.97469C14.0276 5.48632 14.0276 3.73438 13.066 2.76539C12.1122 1.80415 10.3737 1.80415 6.91217 1.80415H5.3737C5.05832 1.80415 4.79678 1.54058 4.79678 1.22275C4.79678 0.904923 5.05832 0.641357 5.3737 0.641357H6.91217C10.6968 0.641357 12.5891 0.641357 13.8891 1.94368C15.1814 3.24601 15.1814 5.16074 15.1814 8.97469V13.6259C15.1814 13.9437 14.9199 14.2073 14.6045 14.2073Z" fill="#565656"/>
</svg>
