<svg width="12" height="13" viewBox="0 0 12 13" fill="none" xmlns="http://www.w3.org/2000/svg">
<path fill-rule="evenodd" clip-rule="evenodd" d="M2.02557 0.884358C2.10666 0.749202 2.25272 0.666504 2.41034 0.666504H9.58982C9.74744 0.666504 9.8935 0.749202 9.9746 0.884358L10.872 2.38008C10.9139 2.44982 10.936 2.52962 10.936 2.61095C10.936 3.29987 10.5778 3.9044 10.0385 4.24961V5.90155C10.0385 6.14937 9.83764 6.35026 9.58982 6.35026C9.342 6.35026 9.14111 6.14937 9.14111 5.90155V4.54971C9.09171 4.55347 9.04183 4.55539 8.99153 4.55539C8.39012 4.55539 7.85248 4.28234 7.49581 3.85346C7.13914 4.28234 6.60149 4.55539 6.00008 4.55539C5.39867 4.55539 4.86103 4.28234 4.50436 3.85346C4.14769 4.28234 3.61005 4.55539 3.00863 4.55539C2.95834 4.55539 2.90845 4.55347 2.85906 4.5497V5.90155C2.85906 6.14937 2.65816 6.35026 2.41034 6.35026C2.16252 6.35026 1.96162 6.14937 1.96162 5.90155V4.2496C1.42244 3.9044 1.06418 3.29988 1.06418 2.61095C1.06418 2.52962 1.08629 2.44982 1.12813 2.38008L2.02557 0.884358ZM4.95307 2.61095C4.95307 3.18917 5.42184 3.65796 6.00008 3.65796C6.57832 3.65796 7.04709 3.18917 7.04709 2.61095C7.04709 2.36313 7.24799 2.16223 7.49581 2.16223C7.74363 2.16223 7.94453 2.36313 7.94453 2.61095C7.94453 3.18917 8.4133 3.65796 8.99153 3.65796C9.14129 3.65796 9.28255 3.62679 9.41015 3.57104C9.74756 3.42362 9.99131 3.10433 10.0324 2.725L9.33576 1.56394H2.6644L1.96776 2.725C2.00886 3.10432 2.2526 3.42361 2.59 3.57103C2.71762 3.62679 2.8589 3.65796 3.00863 3.65796C3.58687 3.65796 4.05564 3.18918 4.05564 2.61095C4.05564 2.36313 4.25653 2.16223 4.50435 2.16223C4.75217 2.16223 4.95307 2.36313 4.95307 2.61095Z" fill="#565656"/>
<path fill-rule="evenodd" clip-rule="evenodd" d="M0.615466 6.05112C0.863286 6.05112 1.06418 6.25202 1.06418 6.49984V9.04257H1.81205C1.82192 9.04257 1.83177 9.04257 1.84158 9.04257C2.23936 9.04255 2.5821 9.04253 2.85656 9.07943C3.1507 9.11897 3.43265 9.20814 3.66134 9.43681C3.89002 9.66552 3.97923 9.9475 4.01878 10.2416C4.05568 10.5161 4.05566 10.8588 4.05564 11.2566L4.05564 11.8845C4.05564 12.1323 3.85474 12.3332 3.60692 12.3332C3.3591 12.3332 3.1582 12.1323 3.1582 11.8845V11.2862C3.1582 10.8504 3.15725 10.5688 3.12935 10.3612C3.10318 10.1666 3.06093 10.1056 3.02675 10.0714C2.99259 10.0372 2.93156 9.99502 2.73699 9.96886C2.52945 9.94096 2.24779 9.94001 1.81205 9.94001H1.06418V11.8845C1.06418 12.1323 0.863286 12.3332 0.615466 12.3332C0.367646 12.3332 0.166748 12.1323 0.166748 11.8845V6.49984C0.166748 6.25202 0.367646 6.05112 0.615466 6.05112Z" fill="#565656"/>
<path fill-rule="evenodd" clip-rule="evenodd" d="M11.3847 6.05112C11.6325 6.05112 11.8334 6.25202 11.8334 6.49984V11.8845C11.8334 12.1323 11.6325 12.3332 11.3847 12.3332C11.1369 12.3332 10.936 12.1323 10.936 11.8845V9.94001H10.1881C9.75238 9.94001 9.47071 9.94096 9.26317 9.96886C9.06868 9.99501 9.0076 10.0372 8.9734 10.0714C8.97338 10.0714 8.97342 10.0714 8.9734 10.0714M8.9734 10.0714C8.93924 10.1056 8.89696 10.1667 8.87081 10.3612C8.84291 10.5688 8.84196 10.8504 8.84196 11.2862V11.8845C8.84196 12.1323 8.64106 12.3332 8.39324 12.3332C8.14542 12.3332 7.94453 12.1323 7.94453 11.8845L7.94452 11.2566C7.9445 10.8588 7.94448 10.5161 7.98138 10.2416C8.02092 9.94751 8.11009 9.66557 8.33875 9.43686C8.56745 9.20821 8.84946 9.11897 9.1436 9.07943C9.41807 9.04253 9.7608 9.04255 10.1586 9.04257C10.1684 9.04257 10.1782 9.04257 10.1881 9.04257H10.936V6.49984C10.936 6.25202 11.1369 6.05112 11.3847 6.05112" fill="#565656"/>
<path fill-rule="evenodd" clip-rule="evenodd" d="M2.55991 7.69642C2.55991 7.4486 2.76081 7.2477 3.00863 7.2477H8.99153C9.23935 7.2477 9.44025 7.4486 9.44025 7.69642C9.44025 7.94424 9.23935 8.14514 8.99153 8.14514H6.4488V11.4357H6.59837C6.84619 11.4357 7.04709 11.6366 7.04709 11.8845C7.04709 12.1323 6.84619 12.3332 6.59837 12.3332H5.40179C5.15397 12.3332 4.95307 12.1323 4.95307 11.8845C4.95307 11.6366 5.15397 11.4357 5.40179 11.4357H5.55136V8.14514H3.00863C2.76081 8.14514 2.55991 7.94424 2.55991 7.69642Z" fill="#565656"/>
</svg>
