<svg width="17" height="18" viewBox="0 0 17 18" fill="none" xmlns="http://www.w3.org/2000/svg">
<path d="M5.36036 9.06542C4.89525 9.06542 4.58517 9.3755 4.58517 9.84062C4.58517 10.3057 4.97277 10.6158 5.36036 10.6158C5.74796 10.6158 6.13556 10.3057 6.13556 9.84062C6.13556 9.3755 5.82548 9.06542 5.36036 9.06542Z" fill="#565656"/>
<path d="M5.36036 12.1653C4.89525 12.1653 4.58517 12.4753 4.58517 12.9405C4.58517 13.4056 4.97277 13.7157 5.36036 13.7157C5.74796 13.7157 6.13556 13.4056 6.13556 12.9405C6.13556 12.4753 5.82548 12.1653 5.36036 12.1653Z" fill="#565656"/>
<path d="M8.46113 12.1653C7.99602 12.1653 7.68594 12.4753 7.68594 12.9405C7.68594 13.4056 8.07354 13.7157 8.46113 13.7157C8.84873 13.7157 9.23633 13.4056 9.23633 12.9405C9.23633 12.4753 8.92625 12.1653 8.46113 12.1653Z" fill="#565656"/>
<path d="M11.5619 9.06542C11.0968 9.06542 10.7867 9.3755 10.7867 9.84062C10.7867 10.3057 11.1743 10.6158 11.5619 10.6158C11.9495 10.6158 12.3371 10.3057 12.3371 9.84062C12.3371 9.3755 12.027 9.06542 11.5619 9.06542Z" fill="#565656"/>
<path d="M8.46113 9.06542C7.99602 9.06542 7.68594 9.3755 7.68594 9.84062C7.68594 10.3057 8.07354 10.6158 8.46113 10.6158C8.84873 10.6158 9.23633 10.3057 9.23633 9.84062C9.23633 9.3755 8.92625 9.06542 8.46113 9.06542Z" fill="#565656"/>
<path d="M15.2829 2.70764C14.8178 2.24253 14.3527 1.93245 13.7326 1.77741V1.31229C13.7326 1.00222 13.5 0.692139 13.1124 0.692139C12.7248 0.692139 12.5698 1.00222 12.5698 1.31229V1.62237C11.717 1.54485 10.6318 1.54485 9.23643 1.54485H7.68604C6.29069 1.54485 5.20542 1.54485 4.35271 1.62237V1.31229C4.35271 1.00222 4.12015 0.692139 3.73255 0.692139C3.34496 0.692139 3.26744 1.00222 3.26744 1.31229V1.77741C2.64728 1.93245 2.10465 2.24253 1.71705 2.70764C0.55426 3.94795 0.55426 5.7309 0.55426 9.21927V9.60687C0.55426 13.0952 0.55426 14.8782 1.71705 16.1185C2.87984 17.3588 4.50775 17.3588 7.76356 17.3588H9.23643C12.4922 17.3588 14.1977 17.3588 15.2829 16.1185C16.4457 14.8782 16.4457 13.0952 16.4457 9.60687V9.21927C16.4457 5.7309 16.4457 3.94795 15.2829 2.70764ZM3.26744 3.01772C3.34496 3.25028 3.57752 3.48284 3.81007 3.48284C4.12015 3.48284 4.43023 3.25028 4.43023 2.86268V2.78516C5.20542 2.70764 6.29069 2.70764 7.68604 2.70764H9.23643C10.6318 2.70764 11.717 2.70764 12.5698 2.78516V2.86268C12.5698 3.17276 12.8023 3.48284 13.1899 3.48284C13.4225 3.48284 13.655 3.3278 13.7326 3.09524C14.0426 3.25028 14.2752 3.40532 14.5077 3.63788C14.8953 4.02547 15.1279 4.64563 15.2054 5.49834H1.79457C1.87209 4.64563 2.10465 4.10299 2.49224 3.63788C2.7248 3.3278 2.95736 3.17276 3.26744 3.01772ZM15.2829 9.68439C15.2829 12.9402 15.2829 14.4906 14.4302 15.4208C13.655 16.2735 12.1822 16.2735 9.23643 16.2735H7.68604C4.74031 16.2735 3.26744 16.2735 2.49224 15.4208C1.63953 14.5681 1.63953 12.9402 1.63953 9.68439V9.29679C1.63953 8.21152 1.63953 7.35881 1.63953 6.58361H15.1279C15.1279 7.35881 15.1279 8.21152 15.1279 9.29679V9.68439H15.2829Z" fill="#565656"/>
</svg>
