<svg width="19" height="19" viewBox="0 0 19 19" fill="none" xmlns="http://www.w3.org/2000/svg">
<path d="M12.4704 5.61414C12.1844 5.61414 11.9473 5.37694 11.9473 5.09089V2.99787C11.9473 2.71182 12.1844 2.47461 12.4704 2.47461C12.7564 2.47461 12.9936 2.71182 12.9936 2.99787V5.09089C12.9936 5.37694 12.7564 5.61414 12.4704 5.61414ZM5.49482 5.61414C5.20882 5.61414 4.97164 5.37694 4.97164 5.09089V2.99787C4.97164 2.71182 5.20882 2.47461 5.49482 2.47461C5.78082 2.47461 6.01799 2.71182 6.01799 2.99787V5.09089C6.01799 5.37694 5.78082 5.61414 5.49482 5.61414Z" fill="#141414"/>
<path d="M9.33141 17.4746H8.28506C5.51574 17.4746 4.12062 17.4746 3.15101 16.5048C2.1814 15.5351 2.1814 14.1397 2.1814 11.37V9.62577C2.1814 6.856 2.1814 5.46066 3.15101 4.49089C4.12062 3.52112 5.51574 3.52112 8.28506 3.52112H9.68019C12.4495 3.52112 13.8446 3.52112 14.8142 4.49089C15.7839 5.46066 15.7839 6.856 15.7839 9.62577V10.6723C15.7839 10.9583 15.5467 11.1955 15.2607 11.1955C14.9747 11.1955 14.7375 10.9583 14.7375 10.6723V9.62577C14.7375 7.14205 14.7375 5.89321 14.0748 5.23042C13.4121 4.56763 12.1635 4.56763 9.68019 4.56763H8.28506C5.80174 4.56763 4.55311 4.56763 3.89042 5.23042C3.22774 5.89321 3.22774 7.14205 3.22774 9.62577V11.37C3.22774 13.8537 3.22774 15.1025 3.89042 15.7653C4.55311 16.4281 5.80174 16.4281 8.28506 16.4281H9.33141C9.61741 16.4281 9.85458 16.6653 9.85458 16.9514C9.85458 17.2374 9.61741 17.4746 9.33141 17.4746Z" fill="#141414"/>
<path d="M12.4704 17.4746C12.4495 17.4746 12.4286 17.4746 12.4077 17.4676C12.2054 17.4397 12.0379 17.3002 11.9752 17.1118C11.6124 16.0025 10.9149 15.7025 10.887 15.6886C10.6219 15.5769 10.4894 15.2769 10.594 15.0118C10.6986 14.7467 10.9916 14.6141 11.2637 14.7118C11.2985 14.7258 12.0031 14.9979 12.5611 15.8909C13.3633 14.7816 14.9607 12.8072 16.4814 12.263C16.7535 12.1653 17.0534 12.3118 17.1511 12.5839C17.2487 12.856 17.1022 13.156 16.8302 13.2537C15.3514 13.7769 13.5028 16.3025 12.9099 17.2304C12.8122 17.3839 12.6448 17.4746 12.4704 17.4746Z" fill="#141414"/>
<path d="M14.9119 8.05601H3.05335C2.76735 8.05601 2.53018 7.8188 2.53018 7.53275C2.53018 7.2467 2.76735 7.00949 3.05335 7.00949H14.9119C15.1979 7.00949 15.4351 7.2467 15.4351 7.53275C15.4351 7.8188 15.1979 8.05601 14.9119 8.05601Z" fill="#141414"/>
</svg>
