<svg width="20" height="20" viewBox="0 0 20 20" fill="none" xmlns="http://www.w3.org/2000/svg">
<path fill-rule="evenodd" clip-rule="evenodd" d="M0 14.093C0 12.4747 1.31191 11.1628 2.93023 11.1628H5.90698C7.5253 11.1628 8.83721 12.4747 8.83721 14.093V17.0698C8.83721 18.6881 7.5253 20 5.90698 20H2.93023C1.31191 20 0 18.6881 0 17.0698V14.093ZM2.93023 12.5581C2.08254 12.5581 1.39535 13.2453 1.39535 14.093V17.0698C1.39535 17.9175 2.08254 18.6047 2.93023 18.6047H5.90698C6.75467 18.6047 7.44186 17.9175 7.44186 17.0698V14.093C7.44186 13.2453 6.75467 12.5581 5.90698 12.5581H2.93023Z" fill="#141414"/>
<path fill-rule="evenodd" clip-rule="evenodd" d="M11.1628 14.093C11.1628 12.4747 12.4747 11.1628 14.093 11.1628H17.0698C18.6881 11.1628 20 12.4747 20 14.093V17.0698C20 18.6881 18.6881 20 17.0698 20H14.093C12.4747 20 11.1628 18.6881 11.1628 17.0698V14.093ZM14.093 12.5581C13.2453 12.5581 12.5581 13.2453 12.5581 14.093V17.0698C12.5581 17.9175 13.2453 18.6047 14.093 18.6047H17.0698C17.9175 18.6047 18.6047 17.9175 18.6047 17.0698V14.093C18.6047 13.2453 17.9175 12.5581 17.0698 12.5581H14.093Z" fill="#141414"/>
<path fill-rule="evenodd" clip-rule="evenodd" d="M0 2.93023C0 1.31191 1.31191 0 2.93023 0H5.90698C7.5253 0 8.83721 1.31191 8.83721 2.93023V5.90698C8.83721 7.5253 7.5253 8.83721 5.90698 8.83721H2.93023C1.31191 8.83721 0 7.5253 0 5.90698V2.93023ZM2.93023 1.39535C2.08254 1.39535 1.39535 2.08254 1.39535 2.93023V5.90698C1.39535 6.75467 2.08254 7.44186 2.93023 7.44186H5.90698C6.75467 7.44186 7.44186 6.75467 7.44186 5.90698V2.93023C7.44186 2.08254 6.75467 1.39535 5.90698 1.39535H2.93023Z" fill="#141414"/>
<path fill-rule="evenodd" clip-rule="evenodd" d="M11.1628 2.93023C11.1628 1.31191 12.4747 0 14.093 0H17.0698C18.6881 0 20 1.31191 20 2.93023V5.90698C20 7.5253 18.6881 8.83721 17.0698 8.83721H14.093C12.4747 8.83721 11.1628 7.5253 11.1628 5.90698V2.93023ZM14.093 1.39535C13.2453 1.39535 12.5581 2.08254 12.5581 2.93023V5.90698C12.5581 6.75467 13.2453 7.44186 14.093 7.44186H17.0698C17.9175 7.44186 18.6047 6.75467 18.6047 5.90698V2.93023C18.6047 2.08254 17.9175 1.39535 17.0698 1.39535H14.093Z" fill="#141414"/>
</svg>
