<svg width="21" height="20" viewBox="0 0 21 20" fill="none" xmlns="http://www.w3.org/2000/svg">
<path d="M13.7827 18.3341H13.0075C10.7285 18.3341 9.48042 18.3341 8.6277 17.4814C7.77499 16.6287 7.77499 15.3807 7.77499 13.1016V12.3264C7.77499 10.0473 7.77499 8.79926 8.6277 7.94655C9.48042 7.09384 10.7285 7.09384 13.0075 7.09384H13.7827C16.0618 7.09384 17.3099 7.09384 18.1626 7.94655C19.0153 8.79926 19.0153 10.0551 19.0153 12.3264V13.1016C19.0153 15.3807 19.0153 16.6287 18.1626 17.4814C17.3099 18.3341 16.0618 18.3341 13.7827 18.3341ZM13.0075 8.25663C10.9765 8.25663 9.96104 8.25663 9.44941 8.76826C8.93778 9.27988 8.93778 10.2954 8.93778 12.3264V13.1016C8.93778 15.1326 8.93778 16.1481 9.44941 16.6597C9.96104 17.1714 10.9765 17.1714 13.0075 17.1714H13.7827C15.8138 17.1714 16.8293 17.1714 17.3409 16.6597C17.8525 16.1481 17.8525 15.1326 17.8525 13.1016V12.3264C17.8525 10.2954 17.8525 9.27988 17.3409 8.76826C16.8293 8.25663 15.8138 8.25663 13.7827 8.25663H13.0075Z" fill="#7B7B7B"/>
<path d="M8.35639 14.4582C5.96104 14.4582 4.66646 14.4194 3.69747 13.621C3.51142 13.4737 3.34088 13.2954 3.18584 13.1093C2.34863 12.0938 2.34863 10.745 2.34863 8.06283C2.34863 5.38066 2.34863 4.03182 3.18584 3.01632C3.33313 2.83027 3.51142 2.65198 3.69747 2.50469C4.71297 1.66748 6.06181 1.66748 8.74398 1.66748C11.4262 1.66748 12.775 1.66748 13.7905 2.50469C13.9765 2.65973 14.1471 2.83027 14.3021 3.01632C15.1006 3.98531 15.1393 5.27988 15.1393 7.67523C15.1393 7.99306 14.8835 8.25663 14.5579 8.25663C14.2401 8.25663 13.9765 7.99306 13.9765 7.67523C13.9765 5.5512 13.9455 4.41167 13.4029 3.75275C13.3021 3.62872 13.1781 3.50469 13.0541 3.40391C12.3564 2.83027 11.1471 2.83027 8.74398 2.83027C6.34088 2.83027 5.13158 2.83027 4.4339 3.40391C4.30212 3.50469 4.18584 3.62097 4.08507 3.75275C3.51142 4.45043 3.51142 5.65973 3.51142 8.06283C3.51142 10.4659 3.51142 11.6752 4.08507 12.3729C4.18584 12.4969 4.30987 12.621 4.4339 12.7217C5.09282 13.2644 6.23235 13.2954 8.35639 13.2954C8.67421 13.2954 8.93778 13.559 8.93778 13.8768C8.93778 14.1946 8.67421 14.4582 8.35639 14.4582Z" fill="#7B7B7B"/>
</svg>
