<svg width="15" height="15" viewBox="0 0 15 15" fill="none" xmlns="http://www.w3.org/2000/svg">
<path d="M7.68168 13.0418C6.69604 13.0418 5.8906 12.9005 5.26537 12.6177C4.64013 12.3351 4.32751 11.9698 4.32751 11.5218C4.32751 11.3446 4.38755 11.1782 4.50762 11.0226C4.62759 10.8671 4.79826 10.7268 5.01964 10.6019C5.12211 10.5346 5.23392 10.5116 5.35506 10.5329C5.4762 10.5542 5.57045 10.6161 5.63783 10.7186C5.70511 10.821 5.72567 10.9319 5.69951 11.0512C5.67336 11.1705 5.60905 11.2638 5.50658 11.3311C5.44299 11.3535 5.38223 11.3816 5.32429 11.4152C5.26624 11.4488 5.23163 11.4825 5.22045 11.5161C5.3169 11.6904 5.6039 11.8424 6.08145 11.9721C6.55891 12.1019 7.09232 12.1668 7.68168 12.1668C8.27104 12.1668 8.80445 12.1019 9.28191 11.9721C9.75947 11.8424 10.0465 11.6904 10.1429 11.5161C10.1317 11.4825 10.0971 11.4488 10.0391 11.4152C9.98113 11.3816 9.92037 11.3535 9.85679 11.3311C9.75431 11.2638 9.69 11.1705 9.66385 11.0512C9.6377 10.9319 9.65826 10.821 9.72554 10.7186C9.79291 10.6161 9.88717 10.5542 10.0083 10.5329C10.1294 10.5116 10.2413 10.5346 10.3437 10.6019C10.5651 10.7268 10.7358 10.8671 10.8557 11.0226C10.9758 11.1782 11.0358 11.3446 11.0358 11.5218C11.0358 11.9698 10.7232 12.3351 10.098 12.6177C9.47276 12.9005 8.66732 13.0418 7.68168 13.0418ZM7.69626 10.1981C8.66246 9.4659 9.38769 8.74067 9.87195 8.02239C10.3562 7.30402 10.5983 6.59075 10.5983 5.88258C10.5983 4.87594 10.2833 4.1161 9.6532 3.60306C9.02311 3.09002 8.36593 2.8335 7.68168 2.8335C7.00113 2.8335 6.34488 3.09002 5.71293 3.60306C5.08099 4.1161 4.76501 4.87594 4.76501 5.88258C4.76501 6.54515 5.00413 7.23168 5.48237 7.94218C5.96061 8.65268 6.69857 9.40465 7.69626 10.1981ZM7.68168 11.0372C7.5762 11.0372 7.47076 11.0187 7.36537 10.9816C7.25988 10.9446 7.16227 10.8909 7.07254 10.8206C6.00387 9.95916 5.20631 9.11857 4.67985 8.29889C4.15329 7.47921 3.89001 6.67377 3.89001 5.88258C3.89001 5.23343 4.00464 4.66468 4.23389 4.17633C4.46314 3.68798 4.75908 3.27907 5.12172 2.94958C5.48446 2.62019 5.89114 2.37266 6.34176 2.207C6.79229 2.04133 7.23893 1.9585 7.68168 1.9585C8.12443 1.9585 8.57107 2.04133 9.0216 2.207C9.47222 2.37266 9.8789 2.62019 10.2416 2.94958C10.6043 3.27907 10.9002 3.68798 11.1295 4.17633C11.3587 4.66468 11.4733 5.23343 11.4733 5.88258C11.4733 6.67377 11.2101 7.47921 10.6835 8.29889C10.1571 9.11857 9.35949 9.95916 8.29083 10.8206C8.20109 10.8909 8.10348 10.9446 7.99799 10.9816C7.89261 11.0187 7.78717 11.0372 7.68168 11.0372ZM7.68168 6.85514C7.97257 6.85514 8.22102 6.75306 8.42704 6.54889C8.63315 6.34473 8.7362 6.0953 8.7362 5.80062C8.7362 5.50973 8.63315 5.26128 8.42704 5.05527C8.22102 4.84916 7.97257 4.7461 7.68168 4.7461C7.39449 4.7461 7.14696 4.84916 6.9391 5.05527C6.73114 5.26128 6.62716 5.50973 6.62716 5.80062C6.62716 6.0953 6.73114 6.34473 6.9391 6.54889C7.14696 6.75306 7.39449 6.85514 7.68168 6.85514Z" fill="#7B7B7B"/>
</svg>
