<svg width="19" height="18" viewBox="0 0 19 18" fill="none" xmlns="http://www.w3.org/2000/svg">
<path d="M4.61914 16.126C4.45977 16.126 4.3262 16.072 4.21845 15.9642C4.11058 15.8563 4.05664 15.7227 4.05664 15.5633C4.05664 15.4038 4.11058 15.2702 4.21845 15.1626C4.3262 15.0549 4.45977 15.001 4.61914 15.001H14.7441C14.9035 15.001 15.0371 15.0549 15.1448 15.1628C15.2527 15.2707 15.3066 15.4043 15.3066 15.5637C15.3066 15.7232 15.2527 15.8567 15.1448 15.9644C15.0371 16.0721 14.9035 16.126 14.7441 16.126H4.61914ZM9.67452 12.7799C9.57277 12.7799 9.47389 12.7572 9.37789 12.712C9.28189 12.6669 9.19995 12.5991 9.13208 12.5087L5.78014 8.14279C5.61189 7.91679 5.58977 7.6776 5.71377 7.42523C5.83777 7.17285 6.0407 7.04666 6.32258 7.04666H7.66958V2.55398C7.66958 2.36185 7.73458 2.20085 7.86458 2.07098C7.99445 1.94098 8.15545 1.87598 8.34758 1.87598H11.0086C11.2006 1.87598 11.3616 1.94098 11.4916 2.07098C11.6215 2.20085 11.6864 2.36185 11.6864 2.55398V7.04666H13.0336C13.3153 7.04666 13.5182 7.17285 13.6422 7.42523C13.7662 7.6776 13.7441 7.91679 13.5758 8.14279L10.2168 12.5087C10.149 12.5991 10.0671 12.6669 9.97095 12.712C9.87495 12.7572 9.77614 12.7799 9.67452 12.7799ZM9.67452 11.3807L12.1019 8.17879H10.5614V3.00098H8.79458V8.17879H7.25427L9.67452 11.3807Z" fill="white"/>
</svg>
