<svg width="12" height="16" viewBox="0 0 12 16" fill="none" xmlns="http://www.w3.org/2000/svg">
<path d="M0.619141 15.126C0.459766 15.126 0.326203 15.072 0.218453 14.9642C0.110578 14.8563 0.0566406 14.7227 0.0566406 14.5633C0.0566406 14.4038 0.110578 14.2702 0.218453 14.1626C0.326203 14.0549 0.459766 14.001 0.619141 14.001H10.7441C10.9035 14.001 11.0371 14.0549 11.1448 14.1628C11.2527 14.2707 11.3066 14.4043 11.3066 14.5637C11.3066 14.7232 11.2527 14.8567 11.1448 14.9644C11.0371 15.0721 10.9035 15.126 10.7441 15.126H0.619141ZM5.67452 11.7799C5.57277 11.7799 5.47389 11.7572 5.37789 11.712C5.28189 11.6669 5.19995 11.5991 5.13208 11.5087L1.78014 7.14279C1.61189 6.91679 1.58977 6.6776 1.71377 6.42523C1.83777 6.17285 2.0407 6.04666 2.32258 6.04666H3.66958V1.55398C3.66958 1.36185 3.73458 1.20085 3.86458 1.07098C3.99445 0.940977 4.15545 0.875977 4.34758 0.875977H7.00858C7.20058 0.875977 7.36158 0.940977 7.49158 1.07098C7.62145 1.20085 7.68639 1.36185 7.68639 1.55398V6.04666H9.03358C9.31533 6.04666 9.5182 6.17285 9.6422 6.42523C9.7662 6.6776 9.74408 6.91679 9.57583 7.14279L6.21677 11.5087C6.14902 11.5991 6.06708 11.6669 5.97095 11.712C5.87495 11.7572 5.77614 11.7799 5.67452 11.7799ZM5.67452 10.3807L8.10189 7.17879H6.56139V2.00098H4.79458V7.17879H3.25427L5.67452 10.3807Z" fill="white"/>
</svg>
