<svg width="18" height="18" viewBox="0 0 18 18" fill="none" xmlns="http://www.w3.org/2000/svg">
<path d="M6.43586 17.3588C6.08543 17.3588 5.79483 17.0682 5.79483 16.7178V1.33316C5.79483 0.982737 6.08543 0.692139 6.43586 0.692139C6.78628 0.692139 7.07688 0.982737 7.07688 1.33316V16.7178C7.07688 17.0682 6.78628 17.3588 6.43586 17.3588Z" fill="#141414"/>
<path d="M3.87175 13.94C3.52133 13.94 3.23073 13.6494 3.23073 13.299V4.75197C3.23073 4.40154 3.52133 4.11094 3.87175 4.11094C4.22218 4.11094 4.51278 4.40154 4.51278 4.75197V13.299C4.51278 13.6494 4.22218 13.94 3.87175 13.94Z" fill="#141414"/>
<path d="M8.99996 14.7947C8.64953 14.7947 8.35893 14.5041 8.35893 14.1537V3.89727C8.35893 3.54684 8.64953 3.25624 8.99996 3.25624C9.35039 3.25624 9.64099 3.54684 9.64099 3.89727V14.1537C9.64099 14.5041 9.35039 14.7947 8.99996 14.7947Z" fill="#141414"/>
<path d="M11.5641 12.2306C11.2136 12.2306 10.923 11.94 10.923 11.5896V6.46137C10.923 6.11094 11.2136 5.82034 11.5641 5.82034C11.9145 5.82034 12.2051 6.11094 12.2051 6.46137V11.5896C12.2051 11.94 11.9145 12.2306 11.5641 12.2306Z" fill="#141414"/>
<path d="M14.1282 13.94C13.7777 13.94 13.4871 13.6494 13.4871 13.299V4.75197C13.4871 4.40154 13.7777 4.11094 14.1282 4.11094C14.4786 4.11094 14.7692 4.40154 14.7692 4.75197V13.299C14.7692 13.6494 14.4786 13.94 14.1282 13.94Z" fill="#141414"/>
<path d="M16.6923 10.5212C16.3418 10.5212 16.0512 10.2306 16.0512 9.88017V8.17077C16.0512 7.82034 16.3418 7.52975 16.6923 7.52975C17.0427 7.52975 17.3333 7.82034 17.3333 8.17077V9.88017C17.3333 10.2306 17.0427 10.5212 16.6923 10.5212Z" fill="#141414"/>
<path d="M1.30765 10.5212C0.957224 10.5212 0.666626 10.2306 0.666626 9.88017V8.17077C0.666626 7.82034 0.957224 7.52975 1.30765 7.52975C1.65808 7.52975 1.94868 7.82034 1.94868 8.17077V9.88017C1.94868 10.2306 1.65808 10.5212 1.30765 10.5212Z" fill="#141414"/>
</svg>
