<svg width="18" height="18" viewBox="0 0 18 18" fill="none" xmlns="http://www.w3.org/2000/svg">
<path d="M5.26481 13.0553C5.0938 13.0553 4.93135 12.9868 4.81164 12.8671C4.64919 12.7045 4.58934 12.4735 4.64064 12.2596L5.25626 9.77842C5.43582 9.06828 5.80348 8.4266 6.3165 7.9047L12.8575 1.35952C13.7809 0.435498 15.3798 0.435498 16.3032 1.35952C17.2523 2.30921 17.2523 3.85781 16.3032 4.8075L9.76227 11.3527C9.24925 11.866 8.59943 12.2339 7.88975 12.4136L5.41016 13.0296C5.36741 13.0553 5.31611 13.0553 5.26481 13.0553ZM12.4642 3.57547L7.23138 8.82017C6.88082 9.17095 6.63286 9.61586 6.51315 10.095L6.15404 11.5324L7.59049 11.173C8.06931 11.0532 8.51392 10.8051 8.86448 10.4543L14.1058 5.20963L12.4642 3.57547ZM13.379 2.66856L15.0121 4.30271L15.4055 3.90915C15.8586 3.45569 15.8586 2.72845 15.4055 2.27499C14.9694 1.83865 14.2084 1.83865 13.7724 2.27499L13.379 2.66856Z" fill="#141414"/>
<path d="M8.25741 17.3332H7.8299C4.43543 17.3332 2.72537 17.3332 1.53688 16.1439C0.348389 14.9547 0.348389 13.2521 0.348389 9.84686V9.41907C0.348389 6.45877 0.348389 4.97006 1.27182 3.84926C1.44283 3.64392 1.63093 3.45569 1.83614 3.28457C2.95623 2.36055 4.44398 2.36055 7.40238 2.36055C7.75295 2.36055 8.04366 2.65145 8.04366 3.00223C8.04366 3.35302 7.75295 3.64392 7.40238 3.64392C4.75179 3.64392 3.41795 3.64392 2.64842 4.27705C2.50306 4.39683 2.37481 4.52516 2.26366 4.66206C1.63093 5.43208 1.63093 6.76678 1.63093 9.41907V9.84686C1.63093 12.8927 1.63093 14.4242 2.44321 15.237C3.25549 16.0498 4.78599 16.0498 7.8299 16.0498H8.25741C10.908 16.0498 12.2419 16.0498 13.0114 15.4167C13.1567 15.2969 13.285 15.1686 13.3961 15.0317C14.0289 14.2702 14.0289 12.9355 14.0289 10.2746C14.0289 9.92386 14.3196 9.63297 14.6701 9.63297C15.0207 9.63297 15.3114 9.92386 15.3114 10.2746C15.3114 13.235 15.3114 14.7237 14.388 15.8445C14.217 16.0498 14.0289 16.238 13.8237 16.4091C12.7036 17.3332 11.2158 17.3332 8.25741 17.3332Z" fill="#141414"/>
</svg>
