<svg width="16" height="16" viewBox="0 0 16 16" fill="none" xmlns="http://www.w3.org/2000/svg">
<path d="M6.75024 10.1203L1.38482 15.4857C1.2694 15.601 1.12572 15.6573 0.953776 15.6547C0.781832 15.652 0.638151 15.593 0.522735 15.4776C0.407318 15.3622 0.349609 15.2167 0.349609 15.0411C0.349609 14.8656 0.407318 14.721 0.522735 14.6074L5.88003 9.25009H2.37523C2.19815 9.25009 2.04975 9.19016 1.93003 9.0703C1.81017 8.95044 1.75023 8.80197 1.75023 8.62489C1.75023 8.44766 1.81017 8.29926 1.93003 8.17968C2.04975 8.05996 2.19815 8.00009 2.37523 8.00009H7.24711C7.46044 8.00009 7.63933 8.07225 7.78378 8.21655C7.92808 8.361 8.00024 8.53989 8.00024 8.75322V13.6251C8.00024 13.8022 7.94031 13.9506 7.82044 14.0703C7.70058 14.1902 7.55211 14.2501 7.37503 14.2501C7.1978 14.2501 7.0494 14.1902 6.92982 14.0703C6.8101 13.9506 6.75024 13.8022 6.75024 13.6251V10.1203ZM10.1204 6.75009H13.6252C13.8023 6.75009 13.9507 6.81003 14.0704 6.92989C14.1903 7.04975 14.2502 7.19822 14.2502 7.3753C14.2502 7.55253 14.1903 7.70093 14.0704 7.82051C13.9507 7.94023 13.8023 8.00009 13.6252 8.00009H8.75336C8.54003 8.00009 8.36114 7.92794 8.21669 7.78364C8.07239 7.63919 8.00024 7.4603 8.00024 7.24697V2.37509C8.00024 2.19801 8.06017 2.04961 8.18003 1.92989C8.29989 1.81002 8.44836 1.75009 8.62544 1.75009C8.80267 1.75009 8.95107 1.81002 9.07065 1.92989C9.19037 2.04961 9.25024 2.19801 9.25024 2.37509V5.87989L14.6157 0.514469C14.7293 0.399191 14.8738 0.341553 15.0494 0.341553C15.225 0.341553 15.3704 0.399191 15.4859 0.514469C15.6011 0.629886 15.6588 0.775372 15.6588 0.950928C15.6588 1.12648 15.6011 1.27107 15.4859 1.38468L10.1204 6.75009Z" fill="#7B7B7B"/>
</svg>
