<svg width="20" height="20" viewBox="0 0 20 20" fill="none" xmlns="http://www.w3.org/2000/svg">
<g clip-path="url(#clip0_15128_8534)">
<path d="M20.0013 10.0613C20.0013 4.50378 15.5238 -0.0012207 10.0012 -0.0012207C4.47625 2.9297e-05 -0.00125122 4.50378 -0.00125122 10.0625C-0.00125122 15.0838 3.65625 19.2463 8.43625 20.0013V12.97H5.89875V10.0625H8.43875V7.84378C8.43875 5.32253 9.9325 3.93003 12.2163 3.93003C13.3113 3.93003 14.455 4.12628 14.455 4.12628V6.60128H13.1937C11.9525 6.60128 11.565 7.37753 11.565 8.17378V10.0613H14.3375L13.895 12.9688H11.5637V20C16.3438 19.245 20.0013 15.0825 20.0013 10.0613Z" fill="#D9D9D9"/>
</g>
<defs>
<clipPath id="clip0_15128_8534">
<rect width="20" height="20" fill="white"/>
</clipPath>
</defs>
</svg>
