<svg width="17" height="18" viewBox="0 0 17 18" fill="none" xmlns="http://www.w3.org/2000/svg">
<path d="M15.3478 9.67562C15.2699 9.51986 15.1142 9.20834 15.1142 8.97469C15.1142 8.74105 15.1921 8.42952 15.2699 8.27376L16.0488 7.33918C16.4382 6.87189 16.7497 6.56036 16.7497 6.17095C16.8276 5.70366 16.5939 5.39214 16.2824 4.84696L15.7372 5.15849L16.4382 4.92485L16.0488 4.22391C15.7372 3.67874 15.5036 3.28933 15.1142 3.13357C14.6469 2.97781 14.2575 3.05569 13.6344 3.21145L12.6998 3.52298C12.4662 3.60086 12.2326 3.52298 12.0768 3.4451L11.7653 3.28933C11.6095 3.21145 11.4537 2.97781 11.3759 2.82204L11.1422 2.04323C10.9864 1.49806 10.8307 1.10865 10.4413 0.875002C10.0519 0.641357 9.66246 0.641357 9.11729 0.641357H8.26059C7.63754 0.641357 7.24813 0.641357 6.9366 0.875002C6.5472 1.10865 6.46931 1.49806 6.23567 2.04323L6.00202 2.82204C5.92414 3.05569 5.76838 3.21145 5.61262 3.28933L5.37897 3.4451C5.14533 3.52298 4.91168 3.52298 4.75592 3.52298L3.82134 3.21145C3.19829 3.05569 2.80888 2.97781 2.34159 3.13357C1.8743 3.28933 1.71854 3.67874 1.40701 4.22391L1.0176 4.92485C0.706075 5.39214 0.47243 5.78154 0.550312 6.24883C0.550312 6.63824 0.861838 6.94977 1.25125 7.41706L2.03006 8.27376C2.10794 8.42952 2.26371 8.74105 2.26371 8.97469C2.26371 9.28622 2.18583 9.51986 2.10794 9.67562L1.32913 10.6102C0.93972 11.0775 0.628194 11.389 0.628194 11.7784C0.550312 12.2457 0.783957 12.5572 1.09548 13.1024L1.48489 13.8034C1.79642 14.3485 2.03006 14.7379 2.41947 14.8937C2.88676 15.0495 3.27617 14.9716 3.89922 14.7379L4.75592 14.4264C4.98956 14.3485 5.22321 14.4264 5.37897 14.5043L5.61262 14.66C5.76838 14.7379 5.92414 14.9716 6.00202 15.1273L6.23567 15.9062C6.39143 16.4513 6.5472 16.8407 6.9366 17.0744C7.32601 17.308 7.71542 17.308 8.26059 17.308H9.11729C9.74034 17.308 10.1297 17.308 10.4413 17.0744C10.8307 16.8407 10.9086 16.4513 11.1422 15.9062L11.3759 15.1273C11.4537 14.8937 11.6095 14.7379 11.7653 14.66L11.9989 14.5043C12.2326 14.4264 12.4662 14.3485 12.622 14.4264L13.5565 14.66C14.1796 14.8158 14.569 14.9716 15.0363 14.7379C15.5036 14.5822 15.6593 14.1928 15.9709 13.6476L16.3603 12.9467C16.6718 12.4015 16.8276 12.09 16.8276 11.6227C16.7497 11.1554 16.516 10.9217 16.1266 10.4544L15.3478 9.67562ZM15.4257 12.4794L15.0363 13.1803C14.8805 13.4139 14.7248 13.8034 14.6469 13.8034C14.569 13.8034 14.2575 13.7255 13.9459 13.6476L12.9335 13.3361C12.4662 13.2582 11.921 13.2582 11.4537 13.5697L11.1422 13.6476C10.7528 13.8812 10.4413 14.2706 10.2855 14.7379L10.0519 15.5167C9.97399 15.7504 9.81822 16.1398 9.81822 16.1398C9.74034 16.1398 9.42881 16.1398 9.11729 16.1398H8.26059C7.94906 16.1398 7.63754 16.1398 7.55966 16.1398C7.48177 16.1398 7.40389 15.7504 7.32601 15.5167L7.09237 14.7379C6.9366 14.2706 6.62508 13.9591 6.23567 13.7255L5.92414 13.5697C5.61262 13.4139 5.30109 13.3361 4.98956 13.3361C4.8338 13.3361 4.67804 13.3361 4.44439 13.4139L3.50981 13.6476C3.19829 13.6476 2.88676 13.8034 2.80888 13.7255C2.731 13.7255 2.57523 13.3361 2.41947 13.1024L2.03006 12.4015C1.8743 12.1678 1.71854 11.8563 1.71854 11.7784C1.71854 11.7005 1.95218 11.4669 2.10794 11.2333L2.96464 10.2987C3.19829 10.065 3.43193 9.51986 3.43193 8.97469C3.43193 8.42952 3.27617 7.88435 2.96464 7.49494L2.10794 6.63824C1.95218 6.4046 1.71854 6.17095 1.71854 6.09307C1.71854 6.01519 1.8743 5.70366 2.03006 5.47002L2.41947 4.84696C2.57523 4.61332 2.731 4.30179 2.80888 4.22391C2.88676 4.22391 3.19829 4.30179 3.50981 4.37968L4.52227 4.6912C4.98956 4.76908 5.53474 4.76908 6.00202 4.45756L6.23567 4.30179C6.62508 4.06815 6.9366 3.67874 7.09237 3.21145L7.32601 2.43263C7.40389 2.12111 7.48177 1.88746 7.55966 1.80958C7.63754 1.80958 7.94906 1.80958 8.26059 1.80958H9.11729C9.42881 1.80958 9.74034 1.80958 9.81822 1.80958C9.8961 1.88746 9.97399 2.19899 10.0519 2.43263L10.2855 3.21145C10.4413 3.67874 10.7528 3.99027 11.1422 4.30179L11.4537 4.45756C11.921 4.6912 12.3883 4.76908 12.9335 4.61332L13.8681 4.37968C14.1796 4.30179 14.4911 4.22391 14.569 4.22391C14.6469 4.22391 14.8026 4.53544 14.9584 4.84696L15.3478 5.5479C15.5036 5.78154 15.6593 6.09307 15.6593 6.17095C15.6593 6.24883 15.4257 6.48248 15.2699 6.71612L14.4132 7.6507C14.1017 8.04011 13.9459 8.58528 13.9459 9.05257C13.9459 9.59774 14.1017 10.1429 14.4132 10.5323L15.1921 11.4669C15.3478 11.7005 15.5815 11.9342 15.5815 12.0121C15.7372 11.9342 15.5815 12.2457 15.4257 12.4794Z" fill="#565656"/>
<path d="M8.65 5.70366C6.85872 5.70366 5.30109 7.18341 5.30109 9.05257C5.30109 10.8439 6.78084 12.4015 8.65 12.4015C10.4413 12.4015 11.9989 10.9217 11.9989 9.05257C11.9989 7.18341 10.5192 5.70366 8.65 5.70366ZM8.65 11.1554C7.48178 11.1554 6.46931 10.2208 6.46931 8.97469C6.46931 7.72858 7.40389 6.79401 8.65 6.79401C9.8961 6.79401 10.8307 7.72858 10.8307 8.97469C10.8307 10.2208 9.81822 11.1554 8.65 11.1554Z" fill="#565656"/>
</svg>
