<svg width="21" height="20" viewBox="0 0 21 20" fill="none" xmlns="http://www.w3.org/2000/svg">
<path d="M8.80498 9.79184H12.1383V10.7229C12.1383 10.8852 12.2096 10.9972 12.3523 11.0587C12.4949 11.1201 12.625 11.0921 12.7425 10.9746L14.0789 9.63788C14.2137 9.50191 14.281 9.34323 14.281 9.16184C14.281 8.98032 14.2126 8.82157 14.0758 8.68559L12.7425 7.35913C12.625 7.24163 12.4949 7.21205 12.3523 7.27038C12.2096 7.32872 12.1383 7.43948 12.1383 7.60268V8.54184H8.30811C8.09478 8.54184 7.91589 8.614 7.77144 8.7583C7.62714 8.90275 7.55499 9.08163 7.55499 9.29497V11.6668C7.55499 11.8439 7.61492 11.9923 7.73478 12.1121C7.85464 12.2319 8.00311 12.2918 8.18019 12.2918C8.35742 12.2918 8.50582 12.2319 8.6254 12.1121C8.74512 11.9923 8.80498 11.8439 8.80498 11.6668V9.79184ZM10.6817 17.8046C10.4936 17.8046 10.3083 17.7669 10.1258 17.6916C9.94332 17.6164 9.77658 17.5034 9.62561 17.3527L3.32749 11.0546C3.17679 10.9043 3.0638 10.7382 2.98853 10.5564C2.91325 10.3746 2.87561 10.1898 2.87561 10.0018C2.87561 9.81379 2.91325 9.62851 2.98853 9.44601C3.0638 9.26351 3.17679 9.09677 3.32749 8.9458L9.62561 2.64768C9.77589 2.49698 9.94193 2.38399 10.1237 2.30872C10.3055 2.23344 10.4904 2.1958 10.6783 2.1958C10.8664 2.1958 11.0517 2.23344 11.2342 2.30872C11.4167 2.38399 11.5834 2.49698 11.7344 2.64768L18.0325 8.9458C18.1832 9.09608 18.2962 9.26212 18.3714 9.44393C18.4467 9.62573 18.4844 9.81059 18.4844 9.99851C18.4844 10.1866 18.4467 10.3718 18.3714 10.5543C18.2962 10.7368 18.1832 10.9036 18.0325 11.0546L11.7344 17.3527C11.5841 17.5034 11.418 17.6164 11.2362 17.6916C11.0544 17.7669 10.8696 17.8046 10.6817 17.8046ZM10.5037 16.4906C10.5518 16.5386 10.6105 16.5627 10.68 16.5627C10.7494 16.5627 10.8082 16.5386 10.8562 16.4906L17.1704 10.1764C17.2185 10.1284 17.2425 10.0696 17.2425 10.0002C17.2425 9.93073 17.2185 9.87198 17.1704 9.82393L10.8562 3.50976C10.8082 3.4617 10.7494 3.43768 10.68 3.43768C10.6105 3.43768 10.5518 3.4617 10.5037 3.50976L4.18957 9.82393C4.14151 9.87198 4.11749 9.93073 4.11749 10.0002C4.11749 10.0696 4.14151 10.1284 4.18957 10.1764L10.5037 16.4906Z" fill="#565656"/>
</svg>
