<svg width="10" height="13" viewBox="0 0 10 13" fill="none" xmlns="http://www.w3.org/2000/svg">
<path fill-rule="evenodd" clip-rule="evenodd" d="M1.60844 3.11668C1.60993 3.14839 1.6136 3.19028 1.62082 3.24507L2.48997 9.84502C2.55068 10.306 2.59156 10.6091 2.65408 10.8332C2.7123 11.0419 2.77689 11.1334 2.85708 11.1971C2.94139 11.2641 3.16014 11.3527 3.52618 11.4198C3.8723 11.4833 4.29145 11.5177 4.71768 11.5192C5.14398 11.5206 5.56452 11.4891 5.91365 11.4264C6.28142 11.3604 6.50637 11.2703 6.59846 11.1971C6.67866 11.1335 6.74327 11.0419 6.80149 10.8332C6.86402 10.6091 6.90491 10.306 6.96564 9.845L7.83477 3.24508C7.84199 3.19028 7.84566 3.14839 7.84716 3.11668C7.80036 3.11157 7.73513 3.10837 7.64419 3.10837H1.8114C1.72046 3.10837 1.65523 3.11157 1.60844 3.11668ZM1.39846 2.32599C1.52518 2.30064 1.66715 2.29441 1.8114 2.29441H7.64419C7.78844 2.29441 7.93041 2.30064 8.05713 2.32599C8.18468 2.3515 8.33489 2.40364 8.45752 2.52511C8.58549 2.65187 8.63657 2.80707 8.65385 2.946C8.67017 3.07728 8.65939 3.21747 8.64176 3.35135C8.64176 3.35135 8.64176 3.35135 8.64176 3.35135L7.7689 9.97954C7.71291 10.4047 7.66537 10.7657 7.5855 11.052C7.49957 11.36 7.36457 11.6281 7.10477 11.8345C6.84485 12.041 6.44701 12.1576 6.05756 12.2276C5.64946 12.3009 5.17835 12.3347 4.7149 12.3331C4.25139 12.3315 3.78271 12.2945 3.37927 12.2204C2.99575 12.1501 2.60319 12.035 2.35082 11.8345C2.091 11.6281 1.95601 11.36 1.87007 11.052C1.79019 10.7656 1.74266 10.4046 1.68668 9.97936L1.68298 9.95129L0.813834 3.35135C0.813834 3.35135 0.813834 3.35135 0.813834 3.35135C0.796202 3.21747 0.78543 3.07728 0.801748 2.94601C0.819018 2.80708 0.8701 2.65188 0.998064 2.52512C1.12069 2.40364 1.27091 2.3515 1.39846 2.32599Z" fill="#565656"/>
<path fill-rule="evenodd" clip-rule="evenodd" d="M6.46167 1.60395C6.46791 1.53427 6.52637 1.48046 6.59679 1.48046H8.79832C9.02309 1.48046 9.2053 1.29825 9.2053 1.07348C9.2053 0.848714 9.02309 0.666504 8.79832 0.666504H6.59679C6.09398 0.666504 5.67834 1.05843 5.64881 1.56035L5.64843 1.56665L5.40624 10.287C5.4 10.5117 5.57708 10.6989 5.80177 10.7051C6.02645 10.7114 6.21364 10.5343 6.21988 10.3096L6.46167 1.60395Z" fill="#565656"/>
<path fill-rule="evenodd" clip-rule="evenodd" d="M2.8779 5.27891C2.32815 5.27891 2.1337 5.54873 2.10057 5.60945C1.99294 5.80678 1.74573 5.87948 1.54841 5.77185C1.35109 5.66422 1.27838 5.41701 1.38601 5.21969C1.55021 4.91865 2.00692 4.46496 2.8779 4.46496C3.14074 4.46496 3.35339 4.50507 3.532 4.58609C3.71434 4.6688 3.82984 4.78039 3.90943 4.8658C3.93893 4.89745 3.95956 4.92013 3.97481 4.9369C4.00692 4.97218 4.0152 4.98129 4.03214 4.99276C4.03591 4.99531 4.03973 4.9975 4.04815 4.99991C4.05795 5.0027 4.08068 5.00759 4.12351 5.00759C4.21536 5.00759 4.33923 4.98565 4.50787 4.93809C4.64112 4.9005 4.78148 4.8533 4.93939 4.80019C4.9809 4.78623 5.02361 4.77187 5.06773 4.75716C5.47258 4.62221 5.97378 4.46496 6.49136 4.46496C7.01831 4.46496 7.45594 4.62569 7.75756 4.78183C7.90915 4.86029 8.02945 4.93916 8.1134 4.99971C8.15549 5.03007 8.18875 5.05606 8.21258 5.07542C8.2245 5.08511 8.23409 5.09317 8.24127 5.09931L8.25023 5.10707L8.25333 5.10981L8.25455 5.11089L8.25506 5.11135C8.25518 5.11145 8.25553 5.11176 7.98361 5.41457L8.25553 5.11176C8.42276 5.26194 8.43659 5.51925 8.28641 5.68649C8.13671 5.8532 7.88054 5.86746 7.71326 5.71878C7.71326 5.71878 7.71327 5.71878 7.71326 5.71878M7.71194 5.71764C7.70983 5.71584 7.70557 5.71223 7.69924 5.70709C7.68655 5.69677 7.66567 5.68037 7.63723 5.65985C7.58013 5.61866 7.49387 5.56187 7.38338 5.50468C7.16087 5.38949 6.85238 5.27891 6.49136 5.27891C6.12097 5.27891 5.73423 5.39298 5.32513 5.52934C5.28685 5.54211 5.24802 5.55517 5.2089 5.56834C5.04876 5.62223 4.88349 5.67785 4.72883 5.72148C4.53675 5.77566 4.32765 5.82155 4.12351 5.82155C3.9056 5.82155 3.72724 5.76927 3.57588 5.66681C3.46916 5.59457 3.37954 5.49403 3.33376 5.44268C3.32577 5.43372 3.31912 5.42626 3.31394 5.4207C3.26712 5.37045 3.23771 5.34638 3.19576 5.32735C3.15006 5.30662 3.05902 5.27891 2.8779 5.27891" fill="#565656"/>
<path fill-rule="evenodd" clip-rule="evenodd" d="M3.3712 8.67039C3.3712 8.3707 3.61415 8.12775 3.91384 8.12775H3.91867C4.21836 8.12775 4.4613 8.3707 4.4613 8.67039C4.4613 8.97008 4.21836 9.21302 3.91867 9.21302H3.91384C3.61415 9.21302 3.3712 8.97008 3.3712 8.67039Z" fill="#565656"/>
</svg>
