<svg width="15" height="15" viewBox="0 0 15 15" fill="none" xmlns="http://www.w3.org/2000/svg">
<path fill-rule="evenodd" clip-rule="evenodd" d="M11.4026 13.1993C11.6255 13.03 11.6744 12.7514 11.5385 12.3582L10.4027 8.95527L13.3047 6.86328C13.6417 6.62294 13.7775 6.36622 13.6906 6.09858C13.6036 5.83094 13.3482 5.69984 12.9297 5.70531L9.37015 5.73262L8.28869 2.31333C8.15826 1.91459 7.96262 1.70703 7.68002 1.70703C7.40286 1.70703 7.20722 1.91459 7.0768 2.31333L5.99533 5.73262L2.43574 5.70531C2.01728 5.69984 1.76186 5.83094 1.67491 6.09858C1.58253 6.36622 1.72382 6.62294 2.06076 6.86328L4.96278 8.95527L3.82697 12.3582C3.69111 12.7514 3.74002 13.03 3.96283 13.1993C4.18565 13.3741 4.46824 13.314 4.80518 13.0682L7.68002 10.9435L10.5603 13.0682C10.8972 13.314 11.1744 13.3741 11.4026 13.1993Z" fill="#F59B14"/>
</svg>
