<svg width="20" height="20" viewBox="0 0 20 20" fill="none" xmlns="http://www.w3.org/2000/svg">
<path d="M19.4312 8.19761C19.548 8.86879 19.6061 9.54885 19.605 10.2301C19.605 13.2726 18.5175 15.8451 16.625 17.5864H16.6275C14.9725 19.1151 12.6975 20.0001 10 20.0001C7.34784 20.0001 4.8043 18.9465 2.92893 17.0712C1.05357 15.1958 0 12.6523 0 10.0001C0 7.34794 1.05357 4.8044 2.92893 2.92904C4.8043 1.05368 7.34784 0.000109222 10 0.000109222C12.4822 -0.0275332 14.879 0.90488 16.69 2.60261L13.835 5.45761C12.8028 4.47417 11.4255 3.9355 10 3.95761C7.39125 3.95761 5.175 5.71761 4.385 8.08761C3.96687 9.32961 3.96687 10.6744 4.385 11.9164H4.38875C5.1825 14.2826 7.395 16.0426 10.0037 16.0426C11.3513 16.0426 12.5088 15.6976 13.4062 15.0876H13.4025C13.9237 14.7425 14.3696 14.2952 14.7131 13.773C15.0567 13.2507 15.2908 12.6642 15.4012 12.0489H10V8.19886L19.4312 8.19761Z" fill="#D9D9D9"/>
</svg>
