<svg width="17" height="18" viewBox="0 0 17 18" fill="none" xmlns="http://www.w3.org/2000/svg">
<path d="M16.4998 9.1894C16.4998 8.59849 16.4468 8.03031 16.3483 7.48486H8.49988V10.7083H12.9847C12.7915 11.75 12.2044 12.6326 11.3218 13.2235V15.3144H14.015C15.5907 13.8636 16.4998 11.7273 16.4998 9.1894Z" fill="#09B3D1"/>
<path d="M8.49966 17.3335C10.7496 17.3335 12.636 16.5872 14.0148 15.3145L11.3216 13.2236C10.5754 13.7236 9.62086 14.0191 8.49966 14.0191C6.32922 14.0191 4.49211 12.5532 3.83681 10.5835H1.05273V12.7426C2.42394 15.466 5.2421 17.3335 8.49966 17.3335Z" fill="#34A853"/>
<path d="M3.83718 10.5833C3.67051 10.0833 3.57582 9.54921 3.57582 8.99997C3.57582 8.45073 3.67051 7.91664 3.83718 7.41665V5.25757H1.05311C0.469776 6.41882 0.166234 7.70044 0.166749 8.99997C0.166749 10.3447 0.488716 11.6174 1.05311 12.7424L3.83718 10.5833Z" fill="#FBBC05"/>
<path d="M8.49966 3.98112C9.72314 3.98112 10.8216 4.40157 11.6852 5.22733L14.0754 2.83719C12.6322 1.4925 10.7459 0.666748 8.49966 0.666748C5.2421 0.666748 2.42394 2.53416 1.05273 5.25763L3.83681 7.41671C4.49211 5.44702 6.32922 3.98112 8.49966 3.98112Z" fill="#EA4335"/>
</svg>
