<svg width="12" height="13" viewBox="0 0 12 13" fill="none" xmlns="http://www.w3.org/2000/svg">
<path d="M6.00008 12.3332H3.60692C2.12316 12.3332 1.3035 12.3332 0.735124 11.7648C0.166748 11.1964 0.166748 10.3768 0.166748 8.893V4.10667C0.166748 2.62291 0.166748 1.80326 0.735124 1.23488C1.3035 0.666504 2.12316 0.666504 3.60692 0.666504H6.00008C7.48384 0.666504 8.3035 0.666504 8.87188 1.23488C9.44025 1.80326 9.44025 2.62291 9.44025 4.10667V8.893C9.44025 10.3768 9.44025 11.1964 8.87188 11.7648C8.3035 12.3332 7.48384 12.3332 6.00008 12.3332ZM3.60692 1.56394C2.23683 1.56394 1.66846 1.57591 1.36931 1.86907C1.07615 2.16821 1.06418 2.73659 1.06418 4.10667V8.893C1.06418 10.2631 1.07615 10.8315 1.36931 11.1306C1.66846 11.4238 2.23683 11.4357 3.60692 11.4357H6.00008C7.37017 11.4357 7.93854 11.4238 8.23769 11.1306C8.53683 10.8374 8.54282 10.2631 8.54282 8.893V4.10667C8.54282 2.73659 8.53085 2.16821 8.23769 1.86907C7.93854 1.57591 7.37017 1.56394 6.00008 1.56394H3.60692Z" fill="#565656"/>
<path d="M8.99153 12.3332H5.40179V11.4357H8.99153C10.0385 11.4357 10.5052 11.4298 10.7146 11.2144C10.924 10.999 10.936 10.5383 10.936 9.49129V5.30326C10.936 4.25625 10.93 3.78958 10.7146 3.58018C10.5052 3.36479 10.0385 3.35881 8.99153 3.35881V2.46138C10.2001 2.46138 10.8702 2.46138 11.3488 2.94001C11.8334 3.42462 11.8334 4.08873 11.8334 5.30326V9.49129C11.8334 10.6998 11.8334 11.3699 11.3488 11.8486C10.8642 12.3272 10.2001 12.3332 8.99153 12.3332Z" fill="#565656"/>
<path d="M6.59837 7.54685C6.35307 7.54685 6.14965 7.34343 6.14965 7.09813V5.90155C6.14965 5.65625 6.35307 5.45283 6.59837 5.45283C6.84367 5.45283 7.04709 5.65625 7.04709 5.90155V7.09813C7.04709 7.34343 6.84367 7.54685 6.59837 7.54685Z" fill="#565656"/>
</svg>
