<svg width="12" height="13" viewBox="0 0 12 13" fill="none" xmlns="http://www.w3.org/2000/svg">
<path d="M3.2289 7.23412C3.08666 7.42192 3.12649 7.68939 3.31993 7.83166C3.51338 7.97393 3.7751 7.9341 3.91734 7.74061L3.2289 7.23412ZM7.24008 4.41146C7.42784 4.26919 7.46766 4.00172 7.33111 3.81392C7.19456 3.62612 6.92146 3.58629 6.7337 3.72287L7.24008 4.41146ZM4.74234 8.56578C4.55458 8.70805 4.51475 8.97552 4.6513 9.16332C4.79354 9.35112 5.06096 9.39095 5.24871 9.25437L4.74234 8.56578ZM8.75352 5.74881C8.89576 5.56101 8.85593 5.29354 8.66248 5.15127C8.47473 5.009 8.20731 5.04884 8.06507 5.24233L8.75352 5.74881ZM9.038 1.37824C8.89576 1.56604 8.9299 1.83351 9.11765 1.97578C9.30541 2.11805 9.57282 2.0839 9.71506 1.89611L9.038 1.37824ZM10.5856 2.77819C10.4035 2.93184 10.3807 3.19931 10.5344 3.38142C10.688 3.56352 10.9554 3.58629 11.1375 3.43264L10.5856 2.77819ZM1.36839 10.2275C1.55046 10.0739 1.57322 9.80639 1.4196 9.62428C1.26598 9.44217 0.99857 9.41941 0.816502 9.57306L1.36839 10.2275ZM2.96149 11.5762C3.10373 11.3884 3.06959 11.121 2.88183 10.9787C2.69408 10.8364 2.42666 10.8706 2.28442 11.0584L2.96149 11.5762ZM3.57028 7.48452C3.91165 7.74061 3.91165 7.74061 3.91165 7.74061C3.91165 7.74061 3.91165 7.74061 3.91734 7.73492C3.92303 7.72923 3.92303 7.72354 3.93441 7.71784C3.94579 7.70077 3.96855 7.67232 3.99131 7.64386C4.04252 7.58126 4.11079 7.4959 4.19045 7.40485C4.2701 7.31379 4.35544 7.22274 4.4351 7.14876C4.52044 7.06909 4.57734 7.02925 4.60579 7.01787L4.24165 6.24391C4.09941 6.3122 3.96286 6.42033 3.86045 6.51708C3.74665 6.61951 3.64424 6.73333 3.55321 6.83576C3.46217 6.9382 3.38252 7.04063 3.32562 7.10892C3.29718 7.14307 3.27442 7.17721 3.25735 7.19429C3.25166 7.20567 3.24028 7.21136 3.24028 7.21705C3.24028 7.22274 3.23459 7.22274 3.23459 7.22274C3.2289 7.23412 3.2289 7.23412 3.57028 7.48452ZM4.60579 7.01787C5.11785 6.77885 5.48768 6.57967 5.78354 6.28375C6.0794 5.98783 6.27853 5.61792 6.5175 5.10574L5.74371 4.74153C5.50475 5.25371 5.36251 5.49841 5.18044 5.68052C4.99837 5.86263 4.75372 6.0049 4.24165 6.24391L4.60579 7.01787ZM6.5175 5.10574C6.52888 5.08298 6.56871 5.02038 6.64836 4.93502C6.72232 4.85535 6.81336 4.76998 6.90439 4.69031C6.99543 4.61064 7.08077 4.54235 7.14336 4.49113C7.17749 4.46837 7.20025 4.44561 7.21732 4.43422C7.2287 4.42853 7.23439 4.42284 7.23439 4.41715C7.23439 4.41715 7.24008 4.41715 7.24008 4.41146C7.24008 4.41146 7.24008 4.41146 6.98405 4.07001C6.72801 3.72856 6.72801 3.72856 6.72801 3.72856L6.72232 3.73425C6.71664 3.73994 6.70526 3.74563 6.69957 3.75132C6.67681 3.7684 6.64836 3.79116 6.61422 3.81961C6.54026 3.87652 6.44353 3.95619 6.34112 4.04725C6.23871 4.1383 6.12491 4.24643 6.0225 4.35455C5.92009 4.46837 5.81199 4.59926 5.74371 4.74153L6.5175 5.10574ZM4.99268 8.90723C5.24871 9.24868 5.24871 9.24868 5.24871 9.24868L5.2544 9.24299C5.26009 9.2373 5.27147 9.23161 5.27716 9.22592C5.29992 9.20885 5.32837 9.18608 5.36251 9.15763C5.43647 9.10072 5.53319 9.02105 5.63561 8.93C5.73802 8.83894 5.85181 8.73081 5.95423 8.62269C6.05095 8.51456 6.15905 8.38367 6.22733 8.2414L5.45923 7.8715C5.44785 7.89426 5.40802 7.95686 5.32837 8.04222C5.2544 8.12189 5.16337 8.20726 5.07234 8.28693C4.9813 8.3666 4.89596 8.43489 4.83337 8.48611C4.79923 8.50887 4.77648 8.53164 4.75941 8.54302C4.74803 8.54871 4.74234 8.5544 4.74234 8.56009C4.74234 8.56009 4.73665 8.56009 4.73665 8.56578C4.74234 8.56578 4.74234 8.56578 4.99268 8.90723ZM6.23302 8.23571C6.47198 7.72354 6.61422 7.47883 6.79629 7.29672C6.97836 7.11461 7.22301 6.97234 7.73508 6.73333L7.37094 5.95937C6.85888 6.19839 6.48905 6.39757 6.19319 6.69349C5.89733 6.98942 5.69819 7.35932 5.45923 7.8715L6.23302 8.23571ZM7.73508 6.73333C7.87732 6.66504 8.01387 6.55691 8.11628 6.46017C8.23007 6.35773 8.33249 6.24391 8.42352 6.14148C8.51455 6.03904 8.59421 5.93661 8.6511 5.86832C8.67955 5.83417 8.70231 5.80003 8.71938 5.78296C8.72507 5.77157 8.73645 5.76588 8.73645 5.76019C8.73645 5.7545 8.74214 5.7545 8.74214 5.7545C8.74214 5.7545 8.74214 5.7545 8.40076 5.49841C8.05938 5.24232 8.05938 5.24233 8.05938 5.24233C8.05938 5.24233 8.05938 5.24233 8.05369 5.24802C8.04801 5.25371 8.04801 5.2594 8.03663 5.26509C8.02525 5.28216 8.00249 5.31062 7.97973 5.33907C7.92852 5.40167 7.86025 5.48703 7.78059 5.57809C7.70094 5.66914 7.61559 5.76019 7.53594 5.83417C7.4506 5.91385 7.3937 5.95368 7.36525 5.96506L7.73508 6.73333ZM7.68387 1.61725C7.80335 1.49206 8.00249 1.49206 8.12766 1.61725L8.73076 1.01402C8.27559 0.558757 7.53594 0.558757 7.08077 1.01402L7.68387 1.61725ZM8.12766 1.61725L10.8644 4.34886L11.4675 3.74563L8.73076 1.01402L8.12766 1.61725ZM10.8644 4.34886C10.9895 4.46837 10.9895 4.66755 10.8644 4.79275L11.4675 5.39598C11.9226 4.94071 11.9226 4.2009 11.4675 3.74563L10.8644 4.34886ZM10.8644 4.79275L9.99385 5.66345L10.597 6.26668L11.4675 5.39598L10.8644 4.79275ZM9.99385 5.66345C9.87437 5.78865 9.67524 5.78865 9.55006 5.66345L8.94697 6.26668C9.40213 6.72195 10.1418 6.72195 10.597 6.26668L9.99385 5.66345ZM9.55006 5.66345L6.81336 2.93184L6.21026 3.53507L8.94697 6.26668L9.55006 5.66345ZM6.81336 2.93184C6.68819 2.81233 6.68819 2.61315 6.81336 2.48795L6.21026 1.88472C5.75509 2.33999 5.75509 3.0798 6.21026 3.53507L6.81336 2.93184ZM6.81336 2.49365L7.68387 1.62295L7.08077 1.01972L6.21026 1.89042L6.81336 2.49365ZM1.98287 7.31379C2.10236 7.1886 2.30149 7.1886 2.42666 7.31379L3.02976 6.71056C2.57459 6.2553 1.83494 6.2553 1.37977 6.71056L1.98287 7.31379ZM2.42666 7.31379L5.16337 10.0454L5.76647 9.44217L3.02976 6.71056L2.42666 7.31379ZM5.16337 10.0454C5.28854 10.1649 5.28854 10.3641 5.16337 10.4893L5.76647 11.0925C6.22164 10.6372 6.22164 9.89744 5.76647 9.44217L5.16337 10.0454ZM5.16337 10.4893L4.29286 11.36L4.89596 11.9632L5.76647 11.0925L5.16337 10.4893ZM4.29855 11.36C4.17907 11.4852 3.97993 11.4852 3.85476 11.36L3.25166 11.9632C3.70683 12.4185 4.44648 12.4185 4.90165 11.9632L4.29855 11.36ZM3.85476 11.36L1.11805 8.62838L0.514952 9.23161L3.25166 11.9632L3.85476 11.36ZM1.11805 8.62838C0.99288 8.50887 0.99288 8.30969 1.11805 8.18449L0.509263 7.58695C0.0540932 8.04222 0.0540932 8.78203 0.509263 9.2373L1.11805 8.62838ZM1.11236 8.19019L1.98287 7.31948L1.37977 6.71626L0.509263 7.58695L1.11236 8.19019ZM9.71506 1.89611C9.91989 1.62864 10.1304 1.53758 10.3011 1.5262C10.4775 1.50913 10.6539 1.57742 10.7847 1.69124C10.9099 1.80505 10.9838 1.9644 10.9782 2.12943C10.9725 2.29447 10.8871 2.5221 10.5856 2.7725L11.1375 3.42694C11.5756 3.05704 11.8088 2.61884 11.8316 2.16927C11.8544 1.72538 11.6609 1.33271 11.3651 1.05955C11.0692 0.792081 10.6652 0.632738 10.2328 0.672574C9.79472 0.706719 9.368 0.940044 9.038 1.37824L9.71506 1.89611ZM0.816502 9.57306C0.40116 9.92589 0.184954 10.3584 0.167886 10.8023C0.150817 11.2348 0.327195 11.6331 0.605986 11.912C0.890467 12.1965 1.28874 12.3673 1.73253 12.3274C2.18201 12.2876 2.60873 12.0315 2.9558 11.5762L2.27873 11.0584C2.04546 11.3657 1.81787 11.4624 1.65857 11.4795C1.49357 11.4966 1.33426 11.434 1.20909 11.3088C1.08391 11.1836 1.01564 11.0128 1.02133 10.8364C1.02702 10.6657 1.10667 10.4495 1.36839 10.2332L0.816502 9.57306Z" fill="#565656"/>
</svg>
