<svg width="16" height="16" viewBox="0 0 16 16" fill="none" xmlns="http://www.w3.org/2000/svg">
<path d="M12.572 12.6839C12.5301 12.6839 12.4952 12.6839 12.4533 12.6769C12.209 12.656 11.9995 12.5653 11.6504 12.4048C11.3153 12.2514 10.8825 12.056 10.7079 11.5327C10.6521 11.3514 10.6521 11.1839 10.6521 10.9048V7.84205C10.6521 7.56298 10.6521 7.39554 10.7149 7.20717C10.8894 6.68391 11.3223 6.48856 11.6365 6.34903C11.9995 6.18159 12.209 6.09089 12.4533 6.06996C12.7326 6.04903 13.0119 6.10484 13.2562 6.24438C13.5076 6.38391 13.6751 6.60019 13.8078 6.76763L13.8846 6.86531C14.5897 7.72345 14.9458 8.14903 15.0924 8.70019C15.2111 9.1467 15.2111 9.61414 15.0924 10.0607C14.9178 10.6955 14.478 11.2048 14.087 11.6583C14.0032 11.756 13.9265 11.8467 13.8497 11.9374C13.6123 12.2234 13.4726 12.3979 13.2562 12.5165C13.0468 12.6211 12.8164 12.6839 12.572 12.6839ZM12.572 7.10252C12.565 7.10252 12.5511 7.10252 12.5441 7.10252C12.4813 7.10949 12.3067 7.18624 12.0903 7.28391C11.8389 7.39554 11.7342 7.45135 11.7063 7.53507C11.6993 7.56996 11.6993 7.70252 11.6993 7.83507V10.8979C11.6993 11.0304 11.6993 11.163 11.7063 11.1979C11.7342 11.2816 11.8389 11.3374 12.0693 11.4421C12.2997 11.5467 12.4743 11.6234 12.5371 11.6304C12.6069 11.6374 12.6837 11.6234 12.7396 11.5886C12.7884 11.5607 12.9071 11.4211 13.0398 11.2537C13.1236 11.156 13.2073 11.0583 13.2911 10.9537C13.6262 10.57 13.9683 10.1723 14.08 9.76763C14.1499 9.50252 14.1499 9.22345 14.08 8.95833C13.9893 8.62345 13.6821 8.25368 13.0747 7.51414L12.9839 7.39554C12.9071 7.30484 12.8164 7.18624 12.7466 7.14438C12.6977 7.11647 12.6349 7.10252 12.572 7.10252Z" fill="#565656"/>
<path d="M2.79077 12.6839C2.1345 12.6839 1.76448 12.2304 1.51314 11.9234C1.43634 11.8327 1.35954 11.7421 1.27576 11.6444C0.884794 11.1909 0.444952 10.6816 0.270412 10.0467C0.151725 9.60019 0.151725 9.13275 0.270412 8.68624C0.424008 8.13507 0.773088 7.70949 1.47823 6.85135C1.78542 6.48159 2.19036 6.00019 2.90946 6.06298C3.15382 6.08391 3.36327 6.17461 3.70537 6.33507C3.97765 6.46066 4.13823 6.53042 4.27786 6.656C4.7177 7.03275 4.7177 7.51414 4.7177 7.83507V10.8979C4.7177 11.2188 4.7177 11.7072 4.28484 12.0839C4.13823 12.2095 3.97765 12.2862 3.71235 12.4048C3.36327 12.5653 3.1608 12.656 2.90946 12.6769C2.86757 12.6839 2.83266 12.6839 2.79077 12.6839ZM2.79776 7.10252C2.65114 7.10252 2.5534 7.20019 2.30904 7.50019C1.6807 8.26066 1.37351 8.6374 1.28275 8.96531C1.21293 9.23042 1.21293 9.50949 1.28275 9.77461C1.39445 10.1793 1.73655 10.5769 2.07167 10.9607C2.16243 11.0653 2.24621 11.163 2.32301 11.2607C2.58831 11.5816 2.67907 11.6444 2.82568 11.6374C2.88852 11.6304 3.05608 11.5537 3.27251 11.456C3.4261 11.3862 3.55875 11.3234 3.59366 11.2955C3.64951 11.2467 3.67046 11.1839 3.67046 10.9048V7.84205C3.67046 7.556 3.64951 7.49321 3.59366 7.44438C3.56573 7.41647 3.43308 7.35368 3.27949 7.28391C3.06306 7.18624 2.88852 7.10949 2.82568 7.10252C2.8187 7.10252 2.81172 7.10252 2.79776 7.10252Z" fill="#565656"/>
<path d="M13.2702 7.45135C12.9839 7.45135 12.7466 7.21414 12.7466 6.9281V5.88159C12.7466 3.47461 10.4775 1.52112 7.68489 1.52112C4.89224 1.52112 2.62322 3.47461 2.62322 5.88159V6.9281C2.62322 7.21414 2.38584 7.45135 2.0996 7.45135C1.81335 7.45135 1.57597 7.21414 1.57597 6.9281V5.88159C1.57597 2.90252 4.31277 0.474609 7.68489 0.474609C11.057 0.474609 13.7938 2.90252 13.7938 5.88159V6.9281C13.7938 7.21414 13.5564 7.45135 13.2702 7.45135Z" fill="#565656"/>
<path d="M7.68489 15.4746C7.39864 15.4746 7.16127 15.2374 7.16127 14.9514C7.16127 14.6653 7.39864 14.4281 7.68489 14.4281C10.8266 14.4281 12.7466 14.3025 12.7466 11.8118C12.7466 11.5258 12.9839 11.2886 13.2702 11.2886C13.5564 11.2886 13.7938 11.5258 13.7938 11.8118C13.7938 15.4746 10.4077 15.4746 7.68489 15.4746Z" fill="#565656"/>
</svg>
