<svg width="15" height="15" viewBox="0 0 15 15" fill="none" xmlns="http://www.w3.org/2000/svg">
<path d="M12.725 5.23132C12.455 4.6912 12.0229 4.36712 11.1587 3.66496L10.6186 3.23286C9.26826 2.20663 8.62011 1.6665 7.7019 1.6665C6.8377 1.6665 6.13554 2.20663 4.78523 3.23286L5.0553 3.55694L4.78523 3.28687L4.24511 3.71897C3.38091 4.36712 2.94881 4.6912 2.67875 5.23132C2.40869 5.77144 2.40869 6.31157 2.40869 7.44582V8.58008C2.40869 10.7406 2.40869 11.8208 3.16486 12.577C3.759 13.1711 4.6232 13.2792 6.02752 13.3332C6.13554 13.3332 6.24357 13.2792 6.29758 13.2251C6.35159 13.1711 6.40561 13.0631 6.40561 12.9551V10.7946C6.40561 10.3625 6.40561 10.1464 6.45962 9.98441C6.51363 9.82237 6.67567 9.71434 6.8377 9.60632C6.94573 9.55231 7.21579 9.55231 7.64789 9.55231C8.07999 9.55231 8.29604 9.55231 8.45807 9.60632C8.62011 9.66033 8.72814 9.82237 8.83616 9.98441C8.89017 10.0924 8.89017 10.3625 8.89017 10.7946V12.9551C8.89017 13.0631 8.94419 13.1711 8.9982 13.2251C9.05221 13.2792 9.16024 13.3332 9.26826 13.3332C10.7266 13.3332 11.5368 13.1711 12.1309 12.577C12.8871 11.8208 12.8871 10.7406 12.8871 8.58008V7.44582C12.9951 6.31157 12.9951 5.77144 12.725 5.23132ZM12.1849 8.58008C12.1849 10.5245 12.1849 11.4967 11.6448 11.9829C11.2667 12.3609 10.7266 12.469 9.75437 12.469V10.7406C9.75437 10.2005 9.75437 9.93039 9.64635 9.60632C9.48431 9.22823 9.21425 8.95817 8.83616 8.79613C8.5661 8.68811 8.24203 8.68811 7.7019 8.68811C7.16178 8.68811 6.89172 8.68811 6.56764 8.79613C6.18956 8.95817 5.91949 9.22823 5.75746 9.60632C5.70344 9.93039 5.70345 10.2005 5.70345 10.7406V12.469C4.73122 12.415 4.13709 12.3069 3.81301 11.9829C3.27289 11.4427 3.27289 10.4705 3.27289 8.58008V7.44582C3.27289 6.4736 3.27289 5.98749 3.43493 5.60941C3.59696 5.23132 3.97505 4.96126 4.78523 4.36712L5.32536 3.93502C7.7019 2.04459 7.75591 2.04459 10.1325 3.93502L10.6726 4.36712C11.4288 4.96126 11.8068 5.28533 12.0229 5.60941C12.1849 5.98749 12.1849 6.4736 12.1849 7.44582V8.58008Z" fill="#7B7B7B"/>
</svg>
