<svg width="18" height="18" viewBox="0 0 18 18" fill="none" xmlns="http://www.w3.org/2000/svg">
<path d="M8.99999 0.666748C6.73853 0.666748 6.45416 0.677165 5.56561 0.716748C4.67707 0.758415 4.07186 0.897998 3.54166 1.10425C2.98524 1.31292 2.48139 1.64112 2.06561 2.06571C1.64103 2.48148 1.31283 2.98534 1.10416 3.54175C0.897906 4.07091 0.757281 4.67716 0.716656 5.56258C0.677073 6.45321 0.666656 6.73654 0.666656 9.00112C0.666656 11.2636 0.677073 11.547 0.716656 12.4355C0.758323 13.323 0.897906 13.9282 1.10416 14.4584C1.3177 15.0063 1.60207 15.4709 2.06561 15.9345C2.52811 16.398 2.9927 16.6834 3.54061 16.8959C4.07186 17.1022 4.67603 17.2428 5.56353 17.2834C6.45311 17.323 6.73645 17.3334 8.99999 17.3334C11.2635 17.3334 11.5458 17.323 12.4354 17.2834C13.3219 17.2417 13.9292 17.1022 14.4594 16.8959C15.0154 16.6871 15.5189 16.3589 15.9344 15.9345C16.3979 15.4709 16.6823 15.0063 16.8958 14.4584C17.101 13.9282 17.2417 13.323 17.2833 12.4355C17.3229 11.547 17.3333 11.2636 17.3333 9.00008C17.3333 6.73654 17.3229 6.45321 17.2833 5.56362C17.2417 4.67716 17.101 4.07091 16.8958 3.54175C16.6871 2.98534 16.3589 2.48148 15.9344 2.06571C15.5186 1.64112 15.0147 1.31292 14.4583 1.10425C13.9271 0.897998 13.3208 0.757373 12.4344 0.716748C11.5448 0.677165 11.2625 0.666748 8.99791 0.666748H8.99999ZM8.25311 2.16883H9.00103C11.226 2.16883 11.4896 2.17612 12.3677 2.21675C13.1802 2.25321 13.6219 2.38966 13.9156 2.50321C14.3042 2.65425 14.5823 2.8355 14.8739 3.12716C15.1656 3.41883 15.3458 3.69591 15.4969 4.0855C15.6114 4.37821 15.7469 4.81987 15.7833 5.63237C15.8239 6.5105 15.8323 6.77404 15.8323 8.998C15.8323 11.222 15.8239 11.4865 15.7833 12.3647C15.7469 13.1772 15.6104 13.6178 15.4969 13.9115C15.3623 14.2729 15.1492 14.5999 14.8729 14.8688C14.5812 15.1605 14.3042 15.3407 13.9146 15.4917C13.6229 15.6063 13.1812 15.7417 12.3677 15.7792C11.4896 15.8188 11.226 15.8282 9.00103 15.8282C6.77603 15.8282 6.51145 15.8188 5.63332 15.7792C4.82082 15.7417 4.3802 15.6063 4.08645 15.4917C3.72482 15.3576 3.39749 15.1449 3.12811 14.8688C2.85132 14.5997 2.63783 14.2723 2.50311 13.9105C2.38957 13.6178 2.25311 13.1761 2.21666 12.3636C2.17707 11.4855 2.16874 11.222 2.16874 8.99591C2.16874 6.76987 2.17707 6.50841 2.21666 5.63029C2.25416 4.81779 2.38957 4.37612 2.50416 4.08237C2.6552 3.69383 2.83645 3.41571 3.12811 3.12404C3.41978 2.83237 3.69686 2.65216 4.08645 2.50112C4.3802 2.38654 4.82082 2.25112 5.63332 2.21362C6.40207 2.17821 6.69999 2.16779 8.25311 2.16675V2.16883ZM13.4489 3.55216C13.3176 3.55216 13.1876 3.57803 13.0663 3.62829C12.9449 3.67854 12.8347 3.7522 12.7418 3.84506C12.649 3.93792 12.5753 4.04816 12.5251 4.16948C12.4748 4.29081 12.4489 4.42084 12.4489 4.55216C12.4489 4.68349 12.4748 4.81352 12.5251 4.93485C12.5753 5.05617 12.649 5.16641 12.7418 5.25927C12.8347 5.35213 12.9449 5.42579 13.0663 5.47604C13.1876 5.5263 13.3176 5.55216 13.4489 5.55216C13.7142 5.55216 13.9685 5.44681 14.1561 5.25927C14.3436 5.07173 14.4489 4.81738 14.4489 4.55216C14.4489 4.28695 14.3436 4.03259 14.1561 3.84506C13.9685 3.65752 13.7142 3.55216 13.4489 3.55216ZM9.00103 4.72091C8.4334 4.71206 7.86967 4.81621 7.34268 5.02731C6.81568 5.23841 6.33594 5.55224 5.9314 5.95052C5.52685 6.34881 5.20558 6.82359 4.98628 7.34723C4.76699 7.87087 4.65405 8.4329 4.65405 9.0006C4.65405 9.56831 4.76699 10.1303 4.98628 10.654C5.20558 11.1776 5.52685 11.6524 5.9314 12.0507C6.33594 12.449 6.81568 12.7628 7.34268 12.9739C7.86967 13.185 8.4334 13.2891 9.00103 13.2803C10.1245 13.2628 11.196 12.8042 11.9843 12.0035C12.7726 11.2028 13.2145 10.1242 13.2145 9.0006C13.2145 7.87698 12.7726 6.79843 11.9843 5.99774C11.196 5.19705 10.1245 4.73844 9.00103 4.72091ZM9.00103 6.22196C9.36586 6.22196 9.72712 6.29381 10.0642 6.43343C10.4012 6.57304 10.7075 6.77768 10.9655 7.03565C11.2234 7.29362 11.4281 7.59988 11.5677 7.93694C11.7073 8.274 11.7792 8.63525 11.7792 9.00008C11.7792 9.36491 11.7073 9.72617 11.5677 10.0632C11.4281 10.4003 11.2234 10.7065 10.9655 10.9645C10.7075 11.2225 10.4012 11.4271 10.0642 11.5667C9.72712 11.7063 9.36586 11.7782 9.00103 11.7782C8.26423 11.7782 7.5576 11.4855 7.0366 10.9645C6.5156 10.4435 6.22291 9.73689 6.22291 9.00008C6.22291 8.26328 6.5156 7.55665 7.0366 7.03565C7.5576 6.51465 8.26423 6.22196 9.00103 6.22196Z" fill="#D9D9D9"/>
</svg>
