<svg width="25" height="25" viewBox="0 0 25 25" fill="none" xmlns="http://www.w3.org/2000/svg">
<path fill-rule="evenodd" clip-rule="evenodd" d="M14.119 5.24713C13.4457 4.21711 11.9175 4.2171 11.2442 5.24713L7.8448 10.4473L5.24642 8.97519C3.94466 8.23764 2.37949 9.39349 2.73211 10.8319L4.49739 18.033C4.57687 18.3573 4.87128 18.5857 5.20972 18.5857H20.1535C20.492 18.5857 20.7864 18.3573 20.8659 18.033L22.6311 10.8319C22.9838 9.39348 21.4186 8.23765 20.1168 8.97519L17.5184 10.4473L14.119 5.24713ZM12.8869 6.02944C12.7908 5.88229 12.5724 5.88229 12.4763 6.02943L8.69958 11.8068C8.48818 12.1302 8.05669 12.2335 7.7183 12.0418L4.51596 10.2275C4.32999 10.1221 4.10639 10.2872 4.15677 10.4927L5.78658 17.1412H19.5767L21.2065 10.4927C21.2568 10.2872 21.0333 10.1221 20.8473 10.2275L17.6449 12.0418C17.3065 12.2335 16.8751 12.1302 16.6637 11.8068L12.8869 6.02944Z" fill="#0799B7"/>
<path d="M5.8422 20.0303C5.43747 20.0303 5.10938 20.3537 5.10938 20.7526C5.10938 21.1514 5.43747 21.4748 5.8422 21.4748H19.5216C19.9263 21.4748 20.2544 21.1514 20.2544 20.7526C20.2544 20.3537 19.9263 20.0303 19.5216 20.0303H5.8422Z" fill="#0799B7"/>
</svg>
