<svg width="18" height="18" viewBox="0 0 18 18" fill="none" xmlns="http://www.w3.org/2000/svg">
<path d="M0.666672 1.8605C0.666672 1.20112 1.21459 0.666748 1.89063 0.666748H16.1094C16.7854 0.666748 17.3333 1.20112 17.3333 1.8605V16.1397C17.3333 16.799 16.7854 17.3334 16.1094 17.3334H1.89063C1.21459 17.3334 0.666672 16.799 0.666672 16.1397V1.8605ZM5.81563 14.6188V7.09279H3.31459V14.6188H5.81563ZM4.56563 6.06466C5.4375 6.06466 5.98021 5.48758 5.98021 4.76466C5.96459 4.02612 5.43855 3.46466 4.5823 3.46466C3.72605 3.46466 3.16667 4.02716 3.16667 4.76466C3.16667 5.48758 3.70938 6.06466 4.54896 6.06466H4.56563ZM9.67813 14.6188V10.4157C9.67813 10.1907 9.6948 9.96571 9.76146 9.80529C9.94167 9.35633 10.3531 8.89071 11.0448 8.89071C11.95 8.89071 12.3115 9.58029 12.3115 10.5928V14.6188H14.8125V10.3022C14.8125 7.98966 13.5792 6.91466 11.9333 6.91466C10.6063 6.91466 10.0115 7.64383 9.67813 8.15737V8.18341H9.66146L9.67813 8.15737V7.09279H7.17813C7.20938 7.79904 7.17813 14.6188 7.17813 14.6188H9.67813Z" fill="#D9D9D9"/>
</svg>
