<svg width="21" height="20" viewBox="0 0 21 20" fill="none" xmlns="http://www.w3.org/2000/svg">
<path d="M8.80511 9.79184H12.1384V10.7229C12.1384 10.8852 12.2098 10.9972 12.3524 11.0587C12.495 11.1201 12.6251 11.0921 12.7426 10.9746L14.0791 9.63788C14.2138 9.50191 14.2811 9.34323 14.2811 9.16184C14.2811 8.98032 14.2127 8.82157 14.0759 8.68559L12.7426 7.35913C12.6251 7.24163 12.495 7.21205 12.3524 7.27038C12.2098 7.32872 12.1384 7.43948 12.1384 7.60268V8.54184H8.30823C8.0949 8.54184 7.91601 8.614 7.77157 8.7583C7.62726 8.90275 7.55511 9.08163 7.55511 9.29497V11.6668C7.55511 11.8439 7.61504 11.9923 7.7349 12.1121C7.85476 12.2319 8.00323 12.2918 8.18032 12.2918C8.35754 12.2918 8.50594 12.2319 8.62552 12.1121C8.74525 11.9923 8.80511 11.8439 8.80511 11.6668V9.79184ZM10.6818 17.8046C10.4937 17.8046 10.3084 17.7669 10.1259 17.6916C9.94344 17.6164 9.7767 17.5034 9.62573 17.3527L3.32761 11.0546C3.17691 10.9043 3.06393 10.7382 2.98865 10.5564C2.91337 10.3746 2.87573 10.1898 2.87573 10.0018C2.87573 9.81379 2.91337 9.62851 2.98865 9.44601C3.06393 9.26351 3.17691 9.09677 3.32761 8.9458L9.62573 2.64768C9.77601 2.49698 9.94205 2.38399 10.1239 2.30872C10.3057 2.23344 10.4905 2.1958 10.6784 2.1958C10.8665 2.1958 11.0518 2.23344 11.2343 2.30872C11.4168 2.38399 11.5835 2.49698 11.7345 2.64768L18.0326 8.9458C18.1833 9.09608 18.2963 9.26212 18.3716 9.44393C18.4468 9.62573 18.4845 9.81059 18.4845 9.99851C18.4845 10.1866 18.4468 10.3718 18.3716 10.5543C18.2963 10.7368 18.1833 10.9036 18.0326 11.0546L11.7345 17.3527C11.5842 17.5034 11.4182 17.6164 11.2364 17.6916C11.0546 17.7669 10.8697 17.8046 10.6818 17.8046ZM10.5039 16.4906C10.5519 16.5386 10.6107 16.5627 10.6801 16.5627C10.7496 16.5627 10.8083 16.5386 10.8564 16.4906L17.1705 10.1764C17.2186 10.1284 17.2426 10.0696 17.2426 10.0002C17.2426 9.93073 17.2186 9.87198 17.1705 9.82393L10.8564 3.50976C10.8083 3.4617 10.7496 3.43768 10.6801 3.43768C10.6107 3.43768 10.5519 3.4617 10.5039 3.50976L4.18969 9.82393C4.14164 9.87198 4.11761 9.93073 4.11761 10.0002C4.11761 10.0696 4.14164 10.1284 4.18969 10.1764L10.5039 16.4906Z" fill="#565656"/>
</svg>
