<svg width="15" height="15" viewBox="0 0 15 15" fill="none" xmlns="http://www.w3.org/2000/svg">
<path d="M7.68162 11.7873C8.86773 10.6984 9.74759 9.70921 10.3212 8.81963C10.8948 7.93005 11.1816 7.14011 11.1816 6.44984C11.1816 5.39011 10.8438 4.52241 10.1681 3.84671C9.49238 3.17102 8.66357 2.83317 7.68162 2.83317C6.69968 2.83317 5.87086 3.17102 5.19516 3.84671C4.51947 4.52241 4.18162 5.39011 4.18162 6.44984C4.18162 7.14011 4.46843 7.93005 5.04204 8.81963C5.61565 9.70921 6.49551 10.6984 7.68162 11.7873ZM7.68162 12.9394C7.54551 12.9394 7.4094 12.9151 7.27329 12.8665C7.13718 12.8179 7.01565 12.745 6.9087 12.6478C6.27676 12.0644 5.71773 11.4957 5.23162 10.9415C4.74551 10.3873 4.33961 9.85018 4.01391 9.33005C3.68822 8.80991 3.4403 8.30921 3.27016 7.82796C3.10002 7.34671 3.01495 6.88734 3.01495 6.44984C3.01495 4.9915 3.48405 3.8297 4.42225 2.96442C5.36044 2.09914 6.4469 1.6665 7.68162 1.6665C8.91634 1.6665 10.0028 2.09914 10.941 2.96442C11.8792 3.8297 12.3483 4.9915 12.3483 6.44984C12.3483 6.88734 12.2632 7.34671 12.0931 7.82796C11.9229 8.30921 11.675 8.80991 11.3493 9.33005C11.0236 9.85018 10.6177 10.3873 10.1316 10.9415C9.64551 11.4957 9.08648 12.0644 8.45454 12.6478C8.34759 12.745 8.22607 12.8179 8.08995 12.8665C7.95384 12.9151 7.81773 12.9394 7.68162 12.9394ZM7.68162 7.49984C8.00245 7.49984 8.27711 7.3856 8.50558 7.15713C8.73405 6.92866 8.84829 6.654 8.84829 6.33317C8.84829 6.01234 8.73405 5.73768 8.50558 5.50921C8.27711 5.28074 8.00245 5.1665 7.68162 5.1665C7.36079 5.1665 7.08613 5.28074 6.85766 5.50921C6.62919 5.73768 6.51495 6.01234 6.51495 6.33317C6.51495 6.654 6.62919 6.92866 6.85766 7.15713C7.08613 7.3856 7.36079 7.49984 7.68162 7.49984Z" fill="#7B7B7B"/>
</svg>
