<svg width="14" height="14" viewBox="0 0 14 14" fill="none" xmlns="http://www.w3.org/2000/svg">
<path d="M6.39109 13.6666V12.4489C5.1227 12.3069 4.03442 11.7818 3.12625 10.8736C2.21808 9.96542 1.69297 8.87714 1.55091 7.60875H0.333252V6.39109H1.55091C1.69297 5.1227 2.21808 4.03442 3.12625 3.12625C4.03442 2.21808 5.1227 1.69297 6.39109 1.55091V0.333252H7.60875V1.55091C8.87714 1.69297 9.96542 2.21808 10.8736 3.12625C11.7818 4.03442 12.3069 5.1227 12.4489 6.39109H13.6666V7.60875H12.4489C12.3069 8.87714 11.7818 9.96542 10.8736 10.8736C9.96542 11.7818 8.87714 12.3069 7.60875 12.4489V13.6666H6.39109ZM6.99992 11.2617C8.17699 11.2617 9.18155 10.8457 10.0136 10.0136C10.8457 9.18155 11.2617 8.17699 11.2617 6.99992C11.2617 5.82285 10.8457 4.81829 10.0136 3.98622C9.18155 3.15416 8.17699 2.73812 6.99992 2.73812C5.82285 2.73812 4.81829 3.15416 3.98622 3.98622C3.15416 4.81829 2.73812 5.82285 2.73812 6.99992C2.73812 8.17699 3.15416 9.18155 3.98622 10.0136C4.81829 10.8457 5.82285 11.2617 6.99992 11.2617ZM6.99992 9.43523C6.33021 9.43523 5.7569 9.19677 5.27998 8.71986C4.80306 8.24294 4.56461 7.66963 4.56461 6.99992C4.56461 6.33021 4.80306 5.7569 5.27998 5.27998C5.7569 4.80306 6.33021 4.56461 6.99992 4.56461C7.66963 4.56461 8.24294 4.80306 8.71986 5.27998C9.19677 5.7569 9.43523 6.33021 9.43523 6.99992C9.43523 7.66963 9.19677 8.24294 8.71986 8.71986C8.24294 9.19677 7.66963 9.43523 6.99992 9.43523ZM6.99992 8.21758C7.33477 8.21758 7.62143 8.09835 7.85989 7.85989C8.09835 7.62143 8.21758 7.33477 8.21758 6.99992C8.21758 6.66506 8.09835 6.37841 7.85989 6.13995C7.62143 5.90149 7.33477 5.78226 6.99992 5.78226C6.66506 5.78226 6.37841 5.90149 6.13995 6.13995C5.90149 6.37841 5.78226 6.66506 5.78226 6.99992C5.78226 7.33477 5.90149 7.62143 6.13995 7.85989C6.37841 8.09835 6.66506 8.21758 6.99992 8.21758Z" fill="#565656"/>
</svg>
