<svg width="24" height="24" viewBox="0 0 24 24" fill="none" xmlns="http://www.w3.org/2000/svg">
<rect width="24" height="24" rx="12" fill="#06ACCE"/>
<path d="M7.31323 13.1731V6.39014L4.88254 7.77917L4.49927 7.99916V11.5655L5.04781 11.8772L7.31323 13.1731Z" fill="white"/>
<path d="M11.1143 11.5346V7.52971L11.2867 7.4324L11.8851 7.08973L14.397 5.65556L11.5004 4L8.08374 5.95029V13.2664L10.5144 11.8773L11.1143 11.5346Z" fill="white"/>
<path d="M11.1146 15.5397L11.287 15.4424L11.8854 15.0997L14.0197 13.8799L11.8854 12.6615L11.287 12.3174L11.1146 12.4147L8.55138 13.8799L8.08405 14.1464L7.78056 14.3199L7.31323 14.0519L7.01118 13.8799L4.49927 12.4443V15.998L7.40442 17.6606L8.08405 17.2714L10.5147 15.8823L11.1146 15.5397Z" fill="white"/>
<path d="M12.0569 15.8824L11.8859 15.9797L11.2875 16.3224L11.1151 16.4197L8.17578 18.1006L11.5012 20.0002L14.6116 18.2219L14.9179 18.047V14.2466L14.7897 14.3199L12.0569 15.8824Z" fill="white"/>
<path d="M15.6875 6.3932L15.1675 6.09424L14.9181 6.23667L12.0571 7.8739L14.7899 9.43498L14.9181 9.50831L15.5607 9.87496L15.6875 9.94829L18.2949 11.4374L18.5 11.5545V7.9994L15.6875 6.3932Z" fill="white"/>
<path d="M17.5246 11.8771L15.6881 10.8279L14.9187 10.388L14.7904 10.3146L14.0211 9.87465L11.8867 8.65625V11.7798L12.0577 11.8771L14.7904 13.4396L14.9187 13.5115L15.5613 13.8796L15.6881 13.9529V17.6067L18.1145 16.2191L18.5006 15.9977V12.4356L18.294 12.3171L17.5246 11.8771Z" fill="white"/>
</svg>
