<svg width="18" height="18" viewBox="0 0 18 18" fill="none" xmlns="http://www.w3.org/2000/svg">
<path d="M8.60423 0.641357C4.05176 0.641357 0.348061 4.20725 0.348061 8.62585C0.348061 10.6414 1.11967 12.6569 2.58571 14.1297C2.74004 14.2848 2.89436 14.5173 2.8172 14.7499C2.74004 15.2925 2.43139 15.8352 2.12275 16.3003C1.96843 16.4553 1.96843 16.6879 2.04559 16.8429C2.12275 16.9979 2.27707 17.153 2.50855 17.2305C2.8172 17.308 3.203 17.308 3.51164 17.308C4.43757 17.308 5.36349 17.0755 6.1351 16.6104C6.36658 16.5328 6.5209 16.3778 6.59806 16.3778C6.67522 16.3778 6.82954 16.3778 7.06102 16.4553C7.60115 16.5328 8.14127 16.6104 8.68139 16.6104C13.2339 16.6104 17.0147 13.0445 17.0147 8.62585C17.0147 4.20725 13.1567 0.641357 8.60423 0.641357ZM8.60423 15.4476C8.14127 15.4476 7.67831 15.37 7.21534 15.2925C6.82954 15.215 6.59806 15.1375 6.36658 15.215C6.1351 15.215 5.98078 15.37 5.51781 15.6026C4.90053 15.9127 4.20609 16.1452 3.51164 16.1452C3.66596 15.7576 3.82028 15.37 3.89744 14.9049C3.9746 14.3623 3.82028 13.7421 3.35732 13.277C2.12275 12.0367 1.42831 10.3313 1.42831 8.62585C1.42831 4.8274 4.59189 1.80415 8.60423 1.80415C12.6166 1.80415 15.7802 4.90492 15.7802 8.62585C15.7802 12.3468 12.5394 15.4476 8.60423 15.4476Z" fill="#141414"/>
<path d="M5.51781 8.16074C5.05485 8.16074 4.74621 8.47082 4.74621 8.93593C4.74621 9.40105 5.13201 9.71113 5.51781 9.71113C5.90362 9.71113 6.28942 9.40105 6.28942 8.93593C6.28942 8.47082 5.98078 8.16074 5.51781 8.16074Z" fill="#141414"/>
<path d="M8.60423 8.16074C8.14127 8.16074 7.83263 8.47082 7.83263 8.93593C7.83263 9.40105 8.21843 9.71113 8.60423 9.71113C8.99004 9.71113 9.37584 9.40105 9.37584 8.93593C9.37584 8.47082 9.0672 8.16074 8.60423 8.16074Z" fill="#141414"/>
<path d="M11.6907 8.16074C11.2277 8.16074 10.919 8.47082 10.919 8.93593C10.919 9.40105 11.3049 9.71113 11.6907 9.71113C12.0765 9.71113 12.4623 9.40105 12.4623 8.93593C12.4623 8.47082 12.1536 8.16074 11.6907 8.16074Z" fill="#141414"/>
</svg>
