<svg width="14" height="18" viewBox="0 0 14 18" fill="none" xmlns="http://www.w3.org/2000/svg">
<path fill-rule="evenodd" clip-rule="evenodd" d="M7.16987 2.18244C5.39973 2.18244 3.96474 3.61743 3.96474 5.38757V8.46449C3.96474 10.2346 5.39973 11.6696 7.16987 11.6696C8.72047 11.6696 10.0139 10.5685 10.3109 9.10552H8.70833C8.3543 9.10552 8.06731 8.81852 8.06731 8.46449C8.06731 8.11046 8.3543 7.82347 8.70833 7.82347H10.375V6.0286H8.70833C8.3543 6.0286 8.06731 5.7416 8.06731 5.38757C8.06731 5.03354 8.3543 4.74654 8.70833 4.74654H10.3109C10.0139 3.28357 8.72047 2.18244 7.16987 2.18244ZM2.68269 5.38757C2.68269 2.90937 4.69167 0.900391 7.16987 0.900391C9.64805 0.900391 11.6571 2.90937 11.6571 5.38757V8.46449C11.6571 10.9427 9.64805 12.9517 7.16987 12.9517C4.69167 12.9517 2.68269 10.9427 2.68269 8.46449V5.38757ZM1.01603 7.82347C1.37005 7.82347 1.65705 8.11046 1.65705 8.46449C1.65705 11.5092 4.12522 13.9773 7.16987 13.9773C10.2145 13.9773 12.6827 11.5092 12.6827 8.46449C12.6827 8.11046 12.9697 7.82347 13.3237 7.82347C13.6777 7.82347 13.9647 8.11046 13.9647 8.46449C13.9647 12.001 11.263 14.9065 7.8109 15.2295V16.285H9.47756C9.83159 16.285 10.1186 16.572 10.1186 16.926C10.1186 17.2801 9.83159 17.5671 9.47756 17.5671H4.86218C4.50815 17.5671 4.22115 17.2801 4.22115 16.926C4.22115 16.572 4.50815 16.285 4.86218 16.285H6.52885V15.2295C3.07676 14.9065 0.375 12.001 0.375 8.46449C0.375 8.11046 0.661997 7.82347 1.01603 7.82347Z" fill="#141414"/>
</svg>
