<svg width="21" height="21" viewBox="0 0 21 21" fill="none" xmlns="http://www.w3.org/2000/svg">
<path d="M15.9264 12.91C15.6086 12.91 15.345 12.6485 15.345 12.3331C15.345 12.0177 15.6086 11.7562 15.9264 11.7562C16.5466 11.7562 16.8954 11.7562 17.0737 11.6792C17.3063 11.5792 17.5001 11.3946 17.6009 11.1562C17.6706 10.9869 17.6706 10.6485 17.6706 10.0254V6.17924C17.6706 4.83308 17.6629 4.23308 17.3838 3.96385C17.1125 3.69462 16.5078 3.67924 15.1512 3.67924H5.84892C4.49233 3.67924 3.88768 3.69462 3.61636 3.96385C3.33729 4.23308 3.32954 4.83308 3.32954 6.17924V9.25616C3.32954 10.6023 3.33729 11.2023 3.61636 11.4715C3.88768 11.7485 4.49233 11.7562 5.84892 11.7562H11.6629C11.9807 11.7562 12.2443 12.0177 12.2443 12.3331C12.2443 12.6485 11.9807 12.91 11.6629 12.91H5.84892C4.28303 12.91 3.41481 12.91 2.79466 12.2869C2.16675 11.6715 2.16675 10.81 2.16675 9.25616V6.17924C2.16675 4.62539 2.16675 3.76385 2.7869 3.14078C3.41481 2.52539 4.28303 2.52539 5.84892 2.52539H15.1512C16.7171 2.52539 17.5854 2.52539 18.2055 3.14078C18.8334 3.76385 18.8334 4.6177 18.8334 6.17924V10.0254C18.8334 10.7946 18.8334 11.2177 18.6706 11.6023C18.4536 12.1177 18.035 12.5331 17.5156 12.7485C17.128 12.91 16.7016 12.91 15.9264 12.91Z" fill="#565656"/>
<path d="M10.5001 9.83308C9.32179 9.83308 8.3683 8.88693 8.3683 7.7177C8.3683 6.54847 9.32179 5.60231 10.5001 5.60231C11.6784 5.60231 12.6319 6.54847 12.6319 7.7177C12.6319 8.88693 11.6784 9.83308 10.5001 9.83308ZM10.5001 6.75616C9.9652 6.75616 9.53109 7.18693 9.53109 7.7177C9.53109 8.24847 9.9652 8.67924 10.5001 8.67924C11.035 8.67924 11.4691 8.24847 11.4691 7.7177C11.4691 7.18693 11.035 6.75616 10.5001 6.75616Z" fill="#565656"/>
<path d="M10.8877 17.5254H10.5001C8.9807 17.5254 8.21326 17.5254 7.53884 17.2485C6.63186 16.8715 5.91869 16.1715 5.54659 15.2715C5.26752 14.5946 5.26752 13.8408 5.26752 12.3331C5.26752 12.0177 5.53109 11.7562 5.84892 11.7562C6.16675 11.7562 6.43031 12.0177 6.43031 12.3331C6.43031 13.6869 6.43031 14.3715 6.62411 14.8254C6.87993 15.4408 7.3683 15.9254 7.98845 16.1792C8.44582 16.3715 9.13574 16.3715 10.5001 16.3715H10.8877C12.6009 16.3715 13.4536 16.3715 14.0117 16.0792C14.4536 15.8485 14.8102 15.4869 15.0427 15.0562C15.345 14.4946 15.345 13.6485 15.345 11.9485V8.39462C14.6706 8.63308 14.1823 9.27154 14.1823 10.0254V11.5639C14.1823 11.8792 13.9187 12.1408 13.6009 12.1408C12.6396 12.1408 11.8567 12.9177 11.8567 13.8715C11.8567 14.1869 11.5931 14.4485 11.2753 14.4485C10.9574 14.4485 10.6939 14.1869 10.6939 13.8715C10.6939 12.4792 11.6939 11.31 13.0195 11.0485V10.0254C13.0195 8.43308 14.3218 7.14078 15.9264 7.14078C16.2443 7.14078 16.5078 7.40231 16.5078 7.7177V11.9485C16.5078 13.8408 16.5078 14.7869 16.0737 15.5946C15.7326 16.2331 15.2055 16.7485 14.5621 17.0946C13.7481 17.5254 12.7947 17.5254 10.8877 17.5254Z" fill="#565656"/>
</svg>
