<svg width="19" height="18" viewBox="0 0 19 18" fill="none" xmlns="http://www.w3.org/2000/svg">
<path d="M17.0116 12.4869C16.6302 12.4869 16.314 12.1731 16.314 11.7946C16.314 11.4162 16.6302 11.1023 17.0116 11.1023C17.7558 11.1023 18.1744 11.1023 18.3884 11.01C18.6674 10.89 18.9 10.6685 19.0209 10.3823C19.1046 10.1792 19.1047 9.77308 19.1047 9.02539V4.41001C19.1047 2.79462 19.0953 2.07462 18.7605 1.75154C18.4349 1.42847 17.7093 1.41001 16.0814 1.41001H4.9186C3.2907 1.41001 2.56512 1.42847 2.23953 1.75154C1.90465 2.07462 1.89535 2.79462 1.89535 4.41001V8.10231C1.89535 9.7177 1.90465 10.4377 2.23953 10.7608C2.56512 11.0931 3.2907 11.1023 4.9186 11.1023H11.8953C12.2767 11.1023 12.593 11.4162 12.593 11.7946C12.593 12.1731 12.2767 12.4869 11.8953 12.4869H4.9186C3.03953 12.4869 1.99767 12.4869 1.25349 11.7392C0.5 11.0008 0.5 9.96693 0.5 8.10231V4.41001C0.5 2.54539 0.5 1.51154 1.24419 0.763852C1.99767 0.0253906 3.03953 0.0253906 4.9186 0.0253906H16.0814C17.9605 0.0253906 19.0023 0.0253906 19.7465 0.763852C20.5 1.51154 20.5 2.53616 20.5 4.41001V9.02539C20.5 9.94847 20.5 10.4562 20.3047 10.9177C20.0442 11.5362 19.5419 12.0346 18.9186 12.2931C18.4535 12.4869 17.9419 12.4869 17.0116 12.4869Z" fill="#565656"/>
<path d="M10.5 8.79462C9.08605 8.79462 7.94186 7.65924 7.94186 6.25616C7.94186 4.85308 9.08605 3.7177 10.5 3.7177C11.914 3.7177 13.0581 4.85308 13.0581 6.25616C13.0581 7.65924 11.914 8.79462 10.5 8.79462ZM10.5 5.10231C9.85814 5.10231 9.33721 5.61924 9.33721 6.25616C9.33721 6.89308 9.85814 7.41001 10.5 7.41001C11.1419 7.41001 11.6628 6.89308 11.6628 6.25616C11.6628 5.61924 11.1419 5.10231 10.5 5.10231Z" fill="#565656"/>
<path d="M10.9651 18.0254H10.5C8.67674 18.0254 7.75581 18.0254 6.94651 17.6931C5.85814 17.2408 5.00233 16.4008 4.55581 15.3208C4.22093 14.5085 4.22093 13.6039 4.22093 11.7946C4.22093 11.4162 4.53721 11.1023 4.9186 11.1023C5.3 11.1023 5.61628 11.4162 5.61628 11.7946C5.61628 13.4192 5.61628 14.2408 5.84884 14.7854C6.15581 15.5239 6.74186 16.1054 7.48605 16.41C8.03488 16.6408 8.86279 16.6408 10.5 16.6408H10.9651C13.0209 16.6408 14.0442 16.6408 14.714 16.29C15.2442 16.0131 15.6721 15.5792 15.9512 15.0623C16.314 14.3885 16.314 13.3731 16.314 11.3331V7.06847C15.5047 7.35462 14.9186 8.12078 14.9186 9.02539V10.8715C14.9186 11.25 14.6023 11.5639 14.2209 11.5639C13.0674 11.5639 12.1279 12.4962 12.1279 13.6408C12.1279 14.0192 11.8116 14.3331 11.4302 14.3331C11.0488 14.3331 10.7326 14.0192 10.7326 13.6408C10.7326 11.97 11.9326 10.5669 13.5233 10.2531V9.02539C13.5233 7.11462 15.086 5.56385 17.0116 5.56385C17.393 5.56385 17.7093 5.8777 17.7093 6.25616V11.3331C17.7093 13.6039 17.7093 14.7392 17.1884 15.7085C16.7791 16.4746 16.1465 17.0931 15.3744 17.5085C14.3977 18.0254 13.2535 18.0254 10.9651 18.0254Z" fill="#565656"/>
</svg>
