<svg width="16" height="16" viewBox="0 0 16 16" fill="none" xmlns="http://www.w3.org/2000/svg">
<path d="M1.82353 14.4382H2.93662L11.9688 5.40598L10.8557 4.2929L1.82353 13.3251V14.4382ZM1.29765 15.7617C1.07162 15.7617 0.882206 15.6852 0.729412 15.5323C0.57647 15.3795 0.5 15.1901 0.5 14.9641V13.4354C0.5 13.2202 0.541323 13.0152 0.62397 12.8202C0.70647 12.6252 0.820147 12.4552 0.965 12.3104L12.1387 1.14179C12.2721 1.02062 12.4193 0.927013 12.5805 0.860983C12.7418 0.794807 12.911 0.761719 13.0879 0.761719C13.2648 0.761719 13.4361 0.793116 13.6018 0.85591C13.7677 0.918704 13.9146 1.01856 14.0424 1.15547L15.1199 2.2465C15.2568 2.37429 15.3544 2.52135 15.4126 2.68767C15.4709 2.854 15.5 3.02032 15.5 3.18665C15.5 3.36415 15.4697 3.53348 15.4091 3.69466C15.3485 3.85598 15.2521 4.00334 15.1199 4.13672L3.95132 15.2967C3.80647 15.4416 3.63654 15.5552 3.44154 15.6377C3.24654 15.7204 3.04147 15.7617 2.82632 15.7617H1.29765ZM11.4026 4.85915L10.8557 4.2929L11.9688 5.40598L11.4026 4.85915Z" fill="#1C1B1F"/>
</svg>
