<svg width="15" height="15" viewBox="0 0 15 15" fill="none" xmlns="http://www.w3.org/2000/svg">
<path fill-rule="evenodd" clip-rule="evenodd" d="M7.68166 2.48046C6.55783 2.48046 5.64678 3.39151 5.64678 4.51534C5.64678 5.63918 6.55783 6.55022 7.68166 6.55022C8.80551 6.55022 9.71655 5.63918 9.71655 4.51534C9.71655 3.39151 8.80551 2.48046 7.68166 2.48046ZM4.83283 4.51534C4.83283 2.94197 6.1083 1.6665 7.68166 1.6665C9.25505 1.6665 10.5305 2.94197 10.5305 4.51534C10.5305 6.08871 9.25505 7.36418 7.68166 7.36418C6.1083 7.36418 4.83283 6.08871 4.83283 4.51534ZM4.53105 9.03939C6.45961 7.89102 8.90372 7.89102 10.8323 9.0394L10.6241 9.38908L10.8323 9.0394C10.8954 9.07698 10.9733 9.12095 11.0616 9.17074C11.4484 9.38896 12.0331 9.71883 12.4337 10.1109C12.6842 10.3561 12.9222 10.6793 12.9655 11.0751C13.0115 11.4961 12.8278 11.8912 12.4594 12.2423L12.1786 11.9476L12.4594 12.2423C11.8237 12.8478 11.0609 13.3332 10.0742 13.3332H5.28911C4.30243 13.3332 3.53961 12.8478 2.90394 12.2423L2.90393 12.2423C2.53547 11.8912 2.35181 11.4961 2.39783 11.0751C2.4411 10.6793 2.67913 10.3561 2.92965 10.1109C3.33021 9.71884 3.91491 9.38897 4.30171 9.17075C4.38997 9.12096 4.46793 9.07697 4.53105 9.03939ZM10.4158 9.73875C8.74389 8.74318 6.61944 8.74318 4.94748 9.73876L4.94747 9.73876C4.85637 9.79301 4.75654 9.84964 4.65197 9.90897C4.26528 10.1283 3.81379 10.3845 3.49901 10.6926C3.30359 10.8839 3.22029 11.0417 3.20696 11.1636C3.19638 11.2604 3.22086 11.42 3.46539 11.6529C4.02748 12.1884 4.59864 12.5192 5.28911 12.5192H10.0742C10.7647 12.5192 11.3359 12.1884 11.8979 11.6529C12.1425 11.42 12.1669 11.2604 12.1563 11.1636C12.143 11.0417 12.0597 10.8839 11.8643 10.6926C11.5495 10.3845 11.098 10.1283 10.7113 9.90895C10.6068 9.84963 10.5069 9.793 10.4158 9.73876L10.4158 9.73875Z" fill="#7B7B7B"/>
</svg>
