<svg width="11" height="13" viewBox="0 0 11 13" fill="none" xmlns="http://www.w3.org/2000/svg">
<path fill-rule="evenodd" clip-rule="evenodd" d="M5.68154 1.48046C4.55771 1.48046 3.64666 2.39151 3.64666 3.51534C3.64666 4.63918 4.55771 5.55022 5.68154 5.55022C6.80539 5.55022 7.71643 4.63918 7.71643 3.51534C7.71643 2.39151 6.80539 1.48046 5.68154 1.48046ZM2.83271 3.51534C2.83271 1.94197 4.10817 0.666504 5.68154 0.666504C7.25492 0.666504 8.53038 1.94197 8.53038 3.51534C8.53038 5.08871 7.25492 6.36418 5.68154 6.36418C4.10817 6.36418 2.83271 5.08871 2.83271 3.51534ZM2.53093 8.03939C4.45948 6.89102 6.9036 6.89102 8.83215 8.0394L8.62393 8.38908L8.83215 8.0394C8.89526 8.07698 8.9732 8.12095 9.06146 8.17074C9.44827 8.38896 10.033 8.71883 10.4335 9.11091C10.6841 9.35612 10.9221 9.67925 10.9654 10.0751C11.0114 10.4961 10.8277 10.8912 10.4593 11.2423L10.1785 10.9476L10.4592 11.2423C9.82361 11.8478 9.06077 12.3332 8.07408 12.3332H3.28899C2.30231 12.3332 1.53948 11.8478 0.90382 11.2423L0.903809 11.2423C0.53535 10.8912 0.35169 10.4961 0.397708 10.0751C0.44098 9.67925 0.679009 9.35612 0.929527 9.11091C1.33009 8.71884 1.91479 8.38897 2.30159 8.17075C2.38985 8.12096 2.46781 8.07697 2.53093 8.03939ZM8.41571 8.73875C6.74376 7.74318 4.61932 7.74318 2.94736 8.73876L2.94735 8.73876C2.85624 8.79301 2.75641 8.84964 2.65185 8.90897C2.26516 9.12834 1.81367 9.38448 1.49889 9.69259C1.30347 9.88387 1.22017 10.0417 1.20684 10.1636C1.19626 10.2604 1.22073 10.42 1.46526 10.6529C2.02736 11.1884 2.59852 11.5192 3.28899 11.5192H8.07408C8.76457 11.5192 9.33574 11.1884 9.8978 10.6529C10.1423 10.42 10.1668 10.2604 10.1562 10.1636C10.1429 10.0417 10.0596 9.88386 9.86418 9.69259C9.5494 9.38447 9.0979 9.12833 8.7112 8.90895C8.60664 8.84963 8.50682 8.793 8.41572 8.73876L8.41571 8.73875Z" fill="#7B7B7B"/>
</svg>
