<svg width="18" height="18" viewBox="0 0 18 18" fill="none" xmlns="http://www.w3.org/2000/svg">
<path d="M16.873 12.7781C16.702 12.3508 16.531 12.0089 16.189 11.667C15.9324 11.4106 15.5904 11.3251 15.0773 11.0687L14.3077 10.7268C13.7091 10.4704 13.3671 10.2995 13.0251 10.2995C12.683 10.2995 12.2555 10.2995 11.9134 10.4704C11.5714 10.6414 11.3148 10.8123 10.8018 11.2396C10.3742 11.5815 10.2032 11.7525 10.0322 11.8379C9.86115 11.9234 9.69013 11.9234 9.51911 11.9234C9.34809 11.9234 9.17706 11.8379 8.74951 11.5815C7.46685 10.8978 6.78276 10.214 6.09867 8.93196C5.84214 8.50461 5.75663 8.33367 5.75663 8.16273C5.75663 7.99179 5.75663 7.82085 5.84214 7.6499C5.92765 7.47896 6.01316 7.30802 6.44071 6.88067C6.86827 6.36785 7.1248 6.11144 7.21031 5.76956C7.38134 5.42768 7.38134 5.0858 7.38134 4.65845C7.38134 4.31657 7.21031 3.97469 6.95378 3.3764L6.44071 2.5217C6.26969 2.00888 6.09867 1.667 5.84214 1.41059C5.58561 1.06871 5.24356 0.812298 4.81601 0.726828C4.47396 0.641358 4.13192 0.641357 3.53334 0.641357C2.67823 0.641357 2.16517 0.641357 1.73761 0.897768C1.13904 1.06871 0.625971 1.58153 0.454949 2.17982C0.283927 2.69264 0.369438 3.11999 0.369438 3.88922C1.13904 11.9234 5.58561 16.4533 13.7091 17.2226C14.1367 17.2226 14.3932 17.308 14.6498 17.308C14.9063 17.308 15.1628 17.308 15.4194 17.2226C16.0179 17.0516 16.531 16.5388 16.7875 15.9405C16.9586 15.5132 16.9586 15.0003 16.9586 14.1456C17.0441 13.4619 17.0441 13.12 16.873 12.7781ZM15.5904 15.3422C15.5049 15.5986 15.2483 15.855 14.9918 15.9405C14.8208 16.026 14.4787 16.026 13.7947 15.9405C6.3552 15.1713 2.4217 11.2396 1.6521 3.80375C1.56659 3.11999 1.56659 2.86358 1.6521 2.60717C1.73761 2.35076 1.99415 2.09435 2.25068 2.00888C2.4217 1.92341 2.84926 1.92341 3.53334 1.92341C4.04641 1.92341 4.30294 1.92341 4.38845 2.00888C4.55947 2.00888 4.7305 2.09435 4.90152 2.26529C4.98703 2.35076 5.07254 2.60717 5.32907 3.03452L5.67112 3.80375C5.92765 4.31657 6.01316 4.57298 6.01316 4.74392C6.01316 4.91486 6.01316 5.0858 5.92765 5.25674C5.84214 5.34221 5.67112 5.59862 5.32907 6.02597C4.90152 6.45332 4.7305 6.7952 4.55947 7.13708C4.47396 7.47896 4.38845 7.90631 4.47396 8.2482C4.55947 8.67555 4.7305 8.93196 4.98703 9.44478C5.84214 10.9832 6.69725 11.8379 8.15093 12.6072C8.664 12.8636 8.92053 13.0345 9.34809 13.12C9.69013 13.2055 10.1177 13.12 10.4597 13.0345C10.8873 12.8636 11.1438 12.6926 11.6569 12.2653C12.0844 11.9234 12.2555 11.7525 12.4265 11.667C12.5975 11.5815 12.7685 11.5815 12.9395 11.5815C13.1106 11.5815 13.3671 11.7525 13.8802 11.9234L14.6498 12.2653C15.0773 12.4362 15.3339 12.5217 15.4194 12.6926C15.5904 12.8636 15.6759 13.0345 15.7614 13.2055C15.8469 13.3764 15.8469 13.6328 15.8469 14.0602C15.7614 14.7439 15.7614 15.1713 15.5904 15.3422Z" fill="#565656"/>
</svg>
