<svg width="16" height="14" viewBox="0 0 16 14" fill="none" xmlns="http://www.w3.org/2000/svg">
<path d="M10.4721 13.7246H4.8907C2.83954 13.7246 1.71628 13.7246 0.948838 12.876C0.181396 12.0275 0.181396 10.7855 0.181396 8.51747V5.43175C0.181396 3.16375 0.181396 1.92175 0.948838 1.07318C1.71628 0.224609 2.83954 0.224609 4.8907 0.224609H10.4721C12.5233 0.224609 13.6465 0.224609 14.414 1.07318C15.1814 1.92175 15.1814 3.17147 15.1814 5.43175V8.51747C15.1814 10.7855 15.1814 12.0275 14.414 12.876C13.6465 13.7246 12.5233 13.7246 10.4721 13.7246ZM4.8907 1.38175C3.06279 1.38175 2.14884 1.38175 1.68837 1.8909C1.22791 2.40004 1.22791 3.41061 1.22791 5.43175V8.51747C1.22791 10.5386 1.22791 11.5492 1.68837 12.0583C2.14884 12.5675 3.06279 12.5675 4.8907 12.5675H10.4721C12.3 12.5675 13.214 12.5675 13.6744 12.0583C14.1349 11.5492 14.1349 10.5386 14.1349 8.51747V5.43175C14.1349 3.41061 14.1349 2.40004 13.6744 1.8909C13.214 1.38175 12.3 1.38175 10.4721 1.38175H4.8907Z" fill="#565656"/>
<path d="M7.6814 8.32461H5.23954C3.88605 8.32461 2.97209 7.1289 2.97209 5.35461C2.97209 4.72204 3.0907 4.22832 3.33488 3.87347C3.58605 3.50318 3.95582 3.31032 4.40233 3.31032C6 3.31032 8.20465 5.87918 8.20465 7.74604C8.20465 8.06232 7.96744 8.32461 7.6814 8.32461ZM4.40233 4.46747C4.26279 4.46747 4.20698 4.52147 4.16512 4.57547C4.1093 4.66032 4.01861 4.86861 4.01861 5.35461C4.01861 5.66318 4.07442 7.16747 5.23954 7.16747H7.06047C6.67674 5.91775 5.21861 4.46747 4.40233 4.46747Z" fill="#565656"/>
<path d="M10.1233 8.32461H7.6814C7.39535 8.32461 7.15814 8.06232 7.15814 7.74604C7.15814 5.87918 9.36279 3.31032 10.9605 3.31032C11.407 3.31032 11.7767 3.50318 12.0279 3.88118C12.2651 4.22832 12.3907 4.72975 12.3907 5.36232C12.3907 7.1289 11.4767 8.32461 10.1233 8.32461ZM8.30233 7.16747H10.1233C11.2884 7.16747 11.3442 5.66318 11.3442 5.35461C11.3442 4.86861 11.2535 4.65261 11.1977 4.57547C11.1558 4.52147 11.1 4.46747 10.9605 4.46747C10.1442 4.46747 8.68605 5.91775 8.30233 7.16747Z" fill="#565656"/>
<path d="M7.6814 13.7246C7.39535 13.7246 7.15814 13.4623 7.15814 13.146V0.803181C7.15814 0.486895 7.39535 0.224609 7.6814 0.224609C7.96744 0.224609 8.20465 0.486895 8.20465 0.803181V13.146C8.20465 13.4623 7.96744 13.7246 7.6814 13.7246Z" fill="#565656"/>
<path d="M14.6581 8.32461H0.704652C0.418606 8.32461 0.181396 8.06232 0.181396 7.74604C0.181396 7.42975 0.418606 7.16747 0.704652 7.16747H14.6581C14.9442 7.16747 15.1814 7.42975 15.1814 7.74604C15.1814 8.06232 14.9442 8.32461 14.6581 8.32461Z" fill="#565656"/>
<path d="M9.77442 10.6389C9.64186 10.6389 9.5093 10.5849 9.40465 10.4692L7.6814 8.56375L5.95814 10.4692C5.75581 10.6929 5.42093 10.6929 5.2186 10.4692C5.01628 10.2455 5.01628 9.87518 5.2186 9.65147L7.31163 7.33718C7.51395 7.11347 7.84884 7.11347 8.05116 7.33718L10.1442 9.65147C10.3465 9.87518 10.3465 10.2455 10.1442 10.4692C10.0395 10.5849 9.90698 10.6389 9.77442 10.6389Z" fill="#565656"/>
</svg>
