<svg width="19" height="19" viewBox="0 0 19 19" fill="none" xmlns="http://www.w3.org/2000/svg">
<path d="M5.41091 5.80366L4.42436 6.79098L13.7242 16.0981L14.7108 15.1107L5.41091 5.80366Z" fill="#565656"/>
<path d="M3.87851 20.0254C3.74829 20.0254 3.62737 20.0161 3.48785 19.9882C2.21357 19.7461 0.781161 18.294 0.539327 17.0001C0.390505 16.2368 0.669545 15.5759 1.28343 15.1849L1.40435 15.1105C2.84606 14.2075 5.2458 12.6902 5.55275 11.4243C5.60856 11.2102 5.44113 10.8751 5.27371 10.5493C3.90641 7.82185 4.15755 5.01066 5.86899 3.30719C8.7245 0.449455 15.3099 -1.60774 18.7234 1.7992C19.8861 2.96277 20.5 4.6197 20.5 6.58381C20.5 9.44154 19.1792 12.6809 17.2073 14.645C15.5052 16.3485 12.6869 16.5998 10.036 15.2873C9.61743 15.0825 9.30119 14.915 9.07796 14.9708C7.80367 15.2687 6.28755 17.6796 5.38532 19.1132L5.31091 19.2249C4.98537 19.7461 4.47379 20.0254 3.87851 20.0254ZM2.02754 16.3764C1.96243 16.423 1.86012 16.4788 1.91592 16.7488C2.05544 17.4841 3.03209 18.4895 3.74829 18.6198C3.99942 18.6663 4.07384 18.5826 4.13894 18.4802L4.21336 18.3685C5.36672 16.544 6.93865 14.04 8.77101 13.6118C9.48721 13.4442 10.0918 13.7514 10.5941 14.0027C12.7799 15.0918 14.9657 14.9429 16.24 13.6676C17.9328 11.9735 19.1234 9.05989 19.1234 6.59312C19.1234 5.48539 18.8816 3.93086 17.7561 2.79522C15.0122 0.0678035 9.34769 1.7992 6.85494 4.2939C5.58065 5.56917 5.43183 7.74738 6.47358 9.86043C6.76192 10.4282 7.06887 11.0426 6.90144 11.7594C6.47358 13.5839 3.97152 15.157 2.13916 16.302L2.02754 16.3764Z" fill="#565656"/>
</svg>
