<svg width="21" height="21" viewBox="0 0 21 21" fill="none" xmlns="http://www.w3.org/2000/svg">
<path d="M6.25917 6.50737L5.43705 7.33013L13.1869 15.086L14.009 14.2633L6.25917 6.50737Z" fill="#565656"/>
<path d="M4.98217 18.3588C4.87366 18.3588 4.77289 18.3511 4.65662 18.3278C3.59472 18.1261 2.40105 16.916 2.19952 15.8377C2.0755 15.2016 2.30804 14.6509 2.81961 14.3251L2.92037 14.263C4.1218 13.5106 6.12158 12.2462 6.37737 11.1912C6.42388 11.0128 6.28436 10.7335 6.14484 10.462C5.00542 8.18919 5.2147 5.84653 6.64091 4.42697C9.0205 2.04553 14.5083 0.331196 17.353 3.17031C18.3218 4.13996 18.8334 5.52073 18.8334 7.15749C18.8334 9.53893 17.7328 12.2384 16.0895 13.8752C14.6711 15.2947 12.3225 15.5042 10.1134 14.4104C9.76461 14.2398 9.50107 14.1001 9.31504 14.1467C8.25314 14.3949 6.98971 16.404 6.23785 17.5986L6.17584 17.6917C5.90455 18.1261 5.47824 18.3588 4.98217 18.3588ZM3.4397 15.318C3.38544 15.3568 3.30018 15.4033 3.34669 15.6283C3.46295 16.2411 4.27682 17.0789 4.87366 17.1875C5.08294 17.2263 5.14494 17.1564 5.1992 17.0711L5.26121 16.978C6.22235 15.4576 7.53229 13.371 9.05926 13.0141C9.65609 12.8745 10.1599 13.1305 10.5785 13.3399C12.4 14.2475 14.2215 14.1234 15.2834 13.0607C16.6941 11.6489 17.6863 9.22089 17.6863 7.16524C17.6863 6.24214 17.4847 4.9467 16.5468 4.00033C14.2603 1.72748 9.53983 3.17031 7.46253 5.24923C6.40063 6.31196 6.27661 8.12713 7.14473 9.888C7.38502 10.3612 7.6408 10.8732 7.50128 11.4705C7.14473 12.9909 5.05968 14.3018 3.53271 15.2559L3.4397 15.318Z" fill="#565656"/>
</svg>
