<svg width="19" height="19" viewBox="0 0 19 19" fill="none" xmlns="http://www.w3.org/2000/svg">
<g clip-path="url(#clip0_15128_12826)">
<path d="M16.4001 7.16066C16.0188 7.16066 15.7026 6.84438 15.7026 6.46298V3.67228C15.7026 3.29089 16.0188 2.97461 16.4001 2.97461C16.7814 2.97461 17.0977 3.29089 17.0977 3.67228V6.46298C17.0977 6.84438 16.7814 7.16066 16.4001 7.16066ZM7.09929 7.16066C6.71795 7.16066 6.40173 6.84438 6.40173 6.46298V3.67228C6.40173 3.29089 6.71795 2.97461 7.09929 2.97461C7.48062 2.97461 7.79685 3.29089 7.79685 3.67228V6.46298C7.79685 6.84438 7.48062 7.16066 7.09929 7.16066Z" fill="#141414"/>
<path d="M12.2147 22.9746H10.8196C7.12719 22.9746 5.26703 22.9746 3.97421 21.6816C2.6814 20.3886 2.6814 18.5281 2.6814 14.8351V12.5095C2.6814 8.81647 2.6814 6.956 3.97421 5.66298C5.26703 4.36996 7.12719 4.36996 10.8196 4.36996H12.6798C16.3722 4.36996 18.2324 4.36996 19.5252 5.66298C20.818 6.956 20.818 8.81647 20.818 12.5095V13.9048C20.818 14.2862 20.5018 14.6025 20.1204 14.6025C19.7391 14.6025 19.4229 14.2862 19.4229 13.9048V12.5095C19.4229 9.19787 19.4229 7.53275 18.5393 6.64903C17.6557 5.76531 15.9909 5.76531 12.6798 5.76531H10.8196C7.50853 5.76531 5.84368 5.76531 4.9601 6.64903C4.07652 7.53275 4.07652 9.19787 4.07652 12.5095V14.8351C4.07652 18.1467 4.07652 19.8118 4.9601 20.6955C5.84368 21.5793 7.50853 21.5793 10.8196 21.5793H12.2147C12.5961 21.5793 12.9123 21.8955 12.9123 22.2769C12.9123 22.6583 12.5961 22.9746 12.2147 22.9746Z" fill="#141414"/>
<path d="M16.4001 22.9746C16.3722 22.9746 16.3443 22.9746 16.3164 22.9653C16.0467 22.9281 15.8235 22.7421 15.7398 22.4909C15.2561 21.0118 14.326 20.6118 14.2888 20.5932C13.9354 20.4444 13.7587 20.0444 13.8982 19.6909C14.0377 19.3374 14.4283 19.1607 14.7911 19.2909C14.8376 19.3095 15.777 19.6723 16.521 20.863C17.5906 19.3839 19.7205 16.7514 21.7481 16.0258C22.1108 15.8955 22.5108 16.0909 22.641 16.4537C22.7712 16.8165 22.5759 17.2165 22.2131 17.3467C20.2414 18.0444 17.7766 21.4118 16.9861 22.649C16.8559 22.8537 16.6326 22.9746 16.4001 22.9746Z" fill="#141414"/>
<path d="M19.6554 10.4165H3.844C3.46267 10.4165 3.14644 10.1002 3.14644 9.7188C3.14644 9.3374 3.46267 9.02112 3.844 9.02112H19.6554C20.0367 9.02112 20.353 9.3374 20.353 9.7188C20.353 10.1002 20.0367 10.4165 19.6554 10.4165Z" fill="#141414"/>
</g>
<defs>
<clipPath id="clip0_15128_12826">
<rect width="18" height="18" fill="white" transform="translate(0.681396 0.974609)"/>
</clipPath>
</defs>
</svg>
