<svg width="17" height="17" viewBox="0 0 17 17" fill="none" xmlns="http://www.w3.org/2000/svg">
<path d="M14.4001 5.16066C14.0188 5.16066 13.7026 4.84438 13.7026 4.46298V1.67228C13.7026 1.29089 14.0188 0.974609 14.4001 0.974609C14.7814 0.974609 15.0977 1.29089 15.0977 1.67228V4.46298C15.0977 4.84438 14.7814 5.16066 14.4001 5.16066ZM5.09929 5.16066C4.71795 5.16066 4.40173 4.84438 4.40173 4.46298V1.67228C4.40173 1.29089 4.71795 0.974609 5.09929 0.974609C5.48062 0.974609 5.79685 1.29089 5.79685 1.67228V4.46298C5.79685 4.84438 5.48062 5.16066 5.09929 5.16066Z" fill="#141414"/>
<path d="M10.2147 20.9746H8.81962C5.12719 20.9746 3.26703 20.9746 1.97421 19.6816C0.681396 18.3886 0.681396 16.5281 0.681396 12.8351V10.5095C0.681396 6.81647 0.681396 4.956 1.97421 3.66298C3.26703 2.36996 5.12719 2.36996 8.81962 2.36996H10.6798C14.3722 2.36996 16.2324 2.36996 17.5252 3.66298C18.818 4.956 18.818 6.81647 18.818 10.5095V11.9048C18.818 12.2862 18.5018 12.6025 18.1204 12.6025C17.7391 12.6025 17.4229 12.2862 17.4229 11.9048V10.5095C17.4229 7.19787 17.4229 5.53275 16.5393 4.64903C15.6557 3.76531 13.9909 3.76531 10.6798 3.76531H8.81962C5.50853 3.76531 3.84368 3.76531 2.9601 4.64903C2.07652 5.53275 2.07652 7.19787 2.07652 10.5095V12.8351C2.07652 16.1467 2.07652 17.8118 2.9601 18.6955C3.84368 19.5793 5.50853 19.5793 8.81962 19.5793H10.2147C10.5961 19.5793 10.9123 19.8955 10.9123 20.2769C10.9123 20.6583 10.5961 20.9746 10.2147 20.9746Z" fill="#141414"/>
<path d="M14.4001 20.9746C14.3722 20.9746 14.3443 20.9746 14.3164 20.9653C14.0467 20.9281 13.8235 20.7421 13.7398 20.4909C13.2561 19.0118 12.326 18.6118 12.2888 18.5932C11.9354 18.4444 11.7587 18.0444 11.8982 17.6909C12.0377 17.3374 12.4283 17.1607 12.7911 17.2909C12.8376 17.3095 13.777 17.6723 14.521 18.863C15.5906 17.3839 17.7205 14.7514 19.7481 14.0258C20.1108 13.8955 20.5108 14.0909 20.641 14.4537C20.7712 14.8165 20.5759 15.2165 20.2131 15.3467C18.2414 16.0444 15.7766 19.4118 14.9861 20.649C14.8559 20.8537 14.6326 20.9746 14.4001 20.9746Z" fill="#141414"/>
<path d="M17.6554 8.41647H1.844C1.46267 8.41647 1.14644 8.10019 1.14644 7.7188C1.14644 7.3374 1.46267 7.02112 1.844 7.02112H17.6554C18.0367 7.02112 18.353 7.3374 18.353 7.7188C18.353 8.10019 18.0367 8.41647 17.6554 8.41647Z" fill="#141414"/>
</svg>
