<svg width="12" height="13" viewBox="0 0 12 13" fill="none" xmlns="http://www.w3.org/2000/svg">
<path fill-rule="evenodd" clip-rule="evenodd" d="M6.00008 1.48046C3.22795 1.48046 0.980701 3.72771 0.980701 6.49984C0.980701 9.27194 3.22795 11.5192 6.00008 11.5192C8.77218 11.5192 11.0195 9.27194 11.0195 6.49984C11.0195 3.72771 8.77218 1.48046 6.00008 1.48046ZM0.166748 6.49984C0.166748 3.27817 2.77842 0.666504 6.00008 0.666504C9.22171 0.666504 11.8334 3.27817 11.8334 6.49984C11.8334 9.72147 9.22172 12.3332 6.00008 12.3332C2.77842 12.3332 0.166748 9.72147 0.166748 6.49984Z" fill="#565656"/>
<path fill-rule="evenodd" clip-rule="evenodd" d="M0.166748 6.49984C0.166748 6.27507 0.348958 6.09286 0.573725 6.09286C0.693776 6.09286 0.81308 6.09647 0.931531 6.10364C1.15589 6.11723 1.32675 6.31012 1.31316 6.53448C1.29958 6.75883 1.10669 6.9297 0.882329 6.91611C0.780351 6.90993 0.677456 6.90681 0.573725 6.90681C0.348958 6.90681 0.166748 6.7246 0.166748 6.49984ZM2.00268 6.67402C2.07775 6.46216 2.31035 6.35127 2.52221 6.42635C2.71733 6.49549 2.90772 6.57468 3.09274 6.6634C3.29541 6.76059 3.38092 7.00367 3.28374 7.20634C3.18655 7.40901 2.94347 7.49452 2.7408 7.39734C2.58181 7.3211 2.41815 7.25302 2.25035 7.19356C2.03849 7.11848 1.9276 6.88588 2.00268 6.67402ZM3.89908 7.61864C4.04941 7.45154 4.30673 7.43794 4.47383 7.58827C4.6254 7.72462 4.76974 7.8688 4.90622 8.02006C5.0568 8.18693 5.04359 8.44428 4.87672 8.59485C4.70985 8.74543 4.4525 8.73222 4.30192 8.56535C4.18428 8.43498 4.05994 8.31078 3.92946 8.19339C3.76236 8.04307 3.74876 7.78574 3.89908 7.61864ZM5.30586 9.23737C5.509 9.14116 5.75167 9.22783 5.84788 9.43097C5.92913 9.6025 6.00235 9.77871 6.06697 9.95906C6.14277 10.1707 6.03269 10.4036 5.82109 10.4794C5.60949 10.5553 5.37651 10.4452 5.3007 10.2336C5.24517 10.0786 5.1822 9.92703 5.11227 9.77939C5.01605 9.57625 5.10273 9.33359 5.30586 9.23737ZM5.96951 11.2184C6.19394 11.2061 6.38587 11.3781 6.3982 11.6025C6.40409 11.7097 6.40706 11.8176 6.40706 11.9262C6.40706 12.151 6.22485 12.3332 6.00008 12.3332C5.77531 12.3332 5.5931 12.151 5.5931 11.9262C5.5931 11.8325 5.59054 11.7395 5.58547 11.6471C5.57314 11.4227 5.74509 11.2308 5.96951 11.2184Z" fill="#565656"/>
<path fill-rule="evenodd" clip-rule="evenodd" d="M6.00008 0.666504C6.22485 0.666504 6.40706 0.848714 6.40706 1.07348C6.40706 1.16718 6.40962 1.26021 6.41469 1.35251C6.42702 1.57694 6.25508 1.76887 6.03066 1.7812C5.80623 1.79353 5.6143 1.62159 5.60196 1.39716C5.59607 1.28995 5.5931 1.18203 5.5931 1.07348C5.5931 0.848714 5.77531 0.666504 6.00008 0.666504ZM6.17908 2.52022C6.39068 2.44442 6.62367 2.55451 6.69947 2.76611C6.75499 2.92111 6.81796 3.07265 6.88789 3.2203C6.98411 3.42343 6.89743 3.6661 6.6943 3.76231C6.49117 3.85853 6.2485 3.77185 6.15228 3.56872C6.07104 3.39719 5.99781 3.22098 5.93319 3.0406C5.85739 2.829 5.96748 2.59602 6.17908 2.52022ZM7.12344 4.40479C7.29032 4.25422 7.54766 4.26744 7.69823 4.43432C7.81585 4.56468 7.9402 4.68884 8.07072 4.80626C8.23782 4.95658 8.25143 5.21391 8.1011 5.38101C7.95078 5.54811 7.69346 5.56172 7.52636 5.4114C7.37482 5.27508 7.23045 5.13093 7.0939 4.97958C6.94333 4.8127 6.95655 4.55536 7.12344 4.40479ZM8.71642 5.79334C8.8136 5.59067 9.05668 5.50515 9.25935 5.60233C9.41837 5.67858 9.58202 5.74666 9.74981 5.80612C9.96167 5.88119 10.0726 6.1138 9.99747 6.32566C9.9224 6.53751 9.68979 6.6484 9.47794 6.57332C9.28281 6.50418 9.09245 6.42499 8.90743 6.33627C8.70476 6.23909 8.61924 5.99601 8.71642 5.79334ZM10.687 6.46521C10.7006 6.24085 10.8934 6.06998 11.1178 6.08356C11.2198 6.08974 11.3227 6.09286 11.4264 6.09286C11.6512 6.09286 11.8334 6.27507 11.8334 6.49984C11.8334 6.7246 11.6512 6.90681 11.4264 6.90681C11.3064 6.90681 11.1871 6.9032 11.0686 6.89603C10.8443 6.88245 10.6734 6.68956 10.687 6.46521Z" fill="#565656"/>
</svg>
