<svg width="14" height="18" viewBox="0 0 14 18" fill="none" xmlns="http://www.w3.org/2000/svg">
<path d="M6.99999 17.3334C4.5238 17.3334 0.333328 16.845 0.333328 15.0078C0.333328 14.1474 1.25523 13.4962 3.06857 13.0776C3.38095 13.0078 3.68571 13.2016 3.75428 13.5195C3.82285 13.8295 3.63238 14.1396 3.31999 14.2171C1.94095 14.535 1.51428 14.9226 1.47619 15.0311C1.59047 15.3257 3.41142 16.1706 6.99999 16.1706C10.5886 16.1706 12.4095 15.3257 12.5238 14.9923C12.4857 14.9226 12.059 14.535 10.68 14.2171C10.3752 14.1474 10.1771 13.8373 10.2457 13.5195C10.3143 13.2016 10.6267 13.0078 10.9314 13.0776C12.7448 13.4885 13.6667 14.1396 13.6667 15.0078C13.6667 16.845 9.47618 17.3334 6.99999 17.3334ZM6.99999 14.2326C6.48952 14.2326 6.00952 14.0388 5.6438 13.6745L5.06476 13.1086C2.8019 10.9148 -0.0171479 8.18613 1.54476 4.36442C2.45142 2.15512 4.63809 0.666748 6.99999 0.666748C9.3619 0.666748 11.5486 2.15512 12.4552 4.36442C14.0248 8.20938 11.1829 10.9458 8.90476 13.1474L8.35618 13.6745C7.99047 14.0388 7.51047 14.2326 6.99999 14.2326ZM6.99999 1.82954C5.09523 1.82954 3.32761 3.02334 2.6038 4.80628C1.33904 7.89155 3.63238 10.1164 5.85714 12.2714L6.4438 12.845C6.74095 13.1396 7.26666 13.1396 7.5638 12.845L8.11999 12.3102C10.36 10.1474 12.6686 7.91481 11.4038 4.81404C10.6724 3.02334 8.90476 1.82954 6.99999 1.82954ZM6.99999 9.19388C5.63619 9.19388 4.5238 8.0621 4.5238 6.6745C4.5238 5.2869 5.63619 4.15512 6.99999 4.15512C8.3638 4.15512 9.47618 5.2869 9.47618 6.6745C9.47618 8.0621 8.3638 9.19388 6.99999 9.19388ZM6.99999 5.31791C6.26857 5.31791 5.66666 5.93031 5.66666 6.6745C5.66666 7.41869 6.26857 8.03109 6.99999 8.03109C7.73142 8.03109 8.33333 7.41869 8.33333 6.6745C8.33333 5.93031 7.73142 5.31791 6.99999 5.31791Z" fill="#D9D9D9"/>
</svg>
