<svg width="14" height="14" viewBox="0 0 14 14" fill="none" xmlns="http://www.w3.org/2000/svg">
<path d="M6.23081 7.79454H1.1026C0.884656 7.79454 0.702007 7.72078 0.554656 7.57326C0.407135 7.42574 0.333374 7.243 0.333374 7.02505C0.333374 6.80693 0.407135 6.62428 0.554656 6.47711C0.702007 6.32975 0.884656 6.25608 1.1026 6.25608H6.23081V1.12787C6.23081 0.909925 6.30457 0.727275 6.45209 0.579925C6.59961 0.432403 6.78235 0.358643 7.0003 0.358643C7.21842 0.358643 7.40107 0.432403 7.54825 0.579925C7.6956 0.727275 7.76927 0.909925 7.76927 1.12787V6.25608H12.8975C13.1154 6.25608 13.2981 6.32984 13.4454 6.47736C13.5929 6.62488 13.6667 6.80762 13.6667 7.02557C13.6667 7.24369 13.5929 7.42634 13.4454 7.57352C13.2981 7.72087 13.1154 7.79454 12.8975 7.79454H7.76927V12.9227C7.76927 13.1407 7.69551 13.3233 7.54799 13.4707C7.40047 13.6182 7.21773 13.692 6.99978 13.692C6.78167 13.692 6.59902 13.6182 6.45184 13.4707C6.30449 13.3233 6.23081 13.1407 6.23081 12.9227V7.79454Z" fill="#1C1B1F"/>
</svg>
