<svg width="18" height="18" viewBox="0 0 18 18" fill="none" xmlns="http://www.w3.org/2000/svg">
<path d="M11.112 10.3636H10.5633L10.3689 10.1761C11.0495 9.38441 11.4592 8.35664 11.4592 7.23858C11.4592 4.74552 9.43835 2.72469 6.94529 2.72469C4.45224 2.72469 2.4314 4.74552 2.4314 7.23858C2.4314 9.73164 4.45224 11.7525 6.94529 11.7525C8.06335 11.7525 9.09112 11.3427 9.88279 10.6622L10.0703 10.8566V11.4052L13.5425 14.8705L14.5772 13.8358L11.112 10.3636ZM6.94529 10.3636C5.21612 10.3636 3.82029 8.96775 3.82029 7.23858C3.82029 5.50941 5.21612 4.11358 6.94529 4.11358C8.67446 4.11358 10.0703 5.50941 10.0703 7.23858C10.0703 8.96775 8.67446 10.3636 6.94529 10.3636Z" fill="#A1A1A1"/>
</svg>
