<svg width="18" height="18" viewBox="0 0 18 18" fill="none" xmlns="http://www.w3.org/2000/svg">
<path d="M16.8102 1.33958C14.8534 -0.77463 5.47714 2.9659 5.39561 2.9659C0.585181 4.83616 0.666714 5.89327 0.666714 6.21853C0.666714 8.25143 4.25415 8.98327 6.6186 9.47117C7.1078 9.55248 7.51546 9.6338 7.76006 9.71512C8.41232 9.87775 8.49385 9.95906 8.65692 10.6909C9.63531 15.2446 10.1245 17.2775 11.5921 17.3588C11.5921 17.3588 11.5921 17.3588 11.6736 17.3588C12.2444 17.3588 12.9782 16.9522 14.3642 13.9435C15.5872 11.2601 18.5224 3.20985 16.8102 1.33958ZM15.8318 5.73064C14.8534 10.3656 12.489 15.6512 11.5921 16.2204C11.0214 16.0578 10.4506 13.3743 9.79838 10.5283C9.71684 10.1217 9.63531 9.79643 9.47225 9.55248L11.9182 7.11301C12.1628 6.86906 12.1628 6.46248 11.9182 6.21853C11.6736 5.97459 11.266 5.97459 11.0214 6.21853L8.49385 8.73933C8.41232 8.65801 8.24925 8.65801 8.08619 8.57669C7.76006 8.49538 7.3524 8.41406 6.8632 8.33275C5.47714 8.0888 1.8897 7.35696 1.8897 6.29985C2.29737 5.40538 8.16772 2.88458 12.7336 2.15274C13.6304 1.99011 14.2827 1.99011 14.6903 1.99011C15.6687 1.99011 15.9133 2.23406 15.9133 2.23406C15.9949 2.23406 16.4025 2.80327 15.8318 5.73064Z" fill="#A1A1A1"/>
</svg>
