<svg width="21" height="20" viewBox="0 0 21 20" fill="none" xmlns="http://www.w3.org/2000/svg">
<path d="M15.8102 8.42424C14.0409 8.42424 12.605 6.91072 12.605 5.04586C12.605 3.18099 14.0409 1.66748 15.8102 1.66748C17.5794 1.66748 19.0153 3.18099 19.0153 5.04586C19.0153 6.91072 17.5794 8.42424 15.8102 8.42424ZM15.8102 3.01883C14.7503 3.01883 13.8871 3.92874 13.8871 5.04586C13.8871 6.16298 14.7503 7.07289 15.8102 7.07289C16.87 7.07289 17.7332 6.16298 17.7332 5.04586C17.7332 3.92874 16.87 3.01883 15.8102 3.01883Z" fill="#141414"/>
<path d="M5.55376 13.3792C3.78453 13.3792 2.34863 11.8657 2.34863 10.0008C2.34863 8.13595 3.78453 6.62244 5.55376 6.62244C7.32299 6.62244 8.75889 8.13595 8.75889 10.0008C8.75889 11.8657 7.32299 13.3792 5.55376 13.3792ZM5.55376 7.97379C4.49393 7.97379 3.63068 8.8837 3.63068 10.0008C3.63068 11.1179 4.49393 12.0278 5.55376 12.0278C6.61359 12.0278 7.47684 11.1179 7.47684 10.0008C7.47684 8.8837 6.61359 7.97379 5.55376 7.97379Z" fill="#141414"/>
<path d="M15.8102 18.3341C14.0409 18.3341 12.605 16.8206 12.605 14.9558C12.605 13.0909 14.0409 11.5774 15.8102 11.5774C17.5794 11.5774 19.0153 13.0909 19.0153 14.9558C19.0153 16.8206 17.5794 18.3341 15.8102 18.3341ZM15.8102 12.9287C14.7503 12.9287 13.8871 13.8387 13.8871 14.9558C13.8871 16.0729 14.7503 16.9828 15.8102 16.9828C16.87 16.9828 17.7332 16.0729 17.7332 14.9558C17.7332 13.8387 16.87 12.9287 15.8102 12.9287Z" fill="#141414"/>
<path d="M13.1691 14.4423L7.61359 11.7396L8.15205 10.5143L13.7076 13.217L13.1691 14.4423ZM8.15205 9.4873L7.61359 8.26208L13.1691 5.55937L13.7076 6.7846L8.15205 9.4873Z" fill="#141414"/>
</svg>
