<svg width="15" height="16" viewBox="0 0 15 16" fill="none" xmlns="http://www.w3.org/2000/svg">
<path d="M12.0045 15.9168C11.3808 15.9168 10.8512 15.6987 10.4158 15.2625C9.98048 14.8262 9.76284 14.2965 9.76284 13.6733C9.76284 13.59 9.79166 13.3875 9.84929 13.0658L3.92304 9.57704C3.72221 9.78537 3.4836 9.94857 3.20721 10.0666C2.93082 10.1847 2.63471 10.2437 2.31888 10.2437C1.6979 10.2437 1.17006 10.0247 0.735335 9.58662C0.300613 9.14857 0.083252 8.61975 0.083252 8.00016C0.083252 7.38058 0.300613 6.85176 0.735335 6.4137C1.17006 5.97565 1.6979 5.75662 2.31888 5.75662C2.63471 5.75662 2.93082 5.81565 3.20721 5.9337C3.4836 6.05176 3.72221 6.21495 3.92304 6.42329L9.84929 2.94245C9.81624 2.83995 9.79353 2.73954 9.78117 2.6412C9.76895 2.54287 9.76284 2.43815 9.76284 2.32704C9.76284 1.70384 9.9811 1.17412 10.4176 0.737871C10.8543 0.301621 11.3845 0.0834961 12.0083 0.0834961C12.632 0.0834961 13.1615 0.301829 13.5968 0.738496C14.0322 1.17502 14.2499 1.70516 14.2499 2.32891C14.2499 2.95266 14.0318 3.48225 13.5955 3.91766C13.1593 4.35294 12.6296 4.57058 12.0064 4.57058C11.689 4.57058 11.3939 4.51023 11.121 4.38954C10.8479 4.26884 10.611 4.10433 10.4101 3.896L4.48388 7.38475C4.51693 7.48739 4.53964 7.5878 4.552 7.686C4.56422 7.78433 4.57034 7.88905 4.57034 8.00016C4.57034 8.11127 4.56422 8.216 4.552 8.31433C4.53964 8.41252 4.51693 8.51294 4.48388 8.61558L10.4101 12.1043C10.611 11.896 10.8479 11.7315 11.121 11.6108C11.3939 11.4901 11.689 11.4297 12.0064 11.4297C12.6296 11.4297 13.1593 11.648 13.5955 12.0845C14.0318 12.5212 14.2499 13.0514 14.2499 13.6752C14.2499 14.2989 14.0316 14.8284 13.5949 15.2637C13.1584 15.6991 12.6283 15.9168 12.0045 15.9168ZM12.0064 14.6668C12.2879 14.6668 12.5239 14.5716 12.7143 14.3812C12.9047 14.1908 12.9999 13.9548 12.9999 13.6733C12.9999 13.3918 12.9047 13.1558 12.7143 12.9654C12.5239 12.7748 12.2879 12.6795 12.0064 12.6795C11.7248 12.6795 11.4889 12.7748 11.2985 12.9654C11.1079 13.1558 11.0126 13.3918 11.0126 13.6733C11.0126 13.9548 11.1079 14.1908 11.2985 14.3812C11.4889 14.5716 11.7248 14.6668 12.0064 14.6668ZM2.31888 8.9937C2.60263 8.9937 2.84047 8.8985 3.03242 8.70808C3.2245 8.51766 3.32054 8.28169 3.32054 8.00016C3.32054 7.71863 3.2245 7.48266 3.03242 7.29225C2.84047 7.10183 2.60263 7.00662 2.31888 7.00662C2.03957 7.00662 1.80547 7.10183 1.61659 7.29225C1.4277 7.48266 1.33325 7.71863 1.33325 8.00016C1.33325 8.28169 1.4277 8.51766 1.61659 8.70808C1.80547 8.8985 2.03957 8.9937 2.31888 8.9937ZM12.0064 3.32079C12.2879 3.32079 12.5239 3.22551 12.7143 3.03495C12.9047 2.84454 12.9999 2.60857 12.9999 2.32704C12.9999 2.04551 12.9047 1.80954 12.7143 1.61912C12.5239 1.4287 12.2879 1.3335 12.0064 1.3335C11.7248 1.3335 11.4889 1.4287 11.2985 1.61912C11.1079 1.80954 11.0126 2.04551 11.0126 2.32704C11.0126 2.60857 11.1079 2.84454 11.2985 3.03495C11.4889 3.22551 11.7248 3.32079 12.0064 3.32079Z" fill="#565656"/>
</svg>
