<svg width="18" height="18" viewBox="0 0 18 18" fill="none" xmlns="http://www.w3.org/2000/svg">
<path d="M13.8102 7.42424C12.0409 7.42424 10.605 5.91072 10.605 4.04586C10.605 2.18099 12.0409 0.66748 13.8102 0.66748C15.5794 0.66748 17.0153 2.18099 17.0153 4.04586C17.0153 5.91072 15.5794 7.42424 13.8102 7.42424ZM13.8102 2.01883C12.7503 2.01883 11.8871 2.92874 11.8871 4.04586C11.8871 5.16298 12.7503 6.07289 13.8102 6.07289C14.87 6.07289 15.7332 5.16298 15.7332 4.04586C15.7332 2.92874 14.87 2.01883 13.8102 2.01883Z" fill="#141414"/>
<path d="M3.55376 12.3792C1.78453 12.3792 0.348633 10.8657 0.348633 9.00081C0.348633 7.13595 1.78453 5.62244 3.55376 5.62244C5.32299 5.62244 6.75889 7.13595 6.75889 9.00081C6.75889 10.8657 5.32299 12.3792 3.55376 12.3792ZM3.55376 6.97379C2.49393 6.97379 1.63068 7.8837 1.63068 9.00081C1.63068 10.1179 2.49393 11.0278 3.55376 11.0278C4.61359 11.0278 5.47684 10.1179 5.47684 9.00081C5.47684 7.8837 4.61359 6.97379 3.55376 6.97379Z" fill="#141414"/>
<path d="M13.8102 17.3341C12.0409 17.3341 10.605 15.8206 10.605 13.9558C10.605 12.0909 12.0409 10.5774 13.8102 10.5774C15.5794 10.5774 17.0153 12.0909 17.0153 13.9558C17.0153 15.8206 15.5794 17.3341 13.8102 17.3341ZM13.8102 11.9287C12.7503 11.9287 11.8871 12.8387 11.8871 13.9558C11.8871 15.0729 12.7503 15.9828 13.8102 15.9828C14.87 15.9828 15.7332 15.0729 15.7332 13.9558C15.7332 12.8387 14.87 11.9287 13.8102 11.9287Z" fill="#141414"/>
<path d="M11.1691 13.4423L5.61359 10.7396L6.15205 9.51433L11.7076 12.217L11.1691 13.4423ZM6.15205 8.4873L5.61359 7.26208L11.1691 4.55937L11.7076 5.7846L6.15205 8.4873Z" fill="#141414"/>
</svg>
