<svg width="16" height="17" viewBox="0 0 16 17" fill="none" xmlns="http://www.w3.org/2000/svg">
<path d="M6.12322 8.29184H9.45655V9.22288C9.45655 9.38525 9.52787 9.49719 9.67051 9.55872C9.81315 9.62011 9.94322 9.59205 10.0607 9.47455L11.3972 8.13788C11.5319 8.00191 11.5993 7.84323 11.5993 7.66184C11.5993 7.48032 11.5309 7.32157 11.3941 7.18559L10.0607 5.85913C9.94322 5.74163 9.81315 5.71205 9.67051 5.77038C9.52787 5.82872 9.45655 5.93948 9.45655 6.10268V7.04184H5.62635C5.41301 7.04184 5.23413 7.114 5.08968 7.2583C4.94538 7.40275 4.87322 7.58163 4.87322 7.79497V10.1668C4.87322 10.3439 4.93315 10.4923 5.05301 10.6121C5.17288 10.7319 5.32135 10.7918 5.49843 10.7918C5.67565 10.7918 5.82406 10.7319 5.94364 10.6121C6.06336 10.4923 6.12322 10.3439 6.12322 10.1668V8.29184ZM7.99989 16.3046C7.81183 16.3046 7.62656 16.2669 7.44406 16.1916C7.26156 16.1164 7.09482 16.0034 6.94385 15.8527L0.645723 9.55455C0.495028 9.40427 0.382042 9.23823 0.306764 9.05643C0.231487 8.87462 0.193848 8.68976 0.193848 8.50184C0.193848 8.31379 0.231487 8.12851 0.306764 7.94601C0.382042 7.76351 0.495028 7.59677 0.645723 7.4458L6.94385 1.14768C7.09413 0.996981 7.26017 0.883995 7.44197 0.808717C7.62378 0.733439 7.80864 0.695801 7.99656 0.695801C8.18461 0.695801 8.36989 0.733439 8.55239 0.808717C8.73489 0.883995 8.90162 0.996981 9.0526 1.14768L15.3507 7.4458C15.5014 7.59608 15.6144 7.76212 15.6897 7.94393C15.765 8.12573 15.8026 8.31059 15.8026 8.49851C15.8026 8.68656 15.765 8.87184 15.6897 9.05434C15.6144 9.23684 15.5014 9.40358 15.3507 9.55455L9.0526 15.8527C8.90232 16.0034 8.73628 16.1164 8.55447 16.1916C8.37267 16.2669 8.18781 16.3046 7.99989 16.3046ZM7.82197 14.9906C7.87003 15.0386 7.92878 15.0627 7.99822 15.0627C8.06767 15.0627 8.12642 15.0386 8.17447 14.9906L14.4886 8.67643C14.5367 8.62837 14.5607 8.56962 14.5607 8.50018C14.5607 8.43073 14.5367 8.37198 14.4886 8.32393L8.17447 2.00976C8.12642 1.9617 8.06767 1.93768 7.99822 1.93768C7.92878 1.93768 7.87003 1.9617 7.82197 2.00976L1.50781 8.32393C1.45975 8.37198 1.43572 8.43073 1.43572 8.50018C1.43572 8.56962 1.45975 8.62837 1.50781 8.67643L7.82197 14.9906Z" fill="#565656"/>
</svg>
