<svg width="16" height="17" viewBox="0 0 16 17" fill="none" xmlns="http://www.w3.org/2000/svg">
<path d="M11.5221 5.67398H10.4244V4.47147C10.4244 3.01232 9.19494 1.82447 7.6801 1.82447C6.16527 1.82447 4.93584 3.01232 4.93584 4.47147V5.67398H3.83813V4.47147C3.83813 2.40373 5.56519 0.724609 7.6801 0.724609C9.79502 0.724609 11.5221 2.40373 11.5221 4.47147V5.67398Z" fill="#565656"/>
<path d="M7.6801 16.4746C5.22856 16.4746 2.77701 16.108 1.72321 15.3748C1.10118 14.9421 0.632824 14.3482 0.369375 13.659C-0.0697079 12.5298 0.303512 11.2246 1.04263 8.63627C1.88421 5.70331 3.15755 4.76476 6.30431 4.76476H9.05589C12.2027 4.76476 13.476 5.70331 14.3176 8.63627C15.0567 11.2246 15.4299 12.5298 14.9981 13.659C14.7274 14.3482 14.259 14.9421 13.6443 15.3748C12.5832 16.108 10.1316 16.4746 7.6801 16.4746ZM6.30431 5.85729C3.63322 5.85729 2.80628 6.45855 2.09643 8.92957C1.42317 11.2833 1.08654 12.4638 1.38658 13.2557C1.57685 13.7396 1.90616 14.1649 2.34525 14.4655C4.08694 15.6754 11.2659 15.6754 13.0076 14.4655C13.4467 14.1576 13.776 13.7396 13.9663 13.2557C14.2737 12.4711 13.9297 11.2833 13.2565 8.92957C12.5539 6.45855 11.7343 5.85729 9.05589 5.85729H6.30431Z" fill="#565656"/>
<path d="M8.41191 8.42363H6.9483C6.64826 8.42363 6.39944 8.17433 6.39944 7.8737C6.39944 7.57307 6.64826 7.32377 6.9483 7.32377H8.41191C8.71926 7.32377 8.96076 7.57307 8.96076 7.8737C8.96076 8.17433 8.71926 8.42363 8.41191 8.42363Z" fill="#565656"/>
</svg>
