<svg width="10" height="13" viewBox="0 0 10 13" fill="none" xmlns="http://www.w3.org/2000/svg">
<path fill-rule="evenodd" clip-rule="evenodd" d="M0.915954 0.909494C1.66219 0.420564 2.72092 0.684825 3.05263 1.56407C3.649 3.1449 3.9656 4.64325 4.13338 5.74536C4.2161 6.28873 4.26288 6.73732 4.28909 7.05397C5.3293 6.79633 6.28036 6.81058 6.99936 6.89887C7.41655 6.9501 7.75825 7.02656 7.99771 7.09096C8.11755 7.12318 8.21209 7.15247 8.27802 7.17422C8.31099 7.1851 8.33684 7.1941 8.35515 7.20065L8.36256 7.20335C8.37319 7.2062 8.38668 7.20994 8.40267 7.21462C8.43994 7.22553 8.49126 7.24168 8.55204 7.26377C8.67225 7.30747 8.83621 7.37684 9.00354 7.47912C9.32612 7.67629 9.74852 8.05431 9.74852 8.67389C9.74852 9.50259 9.0669 10.1624 8.24105 10.1624H3.09068C2.37741 10.1624 1.75516 9.66698 1.61275 8.96714M1.61275 8.96714L0.280689 2.42134C0.280688 2.42134 0.280689 2.42134 0.280689 2.42134C0.161215 1.83426 0.414944 1.23776 0.915954 0.909494M8.095 7.97223L8.09355 7.97169L8.08086 7.96708C8.06872 7.96273 8.0493 7.95595 8.02301 7.94727C7.97041 7.92992 7.89043 7.90506 7.78631 7.87706C7.57787 7.821 7.27393 7.75273 6.90015 7.70683C6.15126 7.61487 5.13263 7.61394 4.04136 7.97145C3.91923 8.01146 3.78537 7.99144 3.6803 7.91744C3.57525 7.84347 3.51131 7.72425 3.50778 7.59583L3.50776 7.59491L3.5076 7.59013L3.50682 7.56878C3.50605 7.54938 3.50475 7.51978 3.50268 7.48055C3.49853 7.4021 3.49128 7.28524 3.47896 7.13476C3.45431 6.83372 3.40942 6.39865 3.32862 5.86787C3.16683 4.80512 2.86201 3.36501 2.29099 1.8514C2.16204 1.50959 1.71836 1.35695 1.36208 1.59039C1.13554 1.73882 1.02635 2.00341 1.07837 2.25901L2.41043 8.80481C2.47377 9.11609 2.75481 9.3484 3.09068 9.3484H8.24105C8.6307 9.3484 8.93449 9.03975 8.93449 8.67389C8.93449 8.47559 8.80666 8.31282 8.57901 8.17368C8.47123 8.1078 8.36008 8.06013 8.27395 8.02883C8.23156 8.01342 8.19691 8.00258 8.174 7.99587C8.16258 7.99253 8.1542 7.99025 8.14937 7.98897L8.14531 7.98791L8.14594 7.98806C8.12884 7.98395 8.11202 7.97874 8.09558 7.97245C8.0955 7.97242 8.09567 7.97248 8.09558 7.97245L8.095 7.97223Z" fill="#565656"/>
<path fill-rule="evenodd" clip-rule="evenodd" d="M4.86434 5.68526C4.86434 5.46047 5.04657 5.27825 5.27136 5.27825H8.25613C8.48092 5.27825 8.66315 5.46047 8.66315 5.68526C8.66315 5.91005 8.48092 6.09228 8.25613 6.09228H5.27136C5.04657 6.09228 4.86434 5.91005 4.86434 5.68526Z" fill="#565656"/>
<path fill-rule="evenodd" clip-rule="evenodd" d="M7.41497 9.4298C7.5948 9.56467 7.63125 9.81979 7.49637 9.99962L6.35673 11.5191H8.25613C8.48092 11.5191 8.66315 11.7014 8.66315 11.9262C8.66315 12.1509 8.48092 12.3332 8.25613 12.3332H2.82927C2.60448 12.3332 2.42226 12.1509 2.42226 11.9262C2.42226 11.7014 2.60448 11.5191 2.82927 11.5191H5.3392L6.84515 9.5112C6.98002 9.33137 7.23514 9.29493 7.41497 9.4298Z" fill="#565656"/>
</svg>
