<svg width="21" height="21" viewBox="0 0 21 21" fill="none" xmlns="http://www.w3.org/2000/svg">
<path d="M11.3805 18.3588H9.61335C6.83089 18.3588 5.43578 18.3588 4.3662 17.4673C3.28887 16.5759 3.08736 15.2348 2.67658 12.5681L2.44406 11.0487C2.16504 9.22702 2.01003 8.21927 2.40531 7.28129C2.80834 6.3433 3.5989 5.76966 5.18001 4.63012L6.2961 3.82392C8.24924 2.40532 9.23357 1.69214 10.4969 1.69214C11.7603 1.69214 12.7368 2.40532 14.6977 3.81617L15.8138 4.62237C17.3949 5.76191 18.1855 6.33555 18.5885 7.27353C18.9916 8.21927 18.8365 9.22702 18.5575 11.0487L18.325 12.5681C17.9142 15.2348 17.7127 16.5759 16.6354 17.4673C15.558 18.3588 14.1629 18.3588 11.3805 18.3588ZM3.59115 10.8782L3.82366 12.3976C4.18794 14.7774 4.37395 15.9635 5.11026 16.5759C5.85432 17.196 7.10991 17.196 9.61335 17.196H11.3805C13.8839 17.196 15.1395 17.196 15.8836 16.5759C16.6199 15.9635 16.8059 14.7697 17.1702 12.3976L17.4027 10.8782C17.6585 9.21152 17.7902 8.37431 17.5189 7.7309C17.2399 7.09524 16.5346 6.58361 15.1318 5.56811L14.0079 4.75415C10.4969 2.21927 10.4814 2.21927 6.9704 4.75415L5.86207 5.56811C4.45921 6.58361 3.75391 7.09524 3.47489 7.7309C3.20362 8.37431 3.33538 9.21152 3.59115 10.8782Z" fill="#565656"/>
<path d="M10.4969 13.7076C10.1791 13.7076 9.91562 13.4441 9.91562 13.1262V11.3821H8.17174C7.84621 11.3821 7.59045 11.1185 7.59045 10.8007C7.59045 10.4828 7.84621 10.2193 8.17174 10.2193H9.91562V8.47508C9.91562 8.15725 10.1714 7.89369 10.4969 7.89369C10.8224 7.89369 11.0782 8.15725 11.0782 8.47508V10.2193H12.8221C13.1399 10.2193 13.4034 10.4828 13.4034 10.8007C13.4034 11.1185 13.1399 11.3821 12.8221 11.3821H11.0782V13.1262C11.0782 13.4441 10.8147 13.7076 10.4969 13.7076Z" fill="#565656"/>
</svg>
