<svg width="19" height="19" viewBox="0 0 19 19" fill="none" xmlns="http://www.w3.org/2000/svg">
<path d="M11.5565 20.0254H9.43592C6.09697 20.0254 4.42284 20.0254 3.13935 18.9556C1.84655 17.8859 1.60473 16.2766 1.11179 13.0766L0.832773 11.2533C0.497948 9.06725 0.311934 7.85795 0.78627 6.73237C1.26991 5.60679 2.21858 4.91841 4.11592 3.55097L5.45522 2.58353C7.799 0.881204 8.98018 0.0253906 10.4962 0.0253906C12.0122 0.0253906 13.1841 0.881204 15.5372 2.57423L16.8765 3.54167C18.7738 4.90911 19.7225 5.59748 20.2061 6.72306C20.6898 7.85795 20.5037 9.06725 20.1689 11.2533L19.8899 13.0766C19.397 16.2766 19.1551 17.8859 17.8624 18.9556C16.5696 20.0254 14.8954 20.0254 11.5565 20.0254ZM2.20928 11.0486L2.4883 12.8719C2.92543 15.7277 3.14865 17.151 4.03221 17.8859C4.92508 18.63 6.43179 18.63 9.43592 18.63H11.5565C14.5606 18.63 16.0673 18.63 16.9602 17.8859C17.8437 17.151 18.067 15.7184 18.5041 12.8719L18.7831 11.0486C19.09 9.04865 19.2482 8.04399 18.9226 7.2719C18.5878 6.50911 17.7414 5.89516 16.058 4.67655L14.7094 3.69981C10.4962 0.657949 10.4776 0.657949 6.26438 3.69981L4.93438 4.67655C3.25095 5.89516 2.40459 6.50911 2.06977 7.2719C1.74424 8.04399 1.90235 9.04865 2.20928 11.0486Z" fill="#565656"/>
<path d="M10.4962 14.444C10.1149 14.444 9.79865 14.1277 9.79865 13.7463V11.6533H7.70599C7.31536 11.6533 7.00844 11.337 7.00844 10.9556C7.00844 10.5742 7.31536 10.2579 7.70599 10.2579H9.79865V8.16492C9.79865 7.78353 10.1056 7.46725 10.4962 7.46725C10.8868 7.46725 11.1938 7.78353 11.1938 8.16492V10.2579H13.2864C13.6677 10.2579 13.984 10.5742 13.984 10.9556C13.984 11.337 13.6677 11.6533 13.2864 11.6533H11.1938V13.7463C11.1938 14.1277 10.8775 14.444 10.4962 14.444Z" fill="#565656"/>
</svg>
