<svg width="12" height="10" viewBox="0 0 12 10" fill="none" xmlns="http://www.w3.org/2000/svg">
<path fill-rule="evenodd" clip-rule="evenodd" d="M9.18944 9.88522C9.38042 9.74008 9.42234 9.50131 9.30589 9.16422L8.33234 6.24744L10.8198 4.45431C11.1086 4.24831 11.225 4.02826 11.1505 3.79885C11.076 3.56944 10.857 3.45708 10.4984 3.46176L7.44729 3.48517L6.52032 0.55435C6.40853 0.212577 6.24084 0.034668 5.99861 0.034668C5.76105 0.034668 5.59336 0.212577 5.48156 0.55435L4.55459 3.48517L1.50351 3.46176C1.14484 3.45708 0.925905 3.56944 0.851375 3.79885C0.772187 4.02826 0.893298 4.24831 1.1821 4.45431L3.66955 6.24744L2.696 9.16422C2.57954 9.50131 2.62147 9.74008 2.81245 9.88522C3.00343 10.035 3.24566 9.98354 3.53446 9.77285L5.99861 7.95163L8.46742 9.77285C8.75623 9.98354 8.99379 10.035 9.18944 9.88522Z" fill="#F59B14"/>
</svg>
