<svg width="24" height="24" viewBox="0 0 24 24" fill="none" xmlns="http://www.w3.org/2000/svg">
<path fill-rule="evenodd" clip-rule="evenodd" d="M12 8.2349C9.92053 8.2349 8.23478 9.92065 8.23478 12.0001C8.23478 14.0796 9.92053 15.7654 12 15.7654C14.0795 15.7654 15.7652 14.0796 15.7652 12.0001C15.7652 9.92066 14.0795 8.2349 12 8.2349ZM6.90588 12.0001C6.90588 9.18672 9.1866 6.906 12 6.906C14.8134 6.906 17.0941 9.18672 17.0941 12.0001C17.0941 14.8135 14.8134 17.0943 12 17.0943C9.1866 17.0943 6.90588 14.8135 6.90588 12.0001Z" fill="#F59B14"/>
<path fill-rule="evenodd" clip-rule="evenodd" d="M12.498 2.70085C12.7409 2.97587 12.7149 3.39577 12.4399 3.63873C12.3492 3.71885 12.2514 3.86088 12.2273 3.99207C12.2172 4.04703 12.2198 4.09808 12.2394 4.15243C12.2595 4.20799 12.3092 4.29916 12.4399 4.4147C12.7149 4.65767 12.7409 5.07757 12.498 5.35258C12.255 5.62759 11.8351 5.65357 11.5601 5.4106C10.9953 4.91167 10.817 4.31226 10.9204 3.75127C11.0132 3.24754 11.3165 2.85801 11.5601 2.64282C11.8351 2.39986 12.255 2.42584 12.498 2.70085ZM5.8419 4.69243C6.20816 4.7151 6.48671 5.03039 6.46404 5.39665C6.45576 5.53052 6.48975 5.71948 6.57617 5.84495C6.61325 5.89878 6.65861 5.93987 6.72089 5.96908C6.78434 5.99884 6.89645 6.03068 7.08633 6.01893C7.45259 5.99627 7.76788 6.27481 7.79055 6.64108C7.81321 7.00735 7.53467 7.32264 7.1684 7.3453C6.38489 7.39378 5.81612 7.08418 5.48177 6.59878C5.18046 6.16134 5.1168 5.65204 5.13768 5.31458C5.16034 4.94831 5.47563 4.66977 5.8419 4.69243ZM17.4022 5.03869C17.8394 4.73758 18.3483 4.67396 18.6856 4.69483C19.0518 4.7175 19.3304 5.03279 19.3077 5.39905C19.285 5.76532 18.9697 6.04386 18.6035 6.0212C18.4698 6.01293 18.2812 6.04687 18.1561 6.1331C18.1024 6.17008 18.0614 6.2153 18.0323 6.2774C18.0026 6.34068 17.9708 6.45255 17.9825 6.64214C18.0052 7.00841 17.7266 7.32369 17.3604 7.34635C16.9941 7.369 16.6788 7.09045 16.6562 6.72418C16.6077 5.94125 16.9171 5.37284 17.4022 5.03869ZM20.2489 10.9205C20.7526 11.0133 21.1421 11.3166 21.3573 11.5602C21.6003 11.8352 21.5743 12.2552 21.2993 12.4981C21.0242 12.7411 20.6043 12.7151 20.3614 12.44C20.2813 12.3494 20.1393 12.2516 20.0081 12.2274C19.9531 12.2173 19.9021 12.2199 19.8477 12.2396C19.7921 12.2597 19.701 12.3093 19.5854 12.4401C19.3425 12.7151 18.9226 12.741 18.6476 12.4981C18.3725 12.2551 18.3466 11.8352 18.5895 11.5602C19.0885 10.9955 19.6879 10.8171 20.2489 10.9205ZM2.70072 11.0592C2.97573 10.8162 3.39564 10.8422 3.63861 11.1172C3.75415 11.248 3.84531 11.2976 3.90087 11.3177C3.95522 11.3374 4.00627 11.34 4.06123 11.3299C4.19242 11.3057 4.33445 11.2079 4.41457 11.1172C4.65753 10.8422 5.07744 10.8162 5.35245 11.0592C5.62746 11.3022 5.65345 11.7221 5.41048 11.9971C5.19529 12.2407 4.80576 12.544 4.30203 12.6368C3.74105 12.7402 3.14164 12.5618 2.64271 11.9971C2.39974 11.7221 2.42571 11.3022 2.70072 11.0592ZM6.19663 16.2096C6.5629 16.1869 6.87819 16.4655 6.90085 16.8317C6.92172 17.169 6.85812 17.6779 6.557 18.1151C6.22285 18.6002 5.65444 18.9096 4.8715 18.8611C4.50524 18.8385 4.22669 18.5232 4.24934 18.1569C4.272 17.7907 4.58728 17.5121 4.95355 17.5348C5.14314 17.5465 5.25501 17.5147 5.31829 17.485C5.38039 17.4559 5.42561 17.4149 5.46259 17.3612C5.54882 17.2361 5.58276 17.0475 5.57449 16.9138C5.55182 16.5475 5.83037 16.2323 6.19663 16.2096ZM17.8184 17.6473C17.6904 17.564 17.4952 17.5302 17.3544 17.5384C16.9881 17.5598 16.6737 17.2802 16.6523 16.9139C16.6309 16.5475 16.9105 16.2332 17.2768 16.2118C17.6069 16.1924 18.1092 16.2508 18.5436 16.5337C19.0292 16.8499 19.3542 17.4012 19.3038 18.1713C19.2799 18.5375 18.9636 18.815 18.5974 18.791C18.2312 18.767 17.9538 18.4508 17.9778 18.0846C17.9888 17.9164 17.9589 17.8226 17.9342 17.7728C17.9095 17.7231 17.873 17.6829 17.8184 17.6473ZM11.502 18.6477C11.745 18.3727 12.1649 18.3467 12.4399 18.5896C12.6835 18.8048 12.9868 19.1944 13.0796 19.6981C13.183 20.2591 13.0047 20.8585 12.4399 21.3574C12.1649 21.6004 11.745 21.5744 11.5021 21.2994C11.2591 21.0244 11.2851 20.6045 11.5601 20.3615C11.6908 20.246 11.7405 20.1548 11.7606 20.0993C11.7802 20.0449 11.7829 19.9939 11.7727 19.9389C11.7486 19.8077 11.6508 19.6657 11.5601 19.5856C11.2851 19.3426 11.2591 18.9227 11.502 18.6477Z" fill="#F59B14"/>
</svg>
