<svg width="14" height="11" viewBox="0 0 14 11" fill="none" xmlns="http://www.w3.org/2000/svg">
<path d="M7.03001 5.34477C8.33214 5.34477 9.38625 4.29066 9.38625 2.98852C9.38625 1.68639 8.33214 0.694283 7.03001 0.694283C5.72787 0.694283 4.73577 1.68639 4.73577 2.98852C4.73577 4.29066 5.72787 5.34477 7.03001 5.34477ZM7.03001 1.62438C7.77409 1.62438 8.45616 2.24444 8.45616 3.05053C8.45616 3.85661 7.83609 4.47668 7.03001 4.47668C6.28593 4.47668 5.60386 3.85661 5.60386 3.05053C5.60386 2.24444 6.28593 1.62438 7.03001 1.62438Z" fill="#141414"/>
<path d="M9.51021 1.00432C10.2543 1.00432 10.9364 1.62438 10.9364 2.43046C10.9364 2.98852 10.6263 3.48457 10.1303 3.7326C9.88224 3.85661 9.82024 4.10464 9.88224 4.35266C9.94425 4.53868 10.1303 4.60069 10.3163 4.60069C10.3783 4.60069 10.4403 4.60069 10.5023 4.53868C11.3704 4.16664 11.8664 3.36056 11.8664 2.43046C11.8664 1.12833 10.8123 0.0742188 9.51021 0.0742188C9.26218 0.0742188 9.01415 0.260238 9.01415 0.57027C9.01415 0.880302 9.26218 1.00432 9.51021 1.00432Z" fill="#141414"/>
<path d="M8.08412 6.27486H5.9759C4.23972 6.27486 2.87558 7.70101 2.87558 9.37518C2.87558 10.2433 3.55765 10.9253 4.42574 10.9253H9.75829C10.6264 10.9253 11.3085 10.2433 11.3085 9.37518C11.2464 7.639 9.8203 6.27486 8.08412 6.27486ZM9.69628 9.99525H4.36373C4.0537 9.99525 3.74367 9.74722 3.74367 9.37518C3.74367 8.13505 4.73577 7.20496 5.91389 7.20496H8.02211C9.26224 7.20496 10.1923 8.19706 10.1923 9.37518C10.3163 9.68521 10.0063 9.99525 9.69628 9.99525Z" fill="#141414"/>
<path d="M10.5643 5.6548C10.3163 5.6548 10.0682 5.84082 10.0682 6.15085C10.0682 6.46088 10.2543 6.6469 10.5643 6.6469C11.7424 6.6469 12.7345 7.639 12.7345 8.81713C12.7345 9.12716 12.4865 9.43719 12.1144 9.43719C11.8664 9.43719 11.6184 9.62321 11.6184 9.93324C11.6184 10.2433 11.8044 10.4293 12.1144 10.4293C12.9825 10.4293 13.6646 9.74722 13.6646 8.87913C13.7266 7.01894 12.3005 5.6548 10.5643 5.6548Z" fill="#141414"/>
<path d="M3.61965 4.47668C3.68166 4.47668 3.74367 4.53868 3.80567 4.53868C3.99169 4.53868 4.17771 4.41467 4.23972 4.29066C4.36373 4.04263 4.23972 3.7946 3.99169 3.67059C3.49564 3.42257 3.18561 2.92651 3.18561 2.36846C3.18561 1.62438 3.80567 0.942309 4.61176 0.942309C4.85978 0.942309 5.10781 0.75629 5.10781 0.446257C5.10781 0.136225 4.79778 0.0742188 4.54975 0.0742188C3.24762 0.0742188 2.25551 1.06632 2.25551 2.36846C2.25551 3.29855 2.75156 4.10464 3.61965 4.47668Z" fill="#141414"/>
<path d="M1.88341 9.37543C1.57338 9.37543 1.26335 9.1274 1.26335 8.75536C1.26335 7.51523 2.25545 6.58514 3.43357 6.58514C3.74361 6.58514 3.92963 6.33711 3.92963 6.08909C3.92963 5.84106 3.74361 5.59303 3.43357 5.59303C1.69739 5.59303 0.333252 7.01918 0.333252 8.69336C0.333252 9.56145 1.01532 10.2435 1.88341 10.2435C2.13144 10.2435 2.37946 10.0575 2.37946 9.74746C2.37946 9.43743 2.13144 9.37543 1.88341 9.37543Z" fill="#141414"/>
</svg>
