<svg width="12" height="13" viewBox="0 0 12 13" fill="none" xmlns="http://www.w3.org/2000/svg">
<path d="M6.00008 12.3332C2.78225 12.3332 0.166748 9.71767 0.166748 6.49984C0.166748 3.28201 2.78225 0.666504 6.00008 0.666504C9.21791 0.666504 11.8334 3.28201 11.8334 6.49984C11.8334 9.71767 9.21791 12.3332 6.00008 12.3332ZM6.00008 1.48046C3.23264 1.48046 0.980701 3.7324 0.980701 6.49984C0.980701 9.26728 3.23264 11.5192 6.00008 11.5192C8.76752 11.5192 11.0195 9.26728 11.0195 6.49984C11.0195 3.7324 8.76752 1.48046 6.00008 1.48046Z" fill="#7B7B7B"/>
<path d="M7.08535 7.99208C6.98225 7.99208 6.87915 7.9541 6.79775 7.8727L5.71248 6.78743C5.63651 6.71146 5.5931 6.60836 5.5931 6.49984V4.32929C5.5931 4.10681 5.7776 3.92232 6.00008 3.92232C6.22256 3.92232 6.40706 4.10681 6.40706 4.32929V6.33162L7.37295 7.29751C7.53031 7.45488 7.53031 7.71534 7.37295 7.8727C7.29155 7.9541 7.18845 7.99208 7.08535 7.99208Z" fill="#7B7B7B"/>
</svg>
