<svg width="13" height="13" viewBox="0 0 13 13" fill="none" xmlns="http://www.w3.org/2000/svg">
<path fill-rule="evenodd" clip-rule="evenodd" d="M6.68136 3.37957C4.97008 3.37957 3.56133 4.81441 3.56133 6.61131C3.56133 7.09458 3.6635 7.55177 3.846 7.96201C3.93736 8.16737 3.84495 8.4079 3.63959 8.49925C3.43424 8.59061 3.19371 8.4982 3.10235 8.29284C2.8742 7.77999 2.74741 7.21023 2.74741 6.61131C2.74741 4.38901 4.49683 2.56565 6.68136 2.56565C8.86591 2.56565 10.6153 4.38901 10.6153 6.61131C10.6153 7.21024 10.4885 7.78 10.2604 8.29284C10.169 8.49819 9.92847 8.59061 9.72311 8.49925C9.51776 8.4079 9.42534 8.16737 9.5167 7.96202C9.6992 7.55176 9.80138 7.09458 9.80138 6.61131C9.80138 4.81441 8.39265 3.37957 6.68136 3.37957Z" fill="#7B7B7B"/>
<path fill-rule="evenodd" clip-rule="evenodd" d="M6.68136 0.666504C6.90611 0.666504 7.08832 0.848706 7.08832 1.07346V1.61608C7.08832 1.84083 6.90611 2.02304 6.68136 2.02304C6.4566 2.02304 6.2744 1.84083 6.2744 1.61608V1.07346C6.2744 0.848706 6.4566 0.666504 6.68136 0.666504Z" fill="#7B7B7B"/>
<path fill-rule="evenodd" clip-rule="evenodd" d="M11.1579 6.49959C11.1579 6.27483 11.3401 6.09263 11.5649 6.09263H12.1075C12.3322 6.09263 12.5144 6.27483 12.5144 6.49959C12.5144 6.72435 12.3322 6.90655 12.1075 6.90655H11.5649C11.3401 6.90655 11.1579 6.72435 11.1579 6.49959Z" fill="#7B7B7B"/>
<path fill-rule="evenodd" clip-rule="evenodd" d="M0.848267 6.49959C0.848267 6.27483 1.03047 6.09263 1.25523 6.09263H1.79784C2.0226 6.09263 2.2048 6.27483 2.2048 6.49959C2.2048 6.72435 2.0226 6.90655 1.79784 6.90655H1.25523C1.03047 6.90655 0.848267 6.72435 0.848267 6.49959Z" fill="#7B7B7B"/>
<path fill-rule="evenodd" clip-rule="evenodd" d="M10.8056 2.37485C10.9645 2.53378 10.9645 2.79145 10.8056 2.95038L10.4219 3.33407C10.263 3.493 10.0053 3.493 9.8464 3.33407C9.68748 3.17515 9.68747 2.91747 9.8464 2.75854L10.2301 2.37486C10.389 2.21593 10.6467 2.21593 10.8056 2.37485Z" fill="#7B7B7B"/>
<path fill-rule="evenodd" clip-rule="evenodd" d="M2.55715 2.37538C2.71608 2.21645 2.97375 2.21645 3.13268 2.37538L3.51637 2.75907C3.67529 2.918 3.67529 3.17567 3.51637 3.3346C3.35744 3.49353 3.09977 3.49353 2.94084 3.3346L2.55715 2.95091C2.39822 2.79198 2.39822 2.53431 2.55715 2.37538Z" fill="#7B7B7B"/>
<path fill-rule="evenodd" clip-rule="evenodd" d="M4.76939 8.59746L8.6193 8.59735C8.98555 8.59735 9.33244 8.90737 9.28078 9.32959C9.21959 9.8289 9.00586 10.4326 8.43178 10.7411C8.3836 11.181 8.27454 11.575 8.01733 11.865C7.69443 12.2292 7.22586 12.3382 6.68613 12.3327C6.09696 12.3425 5.62487 12.2041 5.31072 11.8227C5.06321 11.5222 4.96448 11.1253 4.91537 10.7134C4.67513 10.5615 4.49228 10.3835 4.36039 10.1693C4.19744 9.90474 4.13412 9.61974 4.10076 9.34238C4.05087 8.92756 4.3852 8.59746 4.76939 8.59746ZM5.764 10.871C5.80682 11.0798 5.86487 11.2152 5.93896 11.3052C6.03107 11.417 6.20893 11.5274 6.67727 11.5188C6.68138 11.5187 6.68549 11.5187 6.6896 11.5188C7.13862 11.5241 7.31579 11.4294 7.40837 11.325C7.48242 11.2415 7.54652 11.1048 7.59061 10.871H5.764ZM7.97542 10.0571C8.22158 9.95546 8.37138 9.73098 8.4423 9.41127L4.93443 9.41137C4.96147 9.55004 4.99926 9.65455 5.05341 9.74248C5.11566 9.84355 5.21601 9.94908 5.40269 10.0571H7.97542Z" fill="#7B7B7B"/>
</svg>
