<svg width="24" height="24" viewBox="0 0 24 24" fill="none" xmlns="http://www.w3.org/2000/svg">
<path d="M12 22C9.02857 22 4 21.414 4 19.2093C4 18.1767 5.10629 17.3953 7.28229 16.893C7.65714 16.8093 8.02286 17.0419 8.10514 17.4233C8.18743 17.7953 7.95886 18.1674 7.584 18.2605C5.92914 18.6419 5.41714 19.107 5.37143 19.2372C5.50857 19.5907 7.69371 20.6047 12 20.6047C16.3063 20.6047 18.4914 19.5907 18.6286 19.1907C18.5829 19.107 18.0709 18.6419 16.416 18.2605C16.0503 18.1767 15.8126 17.8047 15.8949 17.4233C15.9771 17.0419 16.352 16.8093 16.7177 16.893C18.8937 17.386 20 18.1674 20 19.2093C20 21.414 14.9714 22 12 22ZM12 18.2791C11.3874 18.2791 10.8114 18.0465 10.3726 17.6093L9.67771 16.9302C6.96229 14.2977 3.57943 11.0233 5.45371 6.43721C6.54171 3.78605 9.16571 2 12 2C14.8343 2 17.4583 3.78605 18.5463 6.43721C20.4297 11.0512 17.0194 14.3349 14.2857 16.9767L13.6274 17.6093C13.1886 18.0465 12.6126 18.2791 12 18.2791ZM12 3.39535C9.71429 3.39535 7.59314 4.82791 6.72457 6.96744C5.20686 10.6698 7.95886 13.3395 10.6286 15.9256L11.3326 16.614C11.6891 16.9674 12.32 16.9674 12.6766 16.614L13.344 15.9721C16.032 13.3767 18.8023 10.6977 17.2846 6.97674C16.4069 4.82791 14.2857 3.39535 12 3.39535ZM12 12.2326C10.3634 12.2326 9.02857 10.8744 9.02857 9.2093C9.02857 7.54419 10.3634 6.18605 12 6.18605C13.6366 6.18605 14.9714 7.54419 14.9714 9.2093C14.9714 10.8744 13.6366 12.2326 12 12.2326ZM12 7.5814C11.1223 7.5814 10.4 8.31628 10.4 9.2093C10.4 10.1023 11.1223 10.8372 12 10.8372C12.8777 10.8372 13.6 10.1023 13.6 9.2093C13.6 8.31628 12.8777 7.5814 12 7.5814Z" fill="#141B34"/>
</svg>
