<svg width="474" height="468" viewBox="0 0 474 468" fill="none" xmlns="http://www.w3.org/2000/svg">
<g opacity="0.1">
<path d="M82.1337 266.47C88.1337 269.958 95.6574 265.63 95.6574 258.689V56.8014C95.6574 49.8629 88.1373 45.5341 82.1373 49.0188L13.4445 88.9147L4.94636 93.8721C2.18147 95.485 0.481323 98.4451 0.481323 101.646V213.875C0.481323 217.09 2.19654 220.061 4.98092 221.669L19.0346 229.784L82.1337 266.47Z" fill="url(#paint0_linear_15210_7014)"/>
<path d="M219.749 220.605C222.522 218.995 224.229 216.03 224.229 212.822V85.5466C224.229 82.3222 225.954 79.3442 228.751 77.7398L230.06 76.9888L250.3 65.2093L321.851 23.6902C327.827 20.2227 327.829 11.5938 321.855 8.12354L241.806 -38.3757C239.013 -39.9984 235.564 -39.9994 232.769 -38.3782L126.211 23.4401C123.436 25.0503 121.728 28.0163 121.728 31.2249V261.897C121.728 268.835 129.248 273.164 135.248 269.679L219.749 220.605Z" fill="url(#paint1_linear_15210_7014)"/>
<path d="M224.229 355.671L230.06 352.326L309.088 306.403C315.061 302.932 315.058 294.304 309.082 290.837L250.3 256.733L234.559 247.534C231.776 245.908 228.336 245.894 225.54 247.498L224.229 248.25L115.991 311.11C113.192 312.736 109.737 312.733 106.94 311.104L95.6574 304.529L85.441 298.615L14.0017 257.121C8.00169 253.636 0.481323 257.964 0.481323 264.903V366.248C0.481323 369.453 2.1858 372.417 4.9563 374.028L94.2191 425.947C97.015 427.573 100.469 427.574 103.265 425.949L224.229 355.671Z" fill="url(#paint2_linear_15210_7014)"/>
<path d="M256.083 367.452L250.3 370.797L230.06 382.577L224.229 385.921L138.208 435.918C132.236 439.389 132.238 448.015 138.212 451.483L232.768 506.376C235.563 507.998 239.013 507.998 241.808 506.374L348.37 444.464C351.143 442.853 352.849 439.889 352.849 436.682V326.86C352.849 319.921 345.327 315.592 339.327 319.079L256.083 367.452Z" fill="url(#paint3_linear_15210_7014)"/>
<path d="M378.872 41.2607L365.812 33.6304C363.013 31.9949 359.55 31.9913 356.748 33.6211L269.474 84.3726C263.504 87.8444 263.507 96.4692 269.48 99.9364L374.583 160.946L378.872 163.467L460.482 210.834C466.482 214.317 474 209.988 474 203.05V101.656C474 98.4484 472.292 95.4829 469.518 93.8725L378.872 41.2607Z" fill="url(#paint4_linear_15210_7014)"/>
<path d="M263.819 126.915C257.819 123.431 250.3 127.76 250.3 134.698V221.246C250.3 224.458 252.013 227.428 254.794 229.036L256.083 229.782L348.512 283.492L352.849 285.965L374.583 298.617C377.24 300.178 378.872 303.03 378.872 306.112V411.096C378.872 418.036 386.395 422.365 392.395 418.877L460.94 379.037L469.531 374.031C472.298 372.418 474 369.457 474 366.255V254.15C474 250.948 472.298 247.986 469.531 246.374L467.012 244.906L263.819 126.915Z" fill="url(#paint5_linear_15210_7014)"/>
</g>
<defs>
<linearGradient id="paint0_linear_15210_7014" x1="398.027" y1="431.752" x2="17.7761" y2="226.675" gradientUnits="userSpaceOnUse">
<stop stop-color="white" stop-opacity="0.4"/>
<stop offset="1" stop-color="white" stop-opacity="0"/>
</linearGradient>
<linearGradient id="paint1_linear_15210_7014" x1="398.027" y1="431.752" x2="17.7761" y2="226.675" gradientUnits="userSpaceOnUse">
<stop stop-color="white" stop-opacity="0.4"/>
<stop offset="1" stop-color="white" stop-opacity="0"/>
</linearGradient>
<linearGradient id="paint2_linear_15210_7014" x1="398.027" y1="431.752" x2="17.7761" y2="226.675" gradientUnits="userSpaceOnUse">
<stop stop-color="white" stop-opacity="0.4"/>
<stop offset="1" stop-color="white" stop-opacity="0"/>
</linearGradient>
<linearGradient id="paint3_linear_15210_7014" x1="398.027" y1="431.752" x2="17.7761" y2="226.675" gradientUnits="userSpaceOnUse">
<stop stop-color="white" stop-opacity="0.4"/>
<stop offset="1" stop-color="white" stop-opacity="0"/>
</linearGradient>
<linearGradient id="paint4_linear_15210_7014" x1="398.027" y1="431.752" x2="17.7761" y2="226.675" gradientUnits="userSpaceOnUse">
<stop stop-color="white" stop-opacity="0.4"/>
<stop offset="1" stop-color="white" stop-opacity="0"/>
</linearGradient>
<linearGradient id="paint5_linear_15210_7014" x1="398.027" y1="431.752" x2="17.7761" y2="226.675" gradientUnits="userSpaceOnUse">
<stop stop-color="white" stop-opacity="0.4"/>
<stop offset="1" stop-color="white" stop-opacity="0"/>
</linearGradient>
</defs>
</svg>
