<svg width="18" height="18" viewBox="0 0 18 18" fill="none" xmlns="http://www.w3.org/2000/svg">
<g clip-path="url(#clip0_15495_8377)">
<path d="M17.3127 3.3293L6.28859 0.996281C5.82217 0.897604 5.35988 1.19852 5.2612 1.66493L5.05176 3.01088L17.7718 5.70264L17.9812 4.35669C18.0799 3.89045 17.7791 3.428 17.3127 3.3293Z" fill="#141414"/>
<path d="M12.6768 5.98792C12.5481 5.52421 12.0635 5.25012 11.5999 5.37868L9.50713 5.95965L4.57351 4.91553L4.03092 7.47922L0.640776 8.42017C0.177243 8.54876 -0.0968468 9.03335 0.0317129 9.49691L1.94225 16.3816C2.07102 16.8451 2.55564 17.1194 3.01917 16.9907L13.9783 13.9494C14.4418 13.8206 14.7159 13.3362 14.5874 12.8725L14.2594 11.6906L15.4885 11.9504C15.9549 12.0493 16.4172 11.7484 16.5159 11.282L17.2935 7.60731L12.8663 6.67045L12.6768 5.98792ZM13.9425 9.487L14.2135 8.20605C14.2542 8.01425 14.4444 7.89055 14.6361 7.93105L15.9171 8.20225C16.1091 8.24296 16.2328 8.43293 16.1923 8.6249L15.9212 9.90585C15.8805 10.0976 15.6904 10.2215 15.4986 10.1809L14.2176 9.90982C14.0255 9.86897 13.9017 9.67879 13.9425 9.487ZM0.831483 9.1072L3.8643 8.26584L11.0202 6.28004L11.7902 6.06609C11.8043 6.0623 11.8183 6.06051 11.832 6.06051C11.8938 6.06051 11.9676 6.10104 11.9892 6.17865L12.0796 6.50424L12.3629 7.52496L1.0926 10.6525L0.718923 9.30638C0.695511 9.22191 0.747041 9.13061 0.831483 9.1072ZM13.9001 13.063C13.9145 13.1152 13.8994 13.1584 13.8841 13.1854C13.869 13.2124 13.8398 13.2478 13.7876 13.2621L2.82864 16.3034C2.81479 16.3072 2.80055 16.3092 2.78685 16.3092C2.72508 16.3092 2.65123 16.2685 2.62964 16.1909L1.51528 12.1751L12.7856 9.04741L13.473 11.5241L13.9001 13.063Z" fill="#141414"/>
<path d="M4.59921 13.3379C4.54662 13.1488 4.34924 13.0372 4.16015 13.0896L2.88029 13.4449C2.69137 13.4973 2.57955 13.6949 2.63214 13.884L2.98726 15.1636C3.03985 15.3527 3.23723 15.4644 3.42632 15.4118L4.70618 15.0567C4.89527 15.0043 5.00692 14.8067 4.95451 14.6176L4.59921 13.3379Z" fill="#141414"/>
</g>
<defs>
<clipPath id="clip0_15495_8377">
<rect width="18" height="18" fill="white"/>
</clipPath>
</defs>
</svg>
